<svg width="143" height="74" viewBox="0 0 143 74" fill="none" xmlns="http://www.w3.org/2000/svg">
<path d="M9.58547 51.6748L0.705469 30.5148H6.94547L12.5855 46.3148L11.2655 46.5548L17.1855 30.5148H23.2655L13.9455 51.6748H9.58547Z" fill="white"/>
<path d="M29.7067 51.6748V30.5148H35.3867V51.6748H29.7067ZM32.5067 26.1548C31.4134 26.1548 30.5601 25.8881 29.9467 25.3548C29.3334 24.8215 29.0267 24.0615 29.0267 23.0748C29.0267 22.1681 29.3334 21.4348 29.9467 20.8748C30.5867 20.2881 31.4401 19.9948 32.5067 19.9948C33.6001 19.9948 34.4534 20.2748 35.0667 20.8348C35.6801 21.3681 35.9867 22.1148 35.9867 23.0748C35.9867 24.0081 35.6667 24.7548 35.0267 25.3148C34.4134 25.8748 33.5734 26.1548 32.5067 26.1548Z" fill="white"/>
<path d="M44.1378 51.6748V22.0748H49.8178V51.6748H44.1378Z" fill="white"/>
<path d="M58.1378 51.6748V22.0748H63.8178V51.6748H58.1378Z" fill="white"/>
<path d="M80.2327 52.0748C78.4727 52.0748 76.886 51.5948 75.4727 50.6348C74.0593 49.6748 72.9393 48.3681 72.1127 46.7148C71.286 45.0615 70.8727 43.1681 70.8727 41.0348C70.8727 38.9015 71.286 37.0215 72.1127 35.3948C72.966 33.7415 74.1127 32.4481 75.5527 31.5148C76.9927 30.5548 78.6327 30.0748 80.4727 30.0748C81.5127 30.0748 82.4593 30.2348 83.3127 30.5548C84.1927 30.8481 84.9527 31.2615 85.5927 31.7948C86.2593 32.3281 86.8193 32.9415 87.2727 33.6348C87.726 34.3281 88.046 35.0748 88.2327 35.8748L87.0327 35.6748V30.5148H92.6727V51.6748H86.9527V46.5948L88.2327 46.4748C88.0193 47.2215 87.6727 47.9281 87.1927 48.5948C86.7127 49.2615 86.1127 49.8615 85.3927 50.3948C84.6993 50.9015 83.9127 51.3148 83.0327 51.6348C82.1527 51.9281 81.2193 52.0748 80.2327 52.0748ZM81.7927 47.1548C82.8593 47.1548 83.7927 46.9015 84.5927 46.3948C85.3927 45.8881 86.006 45.1815 86.4327 44.2748C86.886 43.3415 87.1127 42.2615 87.1127 41.0348C87.1127 39.8348 86.886 38.7815 86.4327 37.8748C86.006 36.9681 85.3927 36.2615 84.5927 35.7548C83.7927 35.2215 82.8593 34.9548 81.7927 34.9548C80.7527 34.9548 79.8327 35.2215 79.0327 35.7548C78.2593 36.2615 77.646 36.9681 77.1927 37.8748C76.7393 38.7815 76.5127 39.8348 76.5127 41.0348C76.5127 42.2615 76.7393 43.3415 77.1927 44.2748C77.646 45.1815 78.2593 45.8881 79.0327 46.3948C79.8327 46.9015 80.7527 47.1548 81.7927 47.1548Z" fill="white"/>
<path d="M127.233 52.0748C125.473 52.0748 123.886 51.5948 122.473 50.6348C121.059 49.6748 119.939 48.3681 119.113 46.7148C118.286 45.0615 117.873 43.1681 117.873 41.0348C117.873 38.9015 118.286 37.0215 119.113 35.3948C119.966 33.7415 121.113 32.4481 122.553 31.5148C123.993 30.5548 125.633 30.0748 127.473 30.0748C128.513 30.0748 129.459 30.2348 130.313 30.5548C131.193 30.8481 131.953 31.2615 132.593 31.7948C133.259 32.3281 133.819 32.9415 134.273 33.6348C134.726 34.3281 135.046 35.0748 135.233 35.8748L134.033 35.6748V30.5148H139.673V51.6748H133.953V46.5948L135.233 46.4748C135.019 47.2215 134.673 47.9281 134.193 48.5948C133.713 49.2615 133.113 49.8615 132.393 50.3948C131.699 50.9015 130.913 51.3148 130.033 51.6348C129.153 51.9281 128.219 52.0748 127.233 52.0748ZM128.793 47.1548C129.859 47.1548 130.793 46.9015 131.593 46.3948C132.393 45.8881 133.006 45.1815 133.433 44.2748C133.886 43.3415 134.113 42.2615 134.113 41.0348C134.113 39.8348 133.886 38.7815 133.433 37.8748C133.006 36.9681 132.393 36.2615 131.593 35.7548C130.793 35.2215 129.859 34.9548 128.793 34.9548C127.753 34.9548 126.833 35.2215 126.033 35.7548C125.259 36.2615 124.646 36.9681 124.193 37.8748C123.739 38.7815 123.513 39.8348 123.513 41.0348C123.513 42.2615 123.739 43.3415 124.193 44.2748C124.646 45.1815 125.259 45.8881 126.033 46.3948C126.833 46.9015 127.753 47.1548 128.793 47.1548Z" fill="white"/>
<path d="M96.2939 62.6451L94.953 56.9396C96.2964 57.2375 97.4158 57.289 98.3111 57.0942C99.2065 56.8993 99.923 56.4026 100.461 55.6041C101.023 54.8437 101.459 53.7605 101.771 52.3546L106.976 28.8767L113.63 30.3519L108.072 55.4232C107.615 57.4852 106.844 59.1169 105.758 60.3183C104.703 61.5267 103.378 62.3309 101.781 62.7309C100.185 63.1308 98.3558 63.1022 96.2939 62.6451ZM111.576 24.5375C110.295 24.2535 109.365 23.7195 108.785 22.9353C108.205 22.1512 108.043 21.1812 108.299 20.0253C108.535 18.963 109.084 18.1836 109.948 17.6868C110.85 17.1657 111.926 17.0437 113.176 17.3207C114.457 17.6047 115.384 18.1544 115.957 18.9697C116.537 19.7539 116.702 20.7083 116.453 21.833C116.211 22.9264 115.642 23.7181 114.747 24.2079C113.883 24.7047 112.826 24.8145 111.576 24.5375Z" fill="white"/>
<circle cx="111.792" cy="21.4671" r="5" transform="rotate(10 111.792 21.4671)" fill="url(#paint0_linear_532_7137)"/>
<defs>
<linearGradient id="paint0_linear_532_7137" x1="111.792" y1="16.4671" x2="111.792" y2="26.4671" gradientUnits="userSpaceOnUse">
<stop stop-color="#90E0EF"/>
<stop offset="1" stop-color="#00B4D8"/>
</linearGradient>
</defs>
</svg>
