<svg width="208" height="208" viewBox="0 0 208 208" fill="none" xmlns="http://www.w3.org/2000/svg">
<path d="M104 16L112.823 34.1551L125.885 18.7647L129.916 38.5437L146.394 26.885L145.38 47.0452L164.24 39.8508L158.244 59.1254L178.301 56.8472L167.7 74.0251L187.693 76.8065L173.153 90.8084L191.826 98.4744L174.261 108.42L190.441 120.49L170.954 125.755L183.625 141.469L163.441 141.722L171.805 160.093L152.192 155.319L155.725 175.193L137.915 165.692L136.395 185.82L121.508 172.188L115.029 191.306L104 174.4L92.9707 191.306L86.4922 172.188L71.605 185.82L70.0845 165.692L52.2749 175.193L55.8079 155.319L36.1948 160.093L44.5593 141.722L24.3752 141.469L37.0456 125.755L17.5587 120.49L33.7389 108.42L16.1736 98.4744L34.847 90.8084L20.307 76.8065L40.3002 74.0251L29.6991 56.8472L49.7559 59.1254L43.7599 39.8508L62.6199 47.0452L61.6057 26.885L78.084 38.5437L82.1153 18.7647L95.1765 34.1551L104 16Z" fill="#F2F2F5"/>
<path d="M113.5 104C120.13 104 125.5 98.63 125.5 92C125.5 85.37 120.13 80 113.5 80C106.87 80 101.5 85.37 101.5 92C101.5 98.63 106.87 104 113.5 104ZM113.5 86C116.8 86 119.5 88.7 119.5 92C119.5 95.3 116.8 98 113.5 98C110.2 98 107.5 95.3 107.5 92C107.5 88.7 110.2 86 113.5 86ZM113.5 110C105.49 110 89.5 114.02 89.5 122V128H137.5V122C137.5 114.02 121.51 110 113.5 110ZM95.5 122C96.16 119.84 105.43 116 113.5 116C121.6 116 130.9 119.87 131.5 122H95.5ZM86.5 113V104H95.5V98H86.5V89H80.5V98H71.5V104H80.5V113H86.5Z" fill="url(#paint0_linear_532_7145)"/>
<defs>
<linearGradient id="paint0_linear_532_7145" x1="104.5" y1="80" x2="104.5" y2="128" gradientUnits="userSpaceOnUse">
<stop stop-color="#025492"/>
<stop offset="1" stop-color="#0077B6"/>
</linearGradient>
</defs>
</svg>
