<svg width="208" height="208" viewBox="0 0 208 208" fill="none" xmlns="http://www.w3.org/2000/svg">
<path d="M104 16L112.823 34.1551L125.885 18.7647L129.916 38.5437L146.394 26.885L145.38 47.0452L164.24 39.8508L158.244 59.1254L178.301 56.8472L167.7 74.0251L187.693 76.8065L173.153 90.8084L191.826 98.4744L174.261 108.42L190.441 120.49L170.954 125.755L183.625 141.469L163.441 141.722L171.805 160.093L152.192 155.319L155.725 175.193L137.915 165.692L136.395 185.82L121.508 172.188L115.029 191.306L104 174.4L92.9707 191.306L86.4922 172.188L71.605 185.82L70.0845 165.692L52.2749 175.193L55.8079 155.319L36.1948 160.093L44.5593 141.722L24.3752 141.469L37.0456 125.755L17.5587 120.49L33.7389 108.42L16.1736 98.4744L34.847 90.8084L20.307 76.8065L40.3002 74.0251L29.6991 56.8472L49.7559 59.1254L43.7599 39.8508L62.6199 47.0452L61.6057 26.885L78.084 38.5437L82.1153 18.7647L95.1765 34.1551L104 16Z" fill="#F2F2F5"/>
<g clip-path="url(#clip0_532_7152)">
<path d="M131 92H112.07L114.92 78.29L115.01 77.33C115.01 76.1 114.5 74.96 113.69 74.15L110.51 71L90.77 90.77C89.66 91.85 89 93.35 89 95V125C89 128.3 91.7 131 95 131H122C124.49 131 126.62 129.5 127.52 127.34L136.58 106.19C136.85 105.5 137 104.78 137 104V98C137 94.7 134.3 92 131 92ZM131 104L122 125H95V95L108.02 81.98L104.69 98H131V104ZM71 95H83V131H71V95Z" fill="url(#paint0_linear_532_7152)"/>
</g>
<defs>
<linearGradient id="paint0_linear_532_7152" x1="104" y1="71" x2="104" y2="131" gradientUnits="userSpaceOnUse">
<stop stop-color="#025492"/>
<stop offset="1" stop-color="#0077B6"/>
</linearGradient>
<clipPath id="clip0_532_7152">
<rect width="72" height="72" fill="white" transform="translate(68 68)"/>
</clipPath>
</defs>
</svg>
