<svg width="208" height="208" viewBox="0 0 208 208" fill="none" xmlns="http://www.w3.org/2000/svg">
<path d="M104 16L112.823 34.1551L125.885 18.7647L129.916 38.5437L146.394 26.885L145.38 47.0452L164.24 39.8508L158.244 59.1254L178.301 56.8472L167.7 74.0251L187.693 76.8065L173.153 90.8084L191.826 98.4744L174.261 108.42L190.441 120.49L170.954 125.755L183.625 141.469L163.441 141.722L171.805 160.093L152.192 155.319L155.725 175.193L137.915 165.692L136.395 185.82L121.508 172.188L115.029 191.306L104 174.4L92.9707 191.306L86.4922 172.188L71.605 185.82L70.0845 165.692L52.2749 175.193L55.8079 155.319L36.1948 160.093L44.5593 141.722L24.3752 141.469L37.0456 125.755L17.5587 120.49L33.7389 108.42L16.1736 98.4744L34.847 90.8084L20.307 76.8065L40.3002 74.0251L29.6991 56.8472L49.7559 59.1254L43.7599 39.8508L62.6199 47.0452L61.6057 26.885L78.084 38.5437L82.1153 18.7647L95.1765 34.1551L104 16Z" fill="#F2F2F5"/>
<path d="M80 86H74V128C74 131.3 76.7 134 80 134H122V128H80V86ZM128 74H92C88.7 74 86 76.7 86 80V116C86 119.3 88.7 122 92 122H128C131.3 122 134 119.3 134 116V80C134 76.7 131.3 74 128 74ZM128 116H92V80H128V116ZM107 110H113V101H122V95H113V86H107V95H98V101H107V110Z" fill="url(#paint0_linear_532_7161)"/>
<defs>
<linearGradient id="paint0_linear_532_7161" x1="104" y1="74" x2="104" y2="134" gradientUnits="userSpaceOnUse">
<stop stop-color="#025492"/>
<stop offset="1" stop-color="#0077B6"/>
</linearGradient>
</defs>
</svg>
