<svg width="209" height="208" viewBox="0 0 209 208" fill="none" xmlns="http://www.w3.org/2000/svg">
<path d="M104.5 16L113.323 34.1551L126.385 18.7647L130.416 38.5437L146.894 26.885L145.88 47.0452L164.74 39.8508L158.744 59.1254L178.801 56.8472L168.2 74.0251L188.193 76.8065L173.653 90.8084L192.326 98.4744L174.761 108.42L190.941 120.49L171.454 125.755L184.125 141.469L163.941 141.722L172.305 160.093L152.692 155.319L156.225 175.193L138.415 165.692L136.895 185.82L122.008 172.188L115.529 191.306L104.5 174.4L93.4707 191.306L86.9922 172.188L72.105 185.82L70.5845 165.692L52.7749 175.193L56.3079 155.319L36.6948 160.093L45.0593 141.722L24.8752 141.469L37.5456 125.755L18.0587 120.49L34.2389 108.42L16.6736 98.4744L35.347 90.8084L20.807 76.8065L40.8002 74.0251L30.1991 56.8472L50.2559 59.1254L44.2599 39.8508L63.1199 47.0452L62.1057 26.885L78.584 38.5437L82.6153 18.7647L95.6765 34.1551L104.5 16Z" fill="#F2F2F5"/>
<g clip-path="url(#clip0_532_7172)">
<path d="M120 74H90C86.7 74 84 76.7 84 80V86C84 89.3 86.7 92 90 92H120C123.3 92 126 89.3 126 86V80C126 76.7 123.3 74 120 74ZM120 86H90V80H120V86ZM129 134H81C77.7 134 75 131.3 75 128V125H135V128C135 131.3 132.3 134 129 134ZM124.59 98.57C123.63 96.41 121.47 95 119.1 95H90.9C88.53 95 86.37 96.41 85.41 98.57L75 122H135L124.59 98.57ZM97.5 116H94.5C93.66 116 93 115.34 93 114.5C93 113.66 93.66 113 94.5 113H97.5C98.34 113 99 113.66 99 114.5C99 115.34 98.34 116 97.5 116ZM97.5 110H94.5C93.66 110 93 109.34 93 108.5C93 107.66 93.66 107 94.5 107H97.5C98.34 107 99 107.66 99 108.5C99 109.34 98.34 110 97.5 110ZM97.5 104H94.5C93.66 104 93 103.34 93 102.5C93 101.66 93.66 101 94.5 101H97.5C98.34 101 99 101.66 99 102.5C99 103.34 98.34 104 97.5 104ZM106.5 116H103.5C102.66 116 102 115.34 102 114.5C102 113.66 102.66 113 103.5 113H106.5C107.34 113 108 113.66 108 114.5C108 115.34 107.34 116 106.5 116ZM106.5 110H103.5C102.66 110 102 109.34 102 108.5C102 107.66 102.66 107 103.5 107H106.5C107.34 107 108 107.66 108 108.5C108 109.34 107.34 110 106.5 110ZM106.5 104H103.5C102.66 104 102 103.34 102 102.5C102 101.66 102.66 101 103.5 101H106.5C107.34 101 108 101.66 108 102.5C108 103.34 107.34 104 106.5 104ZM115.5 116H112.5C111.66 116 111 115.34 111 114.5C111 113.66 111.66 113 112.5 113H115.5C116.34 113 117 113.66 117 114.5C117 115.34 116.34 116 115.5 116ZM115.5 110H112.5C111.66 110 111 109.34 111 108.5C111 107.66 111.66 107 112.5 107H115.5C116.34 107 117 107.66 117 108.5C117 109.34 116.34 110 115.5 110ZM115.5 104H112.5C111.66 104 111 103.34 111 102.5C111 101.66 111.66 101 112.5 101H115.5C116.34 101 117 101.66 117 102.5C117 103.34 116.34 104 115.5 104Z" fill="url(#paint0_linear_532_7172)"/>
</g>
<defs>
<linearGradient id="paint0_linear_532_7172" x1="105" y1="74" x2="105" y2="134" gradientUnits="userSpaceOnUse">
<stop stop-color="#00B4D8"/>
<stop offset="1" stop-color="#0077B6"/>
</linearGradient>
<clipPath id="clip0_532_7172">
<rect width="72" height="72" fill="white" transform="translate(69 68)"/>
</clipPath>
</defs>
</svg>
