<svg width="191" height="48" viewBox="0 0 191 48" fill="none" xmlns="http://www.w3.org/2000/svg">
<path d="M54.2702 28.2655L54.9752 24.1855C55.0166 23.9464 55.0052 23.7011 54.9419 23.4668C54.8786 23.2325 54.7648 23.0149 54.6086 22.8292C54.4524 22.6434 54.2575 22.4941 54.0375 22.3915C53.8176 22.289 53.5779 22.2357 53.3352 22.2355H48.1542C48.0333 22.2355 47.9138 22.2092 47.8041 22.1584C47.6944 22.1076 47.597 22.0336 47.5188 21.9414C47.4406 21.8492 47.3834 21.741 47.3511 21.6245C47.3189 21.5079 47.3125 21.3858 47.3322 21.2665L47.9952 17.2215C48.1028 16.5647 48.0721 15.8927 47.9052 15.2485C47.8338 14.9823 47.6962 14.7385 47.5053 14.5397C47.3144 14.3409 47.0763 14.1936 46.8132 14.1115L46.6682 14.0645C46.3404 13.9592 45.9846 13.9835 45.6742 14.1325C45.3342 14.2965 45.0862 14.5955 44.9942 14.9505L44.5182 16.7845C44.3667 17.3681 44.1465 17.9317 43.8622 18.4635C43.4472 19.2405 42.8052 19.8635 42.1372 20.4385L40.6982 21.6785C40.4986 21.851 40.3427 22.0684 40.2432 22.3128C40.1438 22.5571 40.1037 22.8216 40.1262 23.0845L40.9382 32.4775C40.974 32.8929 41.1642 33.2798 41.4714 33.5618C41.7785 33.8437 42.1803 34.0003 42.5972 34.0005H47.2452C50.7272 34.0005 53.6982 31.5745 54.2702 28.2655Z" fill="#1FD000"/>
<path fill-rule="evenodd" clip-rule="evenodd" d="M36.9681 21.4851C37.1613 21.4766 37.3504 21.5432 37.4957 21.6708C37.6411 21.7985 37.7315 21.9774 37.7481 22.1701L38.7181 33.4061C38.7345 33.5734 38.7167 33.7423 38.6656 33.9025C38.6146 34.0627 38.5314 34.2108 38.4212 34.3378C38.311 34.4648 38.1761 34.5679 38.0247 34.641C37.8733 34.7141 37.7085 34.7555 37.5406 34.7628C37.3726 34.7701 37.2049 34.7431 37.0478 34.6834C36.8906 34.6237 36.7472 34.5326 36.6265 34.4156C36.5057 34.2986 36.41 34.1583 36.3453 34.0031C36.2806 33.8479 36.2482 33.6812 36.2501 33.5131V22.2341C36.2502 22.0408 36.3249 21.855 36.4587 21.7154C36.5924 21.5758 36.7749 21.4933 36.9681 21.4851Z" fill="#1FD000"/>
<path d="M68.4 32L73.22 17.6H75.7L80.52 32H78.67L74.16 18.64H74.72L70.25 32H68.4ZM70.72 28.63V26.96H78.2V28.63H70.72ZM87.0554 32.3C86.0421 32.3 85.1888 32.05 84.4954 31.55C83.8021 31.0433 83.2754 30.36 82.9154 29.5C82.5621 28.6333 82.3854 27.6633 82.3854 26.59C82.3854 25.5033 82.5621 24.53 82.9154 23.67C83.2754 22.81 83.8021 22.1333 84.4954 21.64C85.1954 21.1467 86.0521 20.9 87.0654 20.9C88.0654 20.9 88.9254 21.15 89.6454 21.65C90.3721 22.1433 90.9288 22.82 91.3154 23.68C91.7021 24.54 91.8954 25.51 91.8954 26.59C91.8954 27.67 91.7021 28.64 91.3154 29.5C90.9288 30.36 90.3721 31.0433 89.6454 31.55C88.9254 32.05 88.0621 32.3 87.0554 32.3ZM82.0854 36.8V21.2H83.6754V29.15H83.8754V36.8H82.0854ZM86.8354 30.67C87.5488 30.67 88.1388 30.49 88.6054 30.13C89.0721 29.77 89.4221 29.2833 89.6554 28.67C89.8888 28.05 90.0054 27.3567 90.0054 26.59C90.0054 25.83 89.8888 25.1433 89.6554 24.53C89.4288 23.9167 89.0754 23.43 88.5954 23.07C88.1221 22.71 87.5188 22.53 86.7854 22.53C86.0854 22.53 85.5054 22.7033 85.0454 23.05C84.5854 23.39 84.2421 23.8667 84.0154 24.48C83.7888 25.0867 83.6754 25.79 83.6754 26.59C83.6754 27.3767 83.7854 28.08 84.0054 28.7C84.2321 29.3133 84.5788 29.7967 85.0454 30.15C85.5121 30.4967 86.1088 30.67 86.8354 30.67ZM98.8329 32.3C97.8195 32.3 96.9662 32.05 96.2729 31.55C95.5795 31.0433 95.0529 30.36 94.6929 29.5C94.3395 28.6333 94.1629 27.6633 94.1629 26.59C94.1629 25.5033 94.3395 24.53 94.6929 23.67C95.0529 22.81 95.5795 22.1333 96.2729 21.64C96.9729 21.1467 97.8295 20.9 98.8429 20.9C99.8429 20.9 100.703 21.15 101.423 21.65C102.15 22.1433 102.706 22.82 103.093 23.68C103.48 24.54 103.673 25.51 103.673 26.59C103.673 27.67 103.48 28.64 103.093 29.5C102.706 30.36 102.15 31.0433 101.423 31.55C100.703 32.05 99.8395 32.3 98.8329 32.3ZM93.8629 36.8V21.2H95.4529V29.15H95.6529V36.8H93.8629ZM98.6129 30.67C99.3262 30.67 99.9162 30.49 100.383 30.13C100.85 29.77 101.2 29.2833 101.433 28.67C101.666 28.05 101.783 27.3567 101.783 26.59C101.783 25.83 101.666 25.1433 101.433 24.53C101.206 23.9167 100.853 23.43 100.373 23.07C99.8995 22.71 99.2962 22.53 98.5629 22.53C97.8629 22.53 97.2829 22.7033 96.8229 23.05C96.3629 23.39 96.0195 23.8667 95.7929 24.48C95.5662 25.0867 95.4529 25.79 95.4529 26.59C95.4529 27.3767 95.5629 28.08 95.7829 28.7C96.0095 29.3133 96.3562 29.7967 96.8229 30.15C97.2895 30.4967 97.8862 30.67 98.6129 30.67ZM105.65 32V21.2H107.24V23.81L106.98 23.47C107.107 23.1367 107.27 22.83 107.47 22.55C107.677 22.27 107.907 22.04 108.16 21.86C108.44 21.6333 108.757 21.46 109.11 21.34C109.464 21.22 109.824 21.15 110.19 21.13C110.557 21.1033 110.9 21.1267 111.22 21.2V22.87C110.847 22.77 110.437 22.7433 109.99 22.79C109.544 22.8367 109.13 23 108.75 23.28C108.404 23.5267 108.134 23.8267 107.94 24.18C107.754 24.5333 107.624 24.9167 107.55 25.33C107.477 25.7367 107.44 26.1533 107.44 26.58V32H105.65ZM117.301 32.3C116.228 32.3 115.301 32.0567 114.521 31.57C113.748 31.0833 113.151 30.41 112.731 29.55C112.311 28.69 112.101 27.7033 112.101 26.59C112.101 25.4567 112.315 24.4633 112.741 23.61C113.168 22.7567 113.771 22.0933 114.551 21.62C115.331 21.14 116.248 20.9 117.301 20.9C118.381 20.9 119.311 21.1433 120.091 21.63C120.871 22.11 121.468 22.78 121.881 23.64C122.301 24.4933 122.511 25.4767 122.511 26.59C122.511 27.7167 122.301 28.71 121.881 29.57C121.461 30.4233 120.861 31.0933 120.081 31.58C119.301 32.06 118.375 32.3 117.301 32.3ZM117.301 30.61C118.421 30.61 119.255 30.2367 119.801 29.49C120.348 28.7433 120.621 27.7767 120.621 26.59C120.621 25.37 120.345 24.4 119.791 23.68C119.238 22.9533 118.408 22.59 117.301 22.59C116.548 22.59 115.928 22.76 115.441 23.1C114.955 23.44 114.591 23.91 114.351 24.51C114.111 25.11 113.991 25.8033 113.991 26.59C113.991 27.8033 114.271 28.7767 114.831 29.51C115.391 30.2433 116.215 30.61 117.301 30.61ZM127.028 32L123.108 21.2H124.908L127.938 29.73L130.958 21.2H132.768L128.848 32H127.028ZM138.651 32.3C137.591 32.3 136.664 32.0667 135.871 31.6C135.084 31.1267 134.471 30.47 134.031 29.63C133.591 28.7833 133.371 27.7967 133.371 26.67C133.371 25.49 133.588 24.47 134.021 23.61C134.454 22.7433 135.058 22.0767 135.831 21.61C136.611 21.1367 137.524 20.9 138.571 20.9C139.658 20.9 140.581 21.15 141.341 21.65C142.108 22.15 142.681 22.8633 143.061 23.79C143.448 24.7167 143.614 25.82 143.561 27.1H141.761V26.46C141.741 25.1333 141.471 24.1433 140.951 23.49C140.431 22.83 139.658 22.5 138.631 22.5C137.531 22.5 136.694 22.8533 136.121 23.56C135.548 24.2667 135.261 25.28 135.261 26.6C135.261 27.8733 135.548 28.86 136.121 29.56C136.694 30.26 137.511 30.61 138.571 30.61C139.284 30.61 139.904 30.4467 140.431 30.12C140.958 29.7933 141.371 29.3233 141.671 28.71L143.381 29.3C142.961 30.2533 142.328 30.9933 141.481 31.52C140.641 32.04 139.698 32.3 138.651 32.3ZM134.661 27.1V25.67H142.641V27.1H134.661ZM149.813 32.3C148.806 32.3 147.943 32.05 147.223 31.55C146.503 31.0433 145.946 30.36 145.553 29.5C145.166 28.64 144.973 27.67 144.973 26.59C144.973 25.51 145.166 24.54 145.553 23.68C145.946 22.82 146.503 22.1433 147.223 21.65C147.943 21.15 148.803 20.9 149.803 20.9C150.823 20.9 151.679 21.1467 152.373 21.64C153.066 22.1333 153.589 22.81 153.943 23.67C154.303 24.53 154.483 25.5033 154.483 26.59C154.483 27.6633 154.303 28.6333 153.943 29.5C153.589 30.36 153.066 31.0433 152.373 31.55C151.679 32.05 150.826 32.3 149.813 32.3ZM150.033 30.67C150.759 30.67 151.356 30.4967 151.823 30.15C152.289 29.7967 152.633 29.3133 152.853 28.7C153.079 28.08 153.193 27.3767 153.193 26.59C153.193 25.79 153.079 25.0867 152.853 24.48C152.633 23.8667 152.293 23.39 151.833 23.05C151.373 22.7033 150.789 22.53 150.083 22.53C149.349 22.53 148.743 22.71 148.263 23.07C147.789 23.43 147.436 23.9167 147.203 24.53C146.976 25.1433 146.863 25.83 146.863 26.59C146.863 27.3567 146.979 28.05 147.213 28.67C147.446 29.2833 147.796 29.77 148.263 30.13C148.736 30.49 149.326 30.67 150.033 30.67ZM153.193 32V24.05H152.993V17.6H154.783V32H153.193Z" fill="#1FD000"/>
<rect x="1" y="1" width="189" height="46" rx="9" stroke="#1FD000" stroke-width="2"/>
</svg>
