<svg width="171" height="48" viewBox="0 0 171 48" fill="none" xmlns="http://www.w3.org/2000/svg">
<path d="M54.2703 20.485L54.9753 24.565C55.0167 24.8041 55.0053 25.0494 54.942 25.2837C54.8786 25.518 54.7649 25.7356 54.6087 25.9213C54.4525 26.1071 54.2576 26.2564 54.0376 26.359C53.8177 26.4615 53.578 26.5148 53.3353 26.515H48.1543C48.0334 26.515 47.9139 26.5413 47.8042 26.5921C47.6944 26.6429 47.5971 26.7169 47.5189 26.8091C47.4407 26.9013 47.3835 27.0095 47.3512 27.126C47.319 27.2426 47.3125 27.3647 47.3323 27.484L47.9953 31.529C48.1031 32.1861 48.0724 32.8585 47.9053 33.503C47.7663 34.036 47.3553 34.465 46.8133 34.639L46.6683 34.686C46.3403 34.791 45.9833 34.766 45.6743 34.618C45.5083 34.5393 45.3615 34.4253 45.244 34.284C45.1266 34.1427 45.0414 33.9776 44.9943 33.8L44.5183 31.966C44.3668 31.3824 44.1466 30.8188 43.8623 30.287C43.4473 29.51 42.8053 28.887 42.1373 28.312L40.6983 27.072C40.4985 26.8996 40.3425 26.6823 40.2431 26.4378C40.1436 26.1934 40.1036 25.9289 40.1263 25.666L40.9383 16.273C40.9741 15.8576 41.1643 15.4707 41.4715 15.1887C41.7786 14.9068 42.1803 14.7502 42.5973 14.75H47.2453C50.7273 14.75 53.6983 17.176 54.2703 20.485Z" fill="#FF0000"/>
<path fill-rule="evenodd" clip-rule="evenodd" d="M36.9681 27.2633C37.1613 27.2717 37.3504 27.2052 37.4957 27.0775C37.6411 26.9499 37.7315 26.771 37.7481 26.5783L38.7181 15.3423C38.7345 15.1749 38.7167 15.006 38.6656 14.8458C38.6146 14.6857 38.5314 14.5375 38.4212 14.4106C38.311 14.2836 38.1761 14.1804 38.0247 14.1073C37.8733 14.0343 37.7085 13.9928 37.5406 13.9855C37.3726 13.9783 37.2049 14.0053 37.0478 14.065C36.8906 14.1247 36.7472 14.2158 36.6265 14.3328C36.5057 14.4497 36.41 14.5901 36.3453 14.7452C36.2806 14.9004 36.2482 15.0672 36.2501 15.2353V26.5143C36.2499 26.7078 36.3245 26.8938 36.4583 27.0336C36.5921 27.1734 36.7748 27.255 36.9681 27.2633Z" fill="#FF0000"/>
<path d="M69.4 32V17.6H73.84C73.9867 17.6 74.2433 17.6033 74.61 17.61C74.9767 17.6167 75.3267 17.6433 75.66 17.69C76.7733 17.8367 77.7033 18.2433 78.45 18.91C79.2033 19.57 79.77 20.41 80.15 21.43C80.53 22.45 80.72 23.5733 80.72 24.8C80.72 26.0267 80.53 27.15 80.15 28.17C79.77 29.19 79.2033 30.0333 78.45 30.7C77.7033 31.36 76.7733 31.7633 75.66 31.91C75.3267 31.95 74.9733 31.9767 74.6 31.99C74.2333 31.9967 73.98 32 73.84 32H69.4ZM71.23 30.3H73.84C74.0933 30.3 74.3767 30.2933 74.69 30.28C75.0033 30.26 75.2767 30.23 75.51 30.19C76.2967 30.0433 76.9333 29.7133 77.42 29.2C77.9067 28.6867 78.2633 28.0467 78.49 27.28C78.7167 26.5133 78.83 25.6867 78.83 24.8C78.83 23.8933 78.7133 23.0567 78.48 22.29C78.2533 21.5233 77.8967 20.8867 77.41 20.38C76.9233 19.8733 76.29 19.55 75.51 19.41C75.2767 19.3633 75 19.3333 74.68 19.32C74.36 19.3067 74.08 19.3 73.84 19.3H71.23V30.3ZM87.4785 32.3C86.4185 32.3 85.4919 32.0667 84.6985 31.6C83.9119 31.1267 83.2985 30.47 82.8585 29.63C82.4185 28.7833 82.1985 27.7967 82.1985 26.67C82.1985 25.49 82.4152 24.47 82.8485 23.61C83.2819 22.7433 83.8852 22.0767 84.6585 21.61C85.4385 21.1367 86.3519 20.9 87.3985 20.9C88.4852 20.9 89.4085 21.15 90.1685 21.65C90.9352 22.15 91.5085 22.8633 91.8885 23.79C92.2752 24.7167 92.4419 25.82 92.3885 27.1H90.5885V26.46C90.5685 25.1333 90.2985 24.1433 89.7785 23.49C89.2585 22.83 88.4852 22.5 87.4585 22.5C86.3585 22.5 85.5219 22.8533 84.9485 23.56C84.3752 24.2667 84.0885 25.28 84.0885 26.6C84.0885 27.8733 84.3752 28.86 84.9485 29.56C85.5219 30.26 86.3385 30.61 87.3985 30.61C88.1119 30.61 88.7319 30.4467 89.2585 30.12C89.7852 29.7933 90.1985 29.3233 90.4985 28.71L92.2085 29.3C91.7885 30.2533 91.1552 30.9933 90.3085 31.52C89.4685 32.04 88.5252 32.3 87.4785 32.3ZM83.4885 27.1V25.67H91.4685V27.1H83.4885ZM98.9502 32.3C97.8569 32.3 96.9269 32.0567 96.1602 31.57C95.4002 31.0767 94.8202 30.4 94.4202 29.54C94.0202 28.68 93.8135 27.7 93.8002 26.6C93.8135 25.4733 94.0235 24.4833 94.4302 23.63C94.8435 22.77 95.4335 22.1 96.2002 21.62C96.9669 21.14 97.8902 20.9 98.9702 20.9C100.11 20.9 101.09 21.18 101.91 21.74C102.737 22.3 103.29 23.0667 103.57 24.04L101.81 24.57C101.584 23.9433 101.214 23.4567 100.7 23.11C100.194 22.7633 99.6102 22.59 98.9502 22.59C98.2102 22.59 97.6002 22.7633 97.1202 23.11C96.6402 23.45 96.2835 23.9233 96.0502 24.53C95.8169 25.13 95.6969 25.82 95.6902 26.6C95.7035 27.8 95.9802 28.77 96.5202 29.51C97.0669 30.2433 97.8769 30.61 98.9502 30.61C99.6569 30.61 100.244 30.45 100.71 30.13C101.177 29.8033 101.53 29.3333 101.77 28.72L103.57 29.19C103.197 30.1967 102.614 30.9667 101.82 31.5C101.027 32.0333 100.07 32.3 98.9502 32.3ZM105.303 32V17.3H107.083V32H105.303ZM110.069 19.29V17.45H111.849V19.29H110.069ZM110.069 32V21.2H111.849V32H110.069ZM122.325 32V26.59C122.325 26.0767 122.278 25.5833 122.185 25.11C122.098 24.6367 121.942 24.2133 121.715 23.84C121.495 23.46 121.195 23.16 120.815 22.94C120.442 22.72 119.968 22.61 119.395 22.61C118.948 22.61 118.542 22.6867 118.175 22.84C117.815 22.9867 117.505 23.2133 117.245 23.52C116.985 23.8267 116.782 24.2133 116.635 24.68C116.495 25.14 116.425 25.6833 116.425 26.31L115.255 25.95C115.255 24.9033 115.442 24.0067 115.815 23.26C116.195 22.5067 116.725 21.93 117.405 21.53C118.092 21.1233 118.898 20.92 119.825 20.92C120.525 20.92 121.122 21.03 121.615 21.25C122.108 21.47 122.518 21.7633 122.845 22.13C123.172 22.49 123.428 22.8967 123.615 23.35C123.802 23.7967 123.932 24.2533 124.005 24.72C124.085 25.18 124.125 25.6167 124.125 26.03V32H122.325ZM114.625 32V21.2H116.225V24.09H116.425V32H114.625ZM131.092 32.3C130.032 32.3 129.106 32.0667 128.312 31.6C127.526 31.1267 126.912 30.47 126.472 29.63C126.032 28.7833 125.812 27.7967 125.812 26.67C125.812 25.49 126.029 24.47 126.462 23.61C126.896 22.7433 127.499 22.0767 128.272 21.61C129.052 21.1367 129.966 20.9 131.012 20.9C132.099 20.9 133.022 21.15 133.782 21.65C134.549 22.15 135.122 22.8633 135.502 23.79C135.889 24.7167 136.056 25.82 136.002 27.1H134.202V26.46C134.182 25.1333 133.912 24.1433 133.392 23.49C132.872 22.83 132.099 22.5 131.072 22.5C129.972 22.5 129.136 22.8533 128.562 23.56C127.989 24.2667 127.702 25.28 127.702 26.6C127.702 27.8733 127.989 28.86 128.562 29.56C129.136 30.26 129.952 30.61 131.012 30.61C131.726 30.61 132.346 30.4467 132.872 30.12C133.399 29.7933 133.812 29.3233 134.112 28.71L135.822 29.3C135.402 30.2533 134.769 30.9933 133.922 31.52C133.082 32.04 132.139 32.3 131.092 32.3ZM127.102 27.1V25.67H135.082V27.1H127.102Z" fill="#FF0000"/>
<rect x="1" y="1" width="169" height="46" rx="9" stroke="#FF0000" stroke-width="2"/>
</svg>
