<svg width="20" height="20" viewBox="0 0 20 20" fill="none" xmlns="http://www.w3.org/2000/svg">
<path d="M11.9666 3.40024C11.9666 3.40024 12.0624 5.0419 13.5107 6.4894C14.9591 7.93774 16.5999 8.0344 16.5999 8.0344L17.3724 7.2619C17.9869 6.64737 18.3322 5.81389 18.3322 4.94482C18.3322 4.07574 17.9869 3.24226 17.3724 2.62774C16.7579 2.01321 15.9244 1.66797 15.0553 1.66797C14.1862 1.66797 13.3528 2.01321 12.7382 2.62774L11.9657 3.40024L9.99906 5.3669M16.5999 8.03357L12.2166 12.4186L9.63239 15.0011L9.49906 15.1352C9.01739 15.6161 8.77656 15.8569 8.51156 16.0636C8.19884 16.3077 7.86045 16.5169 7.50239 16.6877C7.19906 16.8319 6.87656 16.9394 6.23073 17.1544L3.49656 18.0661M3.49656 18.0661L2.82823 18.2894C2.67244 18.3416 2.50517 18.3494 2.34521 18.3118C2.18526 18.2742 2.03897 18.1927 1.92278 18.0765C1.8066 17.9603 1.72512 17.814 1.68751 17.6541C1.6499 17.4941 1.65765 17.3269 1.70989 17.1711L1.93323 16.5027M3.49656 18.0661L1.93323 16.5027M1.93323 16.5027L2.84489 13.7686C3.05989 13.1227 3.16739 12.8002 3.31156 12.4969C3.48239 12.1386 3.69156 11.8002 3.93573 11.4877C4.14239 11.2227 4.38323 10.9819 4.86406 10.5011L7.08239 8.28357" stroke="black" stroke-opacity="0.3" stroke-width="1.25" stroke-linecap="round"/>
</svg>
