<svg width="309" height="410" viewBox="0 0 309 410" fill="none" xmlns="http://www.w3.org/2000/svg">
<path d="M24.3423 34L17.2363 9.52H20.9593L26.1103 28.033L31.2613 9.537L35.0013 9.52L40.1523 28.033L45.3033 9.52H49.0433L41.9203 34H38.3843L33.1313 15.691L27.8783 34H24.3423ZM58.0132 34.51C56.1886 34.51 54.5849 34.1133 53.2022 33.32C51.8309 32.5153 50.7599 31.399 49.9892 29.971C49.2299 28.5317 48.8502 26.8657 48.8502 24.973C48.8502 22.967 49.2242 21.2273 49.9722 19.754C50.7316 18.2807 51.7856 17.1417 53.1342 16.337C54.4829 15.5323 56.0526 15.13 57.8432 15.13C59.7132 15.13 61.3056 15.5663 62.6202 16.439C63.9349 17.3003 64.9152 18.53 65.5612 20.128C66.2186 21.726 66.4792 23.6243 66.3432 25.823H62.7902V24.531C62.7676 22.4003 62.3596 20.825 61.5662 19.805C60.7842 18.785 59.5886 18.275 57.9792 18.275C56.1999 18.275 54.8626 18.836 53.9672 19.958C53.0719 21.08 52.6242 22.7007 52.6242 24.82C52.6242 26.8373 53.0719 28.4013 53.9672 29.512C54.8626 30.6113 56.1546 31.161 57.8432 31.161C58.9539 31.161 59.9116 30.9117 60.7162 30.413C61.5322 29.903 62.1669 29.1777 62.6202 28.237L66.1052 29.342C65.3912 30.9853 64.3089 32.2603 62.8582 33.167C61.4076 34.0623 59.7926 34.51 58.0132 34.51ZM51.4682 25.823V23.052H64.5752V25.823H51.4682ZM70.4973 34V9.01H74.0503V34H70.4973ZM87.0094 34.51C85.1281 34.51 83.5301 34.0907 82.2154 33.252C80.9007 32.4133 79.8921 31.263 79.1894 29.801C78.4981 28.339 78.1467 26.6787 78.1354 24.82C78.1467 22.9273 78.5094 21.2557 79.2234 19.805C79.9374 18.343 80.9574 17.1983 82.2834 16.371C83.6094 15.5437 85.2017 15.13 87.0604 15.13C89.0664 15.13 90.7777 15.6287 92.1944 16.626C93.6224 17.6233 94.5631 18.989 95.0164 20.723L91.4804 21.743C91.1291 20.7117 90.5511 19.9127 89.7464 19.346C88.9531 18.768 88.0407 18.479 87.0094 18.479C85.8421 18.479 84.8844 18.7567 84.1364 19.312C83.3884 19.856 82.8331 20.604 82.4704 21.556C82.1077 22.508 81.9207 23.596 81.9094 24.82C81.9207 26.7127 82.3514 28.2427 83.2014 29.41C84.0627 30.5773 85.3321 31.161 87.0094 31.161C88.1541 31.161 89.0777 30.9003 89.7804 30.379C90.4944 29.8463 91.0384 29.087 91.4124 28.101L95.0164 28.951C94.4157 30.7417 93.4241 32.1187 92.0414 33.082C90.6587 34.034 88.9814 34.51 87.0094 34.51ZM105.955 34.51C104.119 34.51 102.526 34.0963 101.178 33.269C99.8289 32.4417 98.7862 31.3027 98.0496 29.852C97.3242 28.39 96.9616 26.707 96.9616 24.803C96.9616 22.8877 97.3356 21.2047 98.0836 19.754C98.8316 18.292 99.8799 17.1587 101.229 16.354C102.577 15.538 104.153 15.13 105.955 15.13C107.791 15.13 109.383 15.5437 110.732 16.371C112.08 17.1983 113.123 18.3373 113.86 19.788C114.596 21.2387 114.965 22.9103 114.965 24.803C114.965 26.7183 114.591 28.407 113.843 29.869C113.106 31.3197 112.063 32.4587 110.715 33.286C109.366 34.102 107.779 34.51 105.955 34.51ZM105.955 31.161C107.711 31.161 109.02 30.5717 109.882 29.393C110.754 28.203 111.191 26.673 111.191 24.803C111.191 22.8877 110.749 21.3577 109.865 20.213C108.992 19.057 107.689 18.479 105.955 18.479C104.765 18.479 103.784 18.751 103.014 19.295C102.243 19.8277 101.671 20.57 101.297 21.522C100.923 22.4627 100.736 23.5563 100.736 24.803C100.736 26.7297 101.178 28.271 102.062 29.427C102.946 30.583 104.243 31.161 105.955 31.161ZM140.698 34L140.715 22.559C140.715 21.233 140.375 20.2017 139.695 19.465C139.015 18.717 138.12 18.343 137.009 18.343C136.329 18.343 135.706 18.5017 135.139 18.819C134.584 19.125 134.131 19.5897 133.779 20.213C133.439 20.825 133.269 21.5957 133.269 22.525L131.552 21.658C131.53 20.366 131.802 19.2327 132.368 18.258C132.946 17.2833 133.728 16.5297 134.714 15.997C135.7 15.453 136.805 15.181 138.029 15.181C140.013 15.181 141.548 15.776 142.636 16.966C143.724 18.156 144.268 19.737 144.268 21.709L144.251 34H140.698ZM118.683 34V15.64H121.845V20.944H122.253V34H118.683ZM129.699 34L129.716 22.627C129.716 21.2897 129.376 20.2413 128.696 19.482C128.028 18.7227 127.127 18.343 125.993 18.343C124.871 18.343 123.965 18.7283 123.273 19.499C122.593 20.2697 122.253 21.2783 122.253 22.525L120.553 21.437C120.553 20.2357 120.842 19.1647 121.42 18.224C121.998 17.2833 122.78 16.541 123.766 15.997C124.752 15.453 125.869 15.181 127.115 15.181C128.419 15.181 129.529 15.4587 130.447 16.014C131.365 16.558 132.062 17.323 132.538 18.309C133.026 19.295 133.269 20.4397 133.269 21.743L133.252 34H129.699ZM156.593 34.51C154.769 34.51 153.165 34.1133 151.782 33.32C150.411 32.5153 149.34 31.399 148.569 29.971C147.81 28.5317 147.43 26.8657 147.43 24.973C147.43 22.967 147.804 21.2273 148.552 19.754C149.312 18.2807 150.366 17.1417 151.714 16.337C153.063 15.5323 154.633 15.13 156.423 15.13C158.293 15.13 159.886 15.5663 161.2 16.439C162.515 17.3003 163.495 18.53 164.141 20.128C164.799 21.726 165.059 23.6243 164.923 25.823H161.37V24.531C161.348 22.4003 160.94 20.825 160.146 19.805C159.364 18.785 158.169 18.275 156.559 18.275C154.78 18.275 153.443 18.836 152.547 19.958C151.652 21.08 151.204 22.7007 151.204 24.82C151.204 26.8373 151.652 28.4013 152.547 29.512C153.443 30.6113 154.735 31.161 156.423 31.161C157.534 31.161 158.492 30.9117 159.296 30.413C160.112 29.903 160.747 29.1777 161.2 28.237L164.685 29.342C163.971 30.9853 162.889 32.2603 161.438 33.167C159.988 34.0623 158.373 34.51 156.593 34.51ZM150.048 25.823V23.052H163.155V25.823H150.048ZM167.733 38.063L167.954 36.482C168.442 36.516 168.821 36.4253 169.093 36.21C169.365 35.9947 169.547 35.6943 169.637 35.309C169.728 34.9237 169.745 34.4873 169.688 34H167.733V29.903H171.49V34.34C171.49 35.6773 171.167 36.686 170.521 37.366C169.887 38.046 168.957 38.2783 167.733 38.063ZM190.487 34L182.531 9.52H186.22L193.003 30.413L199.871 9.52H203.56L195.604 34H190.487ZM205.8 12.631V9.18H209.353V12.631H205.8ZM205.8 34V15.64H209.353V34H205.8ZM214.798 34V9.01H218.351V34H214.798ZM223.796 34V9.01H227.349V34H223.796ZM237.639 34.51C236.279 34.51 235.14 34.2607 234.222 33.762C233.304 33.252 232.607 32.5833 232.131 31.756C231.667 30.9173 231.434 29.9993 231.434 29.002C231.434 28.0727 231.599 27.2567 231.927 26.554C232.256 25.8513 232.743 25.2563 233.389 24.769C234.035 24.2703 234.829 23.868 235.769 23.562C236.585 23.324 237.509 23.1143 238.54 22.933C239.572 22.7517 240.654 22.5817 241.787 22.423C242.932 22.2643 244.065 22.1057 245.187 21.947L243.895 22.661C243.918 21.2217 243.612 20.1563 242.977 19.465C242.354 18.7623 241.277 18.411 239.747 18.411C238.784 18.411 237.9 18.6377 237.095 19.091C236.291 19.533 235.73 20.2697 235.412 21.301L232.097 20.281C232.551 18.7057 233.412 17.4533 234.681 16.524C235.962 15.5947 237.662 15.13 239.781 15.13C241.425 15.13 242.853 15.4133 244.065 15.98C245.289 16.5353 246.185 17.4193 246.751 18.632C247.046 19.2327 247.227 19.8673 247.295 20.536C247.363 21.2047 247.397 21.9243 247.397 22.695V34H244.252V29.801L244.864 30.345C244.105 31.7503 243.136 32.7987 241.957 33.49C240.79 34.17 239.351 34.51 237.639 34.51ZM238.268 31.603C239.277 31.603 240.144 31.4273 240.869 31.076C241.595 30.7133 242.178 30.2543 242.62 29.699C243.062 29.1437 243.351 28.5657 243.487 27.965C243.68 27.421 243.788 26.809 243.81 26.129C243.844 25.449 243.861 24.905 243.861 24.497L245.017 24.922C243.895 25.092 242.875 25.245 241.957 25.381C241.039 25.517 240.206 25.653 239.458 25.789C238.722 25.9137 238.064 26.0667 237.486 26.248C236.999 26.418 236.563 26.622 236.177 26.86C235.803 27.098 235.503 27.387 235.276 27.727C235.061 28.067 234.953 28.4807 234.953 28.968C234.953 29.444 235.072 29.886 235.31 30.294C235.548 30.6907 235.911 31.008 236.398 31.246C236.886 31.484 237.509 31.603 238.268 31.603ZM249.092 42.16V38.794H250.027C250.967 38.794 251.653 38.5673 252.084 38.114C252.526 37.6607 252.747 36.9637 252.747 36.023V15.64H256.317V37.468C256.317 38.964 255.903 40.12 255.076 40.936C254.26 41.752 253.087 42.16 251.557 42.16H249.092ZM252.747 12.631V9.18H256.317V12.631H252.747ZM269.318 34.51C267.493 34.51 265.89 34.1133 264.507 33.32C263.136 32.5153 262.065 31.399 261.294 29.971C260.535 28.5317 260.155 26.8657 260.155 24.973C260.155 22.967 260.529 21.2273 261.277 19.754C262.036 18.2807 263.09 17.1417 264.439 16.337C265.788 15.5323 267.357 15.13 269.148 15.13C271.018 15.13 272.61 15.5663 273.925 16.439C275.24 17.3003 276.22 18.53 276.866 20.128C277.523 21.726 277.784 23.6243 277.648 25.823H274.095V24.531C274.072 22.4003 273.664 20.825 272.871 19.805C272.089 18.785 270.893 18.275 269.284 18.275C267.505 18.275 266.167 18.836 265.272 19.958C264.377 21.08 263.929 22.7007 263.929 24.82C263.929 26.8373 264.377 28.4013 265.272 29.512C266.167 30.6113 267.459 31.161 269.148 31.161C270.259 31.161 271.216 30.9117 272.021 30.413C272.837 29.903 273.472 29.1777 273.925 28.237L277.41 29.342C276.696 30.9853 275.614 32.2603 274.163 33.167C272.712 34.0623 271.097 34.51 269.318 34.51ZM262.773 25.823V23.052H275.88V25.823H262.773ZM281.462 34V15.64H284.624V20.094L284.182 19.516C284.409 18.9267 284.703 18.3883 285.066 17.901C285.429 17.4023 285.848 16.9943 286.324 16.677C286.789 16.337 287.304 16.0763 287.871 15.895C288.449 15.7023 289.038 15.589 289.639 15.555C290.24 15.5097 290.818 15.538 291.373 15.64V18.972C290.772 18.8133 290.104 18.768 289.367 18.836C288.642 18.904 287.973 19.1363 287.361 19.533C286.783 19.907 286.324 20.3603 285.984 20.893C285.655 21.4257 285.417 22.0207 285.27 22.678C285.123 23.324 285.049 24.0097 285.049 24.735V34H281.462Z" fill="black"/>
<rect x="5.00391" y="91.5645" width="299" height="41" rx="7.5" fill="white"/>
<path d="M14.3639 120.425V119.235H14.7699C15.1339 119.235 15.4116 119.144 15.6029 118.962C15.7942 118.78 15.8899 118.49 15.8899 118.094V109.505H17.1359V118.521C17.1359 119.141 16.9749 119.613 16.6529 119.935C16.3356 120.261 15.8642 120.425 15.2389 120.425H14.3639ZM15.8899 108.168V106.88H17.1359V108.168H15.8899ZM21.3106 117.275C20.746 117.275 20.2723 117.172 19.8896 116.967C19.5116 116.757 19.2246 116.481 19.0286 116.141C18.8373 115.8 18.7416 115.427 18.7416 115.021C18.7416 114.624 18.8163 114.281 18.9656 113.992C19.1196 113.698 19.3343 113.455 19.6096 113.264C19.885 113.068 20.214 112.914 20.5966 112.802C20.956 112.704 21.3573 112.62 21.8006 112.55C22.2486 112.475 22.7013 112.407 23.1586 112.347C23.616 112.286 24.043 112.228 24.4396 112.172L23.9916 112.431C24.0056 111.759 23.8703 111.262 23.5856 110.94C23.3056 110.618 22.8203 110.457 22.1296 110.457C21.6723 110.457 21.271 110.562 20.9256 110.772C20.585 110.977 20.3446 111.313 20.2046 111.78L19.0216 111.423C19.2036 110.76 19.556 110.24 20.0786 109.862C20.6013 109.484 21.2896 109.295 22.1436 109.295C22.8296 109.295 23.4176 109.418 23.9076 109.666C24.4023 109.908 24.757 110.277 24.9716 110.772C25.079 111.005 25.1466 111.259 25.1746 111.535C25.2026 111.805 25.2166 112.09 25.2166 112.389V117.065H24.1106V115.252L24.3696 115.42C24.085 116.031 23.686 116.493 23.1726 116.806C22.664 117.118 22.0433 117.275 21.3106 117.275ZM21.4996 116.232C21.9476 116.232 22.335 116.152 22.6616 115.994C22.993 115.83 23.259 115.618 23.4596 115.357C23.6603 115.091 23.791 114.801 23.8516 114.489C23.9216 114.255 23.959 113.996 23.9636 113.712C23.973 113.422 23.9776 113.201 23.9776 113.047L24.4116 113.236C24.0056 113.292 23.6066 113.345 23.2146 113.397C22.8226 113.448 22.4516 113.504 22.1016 113.565C21.7516 113.621 21.4366 113.688 21.1566 113.768C20.9513 113.833 20.7576 113.917 20.5756 114.02C20.3983 114.122 20.2536 114.255 20.1416 114.419C20.0343 114.577 19.9806 114.776 19.9806 115.014C19.9806 115.219 20.032 115.415 20.1346 115.602C20.242 115.788 20.4053 115.94 20.6246 116.057C20.8486 116.173 21.1403 116.232 21.4996 116.232ZM27.6628 120.425L29.1258 116.449L29.1468 117.625L25.8428 109.505H27.1518L29.7418 116.036H29.2938L31.7228 109.505H32.9898L28.8738 120.425H27.6628ZM37.002 117.268C36.1013 117.268 35.3617 117.072 34.783 116.68C34.209 116.283 33.8567 115.73 33.726 115.021L35 114.818C35.1027 115.228 35.3383 115.555 35.707 115.798C36.0757 116.036 36.533 116.155 37.079 116.155C37.597 116.155 38.003 116.047 38.297 115.833C38.591 115.618 38.738 115.326 38.738 114.958C38.738 114.743 38.689 114.57 38.591 114.44C38.493 114.304 38.29 114.178 37.982 114.062C37.6787 113.945 37.219 113.805 36.603 113.642C35.9357 113.464 35.4107 113.28 35.028 113.089C34.6453 112.897 34.3723 112.676 34.209 112.424C34.0457 112.172 33.964 111.866 33.964 111.507C33.964 111.063 34.0853 110.676 34.328 110.345C34.5707 110.009 34.909 109.75 35.343 109.568C35.7817 109.386 36.2903 109.295 36.869 109.295C37.443 109.295 37.9563 109.386 38.409 109.568C38.8617 109.75 39.2257 110.009 39.501 110.345C39.781 110.676 39.9467 111.063 39.998 111.507L38.724 111.738C38.6633 111.332 38.4673 111.012 38.136 110.779C37.8093 110.545 37.387 110.422 36.869 110.408C36.379 110.389 35.98 110.475 35.672 110.667C35.3687 110.858 35.217 111.117 35.217 111.444C35.217 111.626 35.273 111.782 35.385 111.913C35.5017 112.043 35.714 112.167 36.022 112.284C36.3347 112.4 36.7873 112.533 37.38 112.683C38.0473 112.851 38.5723 113.035 38.955 113.236C39.3423 113.432 39.6177 113.665 39.781 113.936C39.9443 114.202 40.026 114.531 40.026 114.923C40.026 115.651 39.7577 116.225 39.221 116.645C38.6843 117.06 37.9447 117.268 37.002 117.268ZM50.6068 117.065L50.6138 112.228C50.6138 111.663 50.4622 111.222 50.1588 110.905C49.8602 110.583 49.4705 110.422 48.9898 110.422C48.7098 110.422 48.4438 110.487 48.1918 110.618C47.9398 110.744 47.7345 110.944 47.5758 111.22C47.4172 111.49 47.3378 111.838 47.3378 112.263L46.6798 111.997C46.6705 111.46 46.7802 110.991 47.0088 110.59C47.2422 110.184 47.5595 109.869 47.9608 109.645C48.3622 109.421 48.8148 109.309 49.3188 109.309C50.1075 109.309 50.7282 109.549 51.1808 110.03C51.6335 110.506 51.8598 111.147 51.8598 111.955L51.8528 117.065H50.6068ZM41.5628 117.065V109.505H42.6758V111.528H42.8158V117.065H41.5628ZM46.0918 117.065L46.0988 112.277C46.0988 111.698 45.9495 111.245 45.6508 110.919C45.3522 110.587 44.9555 110.422 44.4608 110.422C43.9708 110.422 43.5742 110.59 43.2708 110.926C42.9675 111.262 42.8158 111.707 42.8158 112.263L42.1578 111.871C42.1578 111.381 42.2745 110.942 42.5078 110.555C42.7412 110.167 43.0585 109.864 43.4598 109.645C43.8612 109.421 44.3162 109.309 44.8248 109.309C45.3335 109.309 45.7768 109.416 46.1548 109.631C46.5328 109.845 46.8245 110.153 47.0298 110.555C47.2352 110.951 47.3378 111.425 47.3378 111.976L47.3308 117.065H46.0918ZM53.8231 108.168V106.88H55.0691V108.168H53.8231ZM53.8231 117.065V109.505H55.0691V117.065H53.8231ZM61.3905 117.065C60.9425 117.153 60.4991 117.188 60.0605 117.17C59.6265 117.156 59.2391 117.069 58.8985 116.911C58.5578 116.747 58.2988 116.495 58.1215 116.155C57.9721 115.856 57.8905 115.555 57.8765 115.252C57.8671 114.944 57.8625 114.596 57.8625 114.209V107.405H59.1085V114.153C59.1085 114.461 59.1108 114.724 59.1155 114.944C59.1248 115.163 59.1738 115.352 59.2625 115.511C59.4305 115.809 59.6965 115.984 60.0605 116.036C60.4291 116.087 60.8725 116.073 61.3905 115.994V117.065ZM56.3295 110.534V109.505H61.3905V110.534H56.3295ZM68.3083 117.065V113.278C68.3083 112.918 68.2756 112.573 68.2103 112.242C68.1496 111.91 68.04 111.614 67.8813 111.353C67.7273 111.087 67.5173 110.877 67.2513 110.723C66.99 110.569 66.6586 110.492 66.2573 110.492C65.9446 110.492 65.66 110.545 65.4033 110.653C65.1513 110.755 64.9343 110.914 64.7523 111.129C64.5703 111.343 64.428 111.614 64.3253 111.941C64.2273 112.263 64.1783 112.643 64.1783 113.082L63.3593 112.83C63.3593 112.097 63.49 111.469 63.7513 110.947C64.0173 110.419 64.3883 110.016 64.8643 109.736C65.345 109.451 65.9096 109.309 66.5583 109.309C67.0483 109.309 67.466 109.386 67.8113 109.54C68.1566 109.694 68.4436 109.899 68.6723 110.156C68.901 110.408 69.0806 110.692 69.2113 111.01C69.342 111.322 69.433 111.642 69.4843 111.969C69.5403 112.291 69.5683 112.596 69.5683 112.886V117.065H68.3083ZM62.9183 117.065V106.985H64.0383V112.55H64.1783V117.065H62.9183ZM76.7642 118.535C76.0129 118.535 75.3175 118.406 74.6782 118.15C74.0435 117.893 73.4905 117.534 73.0192 117.072C72.5479 116.61 72.1815 116.066 71.9202 115.441C71.6589 114.815 71.5282 114.136 71.5282 113.404C71.5282 112.573 71.6589 111.829 71.9202 111.171C72.1862 110.508 72.5549 109.943 73.0262 109.477C73.5022 109.01 74.0575 108.653 74.6922 108.406C75.3315 108.158 76.0245 108.035 76.7712 108.035C77.6579 108.035 78.4325 108.175 79.0952 108.455C79.7579 108.73 80.3062 109.108 80.7402 109.589C81.1789 110.065 81.5009 110.604 81.7062 111.206C81.9162 111.808 82.0072 112.435 81.9792 113.089C81.9465 113.98 81.7482 114.659 81.3842 115.126C81.0202 115.592 80.4859 115.826 79.7812 115.826C79.3705 115.826 79.0019 115.73 78.6752 115.539C78.3485 115.347 78.1269 115.072 78.0102 114.713L78.3812 114.741C78.2039 115.086 77.9519 115.333 77.6252 115.483C77.2985 115.627 76.9602 115.7 76.6102 115.7C76.1622 115.7 75.7679 115.604 75.4272 115.413C75.0912 115.217 74.8252 114.946 74.6292 114.601C74.4379 114.251 74.3422 113.847 74.3422 113.39C74.3422 112.914 74.4425 112.503 74.6432 112.158C74.8439 111.812 75.1169 111.546 75.4622 111.36C75.8075 111.168 76.1972 111.073 76.6312 111.073C76.9345 111.073 77.2495 111.136 77.5762 111.262C77.9029 111.388 78.1549 111.579 78.3322 111.836L78.0522 112.172V111.269H78.8922L78.8782 113.663C78.8782 114.013 78.9529 114.288 79.1022 114.489C79.2562 114.689 79.4942 114.79 79.8162 114.79C80.0635 114.79 80.2619 114.72 80.4112 114.58C80.5652 114.44 80.6795 114.248 80.7542 114.006C80.8289 113.758 80.8709 113.471 80.8802 113.145C80.9035 112.426 80.8055 111.81 80.5862 111.297C80.3669 110.783 80.0612 110.361 79.6692 110.03C79.2819 109.698 78.8432 109.456 78.3532 109.302C77.8679 109.143 77.3639 109.064 76.8412 109.064C76.1645 109.064 75.5625 109.173 75.0352 109.393C74.5125 109.612 74.0692 109.92 73.7052 110.317C73.3459 110.709 73.0729 111.166 72.8862 111.689C72.7042 112.211 72.6179 112.776 72.6272 113.383C72.6412 113.994 72.7532 114.554 72.9632 115.063C73.1732 115.567 73.4649 116.001 73.8382 116.365C74.2162 116.729 74.6572 117.009 75.1612 117.205C75.6699 117.405 76.2229 117.506 76.8202 117.506C77.1842 117.506 77.5459 117.461 77.9052 117.373C78.2692 117.284 78.5959 117.163 78.8852 117.009L79.2492 117.947C78.8665 118.143 78.4652 118.29 78.0452 118.388C77.6252 118.486 77.1982 118.535 76.7642 118.535ZM76.6802 114.657C77.0302 114.657 77.3172 114.556 77.5412 114.356C77.7699 114.155 77.8842 113.831 77.8842 113.383C77.8842 112.958 77.7792 112.638 77.5692 112.424C77.3592 112.209 77.0722 112.102 76.7082 112.102C76.2882 112.102 75.9685 112.216 75.7492 112.445C75.5345 112.669 75.4272 112.981 75.4272 113.383C75.4272 113.789 75.5392 114.104 75.7632 114.328C75.9872 114.547 76.2929 114.657 76.6802 114.657ZM87.3654 117.275C86.6234 117.275 85.9747 117.111 85.4194 116.785C84.8687 116.453 84.4394 115.994 84.1314 115.406C83.8234 114.813 83.6694 114.122 83.6694 113.334C83.6694 112.508 83.821 111.794 84.1244 111.192C84.4277 110.585 84.85 110.118 85.3914 109.792C85.9374 109.46 86.5767 109.295 87.3094 109.295C88.07 109.295 88.7164 109.47 89.2484 109.82C89.785 110.17 90.1864 110.669 90.4524 111.318C90.723 111.966 90.8397 112.739 90.8024 113.635H89.5424V113.187C89.5284 112.258 89.3394 111.565 88.9754 111.108C88.6114 110.646 88.07 110.415 87.3514 110.415C86.5814 110.415 85.9957 110.662 85.5944 111.157C85.193 111.651 84.9924 112.361 84.9924 113.285C84.9924 114.176 85.193 114.867 85.5944 115.357C85.9957 115.847 86.5674 116.092 87.3094 116.092C87.8087 116.092 88.2427 115.977 88.6114 115.749C88.98 115.52 89.2694 115.191 89.4794 114.762L90.6764 115.175C90.3824 115.842 89.939 116.36 89.3464 116.729C88.7584 117.093 88.098 117.275 87.3654 117.275ZM84.5724 113.635V112.634H90.1584V113.635H84.5724ZM91.2474 117.065L94.1384 113.243L91.3104 109.505H92.7944L94.8664 112.277L96.9174 109.505H98.4014L95.5734 113.243L98.4714 117.065H96.9804L94.8664 114.209L92.7384 117.065H91.2474ZM101.469 117.275C100.904 117.275 100.431 117.172 100.048 116.967C99.6698 116.757 99.3828 116.481 99.1868 116.141C98.9955 115.8 98.8998 115.427 98.8998 115.021C98.8998 114.624 98.9745 114.281 99.1238 113.992C99.2778 113.698 99.4925 113.455 99.7678 113.264C100.043 113.068 100.372 112.914 100.755 112.802C101.114 112.704 101.516 112.62 101.959 112.55C102.407 112.475 102.86 112.407 103.317 112.347C103.774 112.286 104.201 112.228 104.598 112.172L104.15 112.431C104.164 111.759 104.029 111.262 103.744 110.94C103.464 110.618 102.979 110.457 102.288 110.457C101.831 110.457 101.429 110.562 101.084 110.772C100.743 110.977 100.503 111.313 100.363 111.78L99.1798 111.423C99.3618 110.76 99.7142 110.24 100.237 109.862C100.76 109.484 101.448 109.295 102.302 109.295C102.988 109.295 103.576 109.418 104.066 109.666C104.561 109.908 104.915 110.277 105.13 110.772C105.237 111.005 105.305 111.259 105.333 111.535C105.361 111.805 105.375 112.09 105.375 112.389V117.065H104.269V115.252L104.528 115.42C104.243 116.031 103.844 116.493 103.331 116.806C102.822 117.118 102.202 117.275 101.469 117.275ZM101.658 116.232C102.106 116.232 102.493 116.152 102.82 115.994C103.151 115.83 103.417 115.618 103.618 115.357C103.819 115.091 103.949 114.801 104.01 114.489C104.08 114.255 104.117 113.996 104.122 113.712C104.131 113.422 104.136 113.201 104.136 113.047L104.57 113.236C104.164 113.292 103.765 113.345 103.373 113.397C102.981 113.448 102.61 113.504 102.26 113.565C101.91 113.621 101.595 113.688 101.315 113.768C101.11 113.833 100.916 113.917 100.734 114.02C100.557 114.122 100.412 114.255 100.3 114.419C100.193 114.577 100.139 114.776 100.139 115.014C100.139 115.219 100.19 115.415 100.293 115.602C100.4 115.788 100.564 115.94 100.783 116.057C101.007 116.173 101.299 116.232 101.658 116.232ZM116.232 117.065L116.239 112.228C116.239 111.663 116.087 111.222 115.784 110.905C115.485 110.583 115.096 110.422 114.615 110.422C114.335 110.422 114.069 110.487 113.817 110.618C113.565 110.744 113.36 110.944 113.201 111.22C113.042 111.49 112.963 111.838 112.963 112.263L112.305 111.997C112.296 111.46 112.405 110.991 112.634 110.59C112.867 110.184 113.185 109.869 113.586 109.645C113.987 109.421 114.44 109.309 114.944 109.309C115.733 109.309 116.353 109.549 116.806 110.03C117.259 110.506 117.485 111.147 117.485 111.955L117.478 117.065H116.232ZM107.188 117.065V109.505H108.301V111.528H108.441V117.065H107.188ZM111.717 117.065L111.724 112.277C111.724 111.698 111.575 111.245 111.276 110.919C110.977 110.587 110.581 110.422 110.086 110.422C109.596 110.422 109.199 110.59 108.896 110.926C108.593 111.262 108.441 111.707 108.441 112.263L107.783 111.871C107.783 111.381 107.9 110.942 108.133 110.555C108.366 110.167 108.684 109.864 109.085 109.645C109.486 109.421 109.941 109.309 110.45 109.309C110.959 109.309 111.402 109.416 111.78 109.631C112.158 109.845 112.45 110.153 112.655 110.555C112.86 110.951 112.963 111.425 112.963 111.976L112.956 117.065H111.717ZM122.78 117.275C122.071 117.275 121.473 117.1 120.988 116.75C120.503 116.395 120.134 115.917 119.882 115.315C119.635 114.708 119.511 114.029 119.511 113.278C119.511 112.517 119.635 111.836 119.882 111.234C120.134 110.632 120.503 110.158 120.988 109.813C121.478 109.467 122.078 109.295 122.787 109.295C123.487 109.295 124.089 109.47 124.593 109.82C125.102 110.165 125.491 110.639 125.762 111.241C126.033 111.843 126.168 112.522 126.168 113.278C126.168 114.034 126.033 114.713 125.762 115.315C125.491 115.917 125.102 116.395 124.593 116.75C124.089 117.1 123.485 117.275 122.78 117.275ZM119.301 120.425V109.505H120.414V115.07H120.554V120.425H119.301ZM122.626 116.134C123.125 116.134 123.538 116.008 123.865 115.756C124.192 115.504 124.437 115.163 124.6 114.734C124.763 114.3 124.845 113.814 124.845 113.278C124.845 112.746 124.763 112.265 124.6 111.836C124.441 111.406 124.194 111.066 123.858 110.814C123.527 110.562 123.104 110.436 122.591 110.436C122.101 110.436 121.695 110.557 121.373 110.8C121.051 111.038 120.811 111.371 120.652 111.801C120.493 112.225 120.414 112.718 120.414 113.278C120.414 113.828 120.491 114.321 120.645 114.755C120.804 115.184 121.046 115.522 121.373 115.77C121.7 116.012 122.117 116.134 122.626 116.134ZM127.843 117.065V106.775H129.089V117.065H127.843ZM134.465 117.275C133.723 117.275 133.074 117.111 132.519 116.785C131.968 116.453 131.539 115.994 131.231 115.406C130.923 114.813 130.769 114.122 130.769 113.334C130.769 112.508 130.921 111.794 131.224 111.192C131.527 110.585 131.95 110.118 132.491 109.792C133.037 109.46 133.676 109.295 134.409 109.295C135.17 109.295 135.816 109.47 136.348 109.82C136.885 110.17 137.286 110.669 137.552 111.318C137.823 111.966 137.939 112.739 137.902 113.635H136.642V113.187C136.628 112.258 136.439 111.565 136.075 111.108C135.711 110.646 135.17 110.415 134.451 110.415C133.681 110.415 133.095 110.662 132.694 111.157C132.293 111.651 132.092 112.361 132.092 113.285C132.092 114.176 132.293 114.867 132.694 115.357C133.095 115.847 133.667 116.092 134.409 116.092C134.908 116.092 135.342 115.977 135.711 115.749C136.08 115.52 136.369 115.191 136.579 114.762L137.776 115.175C137.482 115.842 137.039 116.36 136.446 116.729C135.858 117.093 135.198 117.275 134.465 117.275ZM131.672 113.635V112.634H137.258V113.635H131.672ZM139.411 117.065V115.693H140.783V117.065H139.411ZM146.145 117.275C145.38 117.275 144.729 117.104 144.192 116.764C143.66 116.418 143.254 115.945 142.974 115.343C142.694 114.741 142.55 114.055 142.54 113.285C142.55 112.496 142.697 111.803 142.981 111.206C143.271 110.604 143.684 110.135 144.22 109.799C144.757 109.463 145.403 109.295 146.159 109.295C146.957 109.295 147.643 109.491 148.217 109.883C148.796 110.275 149.183 110.811 149.379 111.493L148.147 111.864C147.989 111.425 147.73 111.084 147.37 110.842C147.016 110.599 146.607 110.478 146.145 110.478C145.627 110.478 145.2 110.599 144.864 110.842C144.528 111.08 144.279 111.411 144.115 111.836C143.952 112.256 143.868 112.739 143.863 113.285C143.873 114.125 144.066 114.804 144.444 115.322C144.827 115.835 145.394 116.092 146.145 116.092C146.64 116.092 147.051 115.98 147.377 115.756C147.704 115.527 147.951 115.198 148.119 114.769L149.379 115.098C149.118 115.802 148.71 116.341 148.154 116.715C147.599 117.088 146.929 117.275 146.145 117.275ZM153.823 117.275C153.072 117.275 152.423 117.104 151.877 116.764C151.336 116.423 150.918 115.952 150.624 115.35C150.33 114.748 150.183 114.057 150.183 113.278C150.183 112.484 150.332 111.789 150.631 111.192C150.93 110.594 151.352 110.13 151.898 109.799C152.444 109.463 153.086 109.295 153.823 109.295C154.579 109.295 155.23 109.465 155.776 109.806C156.322 110.142 156.74 110.611 157.029 111.213C157.323 111.81 157.47 112.498 157.47 113.278C157.47 114.066 157.323 114.762 157.029 115.364C156.735 115.961 156.315 116.43 155.769 116.771C155.223 117.107 154.574 117.275 153.823 117.275ZM153.823 116.092C154.607 116.092 155.19 115.83 155.573 115.308C155.956 114.785 156.147 114.108 156.147 113.278C156.147 112.424 155.953 111.745 155.566 111.241C155.179 110.732 154.598 110.478 153.823 110.478C153.296 110.478 152.862 110.597 152.521 110.835C152.18 111.073 151.926 111.402 151.758 111.822C151.59 112.242 151.506 112.727 151.506 113.278C151.506 114.127 151.702 114.808 152.094 115.322C152.486 115.835 153.062 116.092 153.823 116.092ZM168.048 117.065L168.055 112.228C168.055 111.663 167.904 111.222 167.6 110.905C167.302 110.583 166.912 110.422 166.431 110.422C166.151 110.422 165.885 110.487 165.633 110.618C165.381 110.744 165.176 110.944 165.017 111.22C164.859 111.49 164.779 111.838 164.779 112.263L164.121 111.997C164.112 111.46 164.222 110.991 164.45 110.59C164.684 110.184 165.001 109.869 165.402 109.645C165.804 109.421 166.256 109.309 166.76 109.309C167.549 109.309 168.17 109.549 168.622 110.03C169.075 110.506 169.301 111.147 169.301 111.955L169.294 117.065H168.048ZM159.004 117.065V109.505H160.117V111.528H160.257V117.065H159.004ZM163.533 117.065L163.54 112.277C163.54 111.698 163.391 111.245 163.092 110.919C162.794 110.587 162.397 110.422 161.902 110.422C161.412 110.422 161.016 110.59 160.712 110.926C160.409 111.262 160.257 111.707 160.257 112.263L159.599 111.871C159.599 111.381 159.716 110.942 159.949 110.555C160.183 110.167 160.5 109.864 160.901 109.645C161.303 109.421 161.758 109.309 162.266 109.309C162.775 109.309 163.218 109.416 163.596 109.631C163.974 109.845 164.266 110.153 164.471 110.555C164.677 110.951 164.779 111.425 164.779 111.976L164.772 117.065H163.533Z" fill="#ABABB5"/>
<rect x="5.00391" y="91.5645" width="299" height="41" rx="7.5" stroke="#ABABB5"/>
<path d="M5.34391 81V72.36H10.8639V73.542H6.59791V75.966H10.1439V77.148H6.59791V79.818H10.8639V81H5.34391ZM12.1848 77.718V76.71H15.7848V77.718H12.1848ZM25.1079 81L25.1139 76.962C25.1139 76.494 24.9939 76.13 24.7539 75.87C24.5139 75.606 24.1979 75.474 23.8059 75.474C23.5659 75.474 23.3459 75.53 23.1459 75.642C22.9499 75.75 22.7899 75.914 22.6659 76.134C22.5459 76.35 22.4859 76.622 22.4859 76.95L21.8799 76.644C21.8719 76.188 21.9679 75.788 22.1679 75.444C22.3719 75.1 22.6479 74.834 22.9959 74.646C23.3439 74.454 23.7339 74.358 24.1659 74.358C24.8659 74.358 25.4079 74.568 25.7919 74.988C26.1759 75.408 26.3679 75.966 26.3679 76.662L26.3619 81H25.1079ZM17.3379 81V74.52H18.4539V76.392H18.5979V81H17.3379ZM21.2259 81L21.2319 76.986C21.2319 76.514 21.1119 76.144 20.8719 75.876C20.6359 75.608 20.3179 75.474 19.9179 75.474C19.5219 75.474 19.2019 75.61 18.9579 75.882C18.7179 76.154 18.5979 76.51 18.5979 76.95L17.9979 76.566C17.9979 76.142 18.0999 75.764 18.3039 75.432C18.5079 75.1 18.7839 74.838 19.1319 74.646C19.4799 74.454 19.8739 74.358 20.3139 74.358C20.7739 74.358 21.1659 74.456 21.4899 74.652C21.8139 74.844 22.0599 75.114 22.2279 75.462C22.3999 75.81 22.4859 76.214 22.4859 76.674L22.4799 81H21.2259ZM29.7559 81.18C29.2759 81.18 28.8739 81.092 28.5499 80.916C28.2259 80.736 27.9799 80.5 27.8119 80.208C27.6479 79.912 27.5659 79.588 27.5659 79.236C27.5659 78.908 27.6239 78.62 27.7399 78.372C27.8559 78.124 28.0279 77.914 28.2559 77.742C28.4839 77.566 28.7639 77.424 29.0959 77.316C29.3839 77.232 29.7099 77.158 30.0739 77.094C30.4379 77.03 30.8199 76.97 31.2199 76.914C31.6239 76.858 32.0239 76.802 32.4199 76.746L31.9639 76.998C31.9719 76.49 31.8639 76.114 31.6399 75.87C31.4199 75.622 31.0399 75.498 30.4999 75.498C30.1599 75.498 29.8479 75.578 29.5639 75.738C29.2799 75.894 29.0819 76.154 28.9699 76.518L27.7999 76.158C27.9599 75.602 28.2639 75.16 28.7119 74.832C29.1639 74.504 29.7639 74.34 30.5119 74.34C31.0919 74.34 31.5959 74.44 32.0239 74.64C32.4559 74.836 32.7719 75.148 32.9719 75.576C33.0759 75.788 33.1399 76.012 33.1639 76.248C33.1879 76.484 33.1999 76.738 33.1999 77.01V81H32.0899V79.518L32.3059 79.71C32.0379 80.206 31.6959 80.576 31.2799 80.82C30.8679 81.06 30.3599 81.18 29.7559 81.18ZM29.9779 80.154C30.3339 80.154 30.6399 80.092 30.8959 79.968C31.1519 79.84 31.3579 79.678 31.5139 79.482C31.6699 79.286 31.7719 79.082 31.8199 78.87C31.8879 78.678 31.9259 78.462 31.9339 78.222C31.9459 77.982 31.9519 77.79 31.9519 77.646L32.3599 77.796C31.9639 77.856 31.6039 77.91 31.2799 77.958C30.9559 78.006 30.6619 78.054 30.3979 78.102C30.1379 78.146 29.9059 78.2 29.7019 78.264C29.5299 78.324 29.3759 78.396 29.2399 78.48C29.1079 78.564 29.0019 78.666 28.9219 78.786C28.8459 78.906 28.8079 79.052 28.8079 79.224C28.8079 79.392 28.8499 79.548 28.9339 79.692C29.0179 79.832 29.1459 79.944 29.3179 80.028C29.4899 80.112 29.7099 80.154 29.9779 80.154ZM34.878 73.458V72.24H36.132V73.458H34.878ZM34.878 81V74.52H36.132V81H34.878ZM38.0538 81V72.18H39.3078V81H38.0538ZM45.3419 81.18C44.8619 81.18 44.4599 81.092 44.1359 80.916C43.8119 80.736 43.5659 80.5 43.3979 80.208C43.2339 79.912 43.1519 79.588 43.1519 79.236C43.1519 78.908 43.2099 78.62 43.3259 78.372C43.4419 78.124 43.6139 77.914 43.8419 77.742C44.0699 77.566 44.3499 77.424 44.6819 77.316C44.9699 77.232 45.2959 77.158 45.6599 77.094C46.0239 77.03 46.4059 76.97 46.8059 76.914C47.2099 76.858 47.6099 76.802 48.0059 76.746L47.5499 76.998C47.5579 76.49 47.4499 76.114 47.2259 75.87C47.0059 75.622 46.6259 75.498 46.0859 75.498C45.7459 75.498 45.4339 75.578 45.1499 75.738C44.8659 75.894 44.6679 76.154 44.5559 76.518L43.3859 76.158C43.5459 75.602 43.8499 75.16 44.2979 74.832C44.7499 74.504 45.3499 74.34 46.0979 74.34C46.6779 74.34 47.1819 74.44 47.6099 74.64C48.0419 74.836 48.3579 75.148 48.5579 75.576C48.6619 75.788 48.7259 76.012 48.7499 76.248C48.7739 76.484 48.7859 76.738 48.7859 77.01V81H47.6759V79.518L47.8919 79.71C47.6239 80.206 47.2819 80.576 46.8659 80.82C46.4539 81.06 45.9459 81.18 45.3419 81.18ZM45.5639 80.154C45.9199 80.154 46.2259 80.092 46.4819 79.968C46.7379 79.84 46.9439 79.678 47.0999 79.482C47.2559 79.286 47.3579 79.082 47.4059 78.87C47.4739 78.678 47.5119 78.462 47.5199 78.222C47.5319 77.982 47.5379 77.79 47.5379 77.646L47.9459 77.796C47.5499 77.856 47.1899 77.91 46.8659 77.958C46.5419 78.006 46.2479 78.054 45.9839 78.102C45.7239 78.146 45.4919 78.2 45.2879 78.264C45.1159 78.324 44.9619 78.396 44.8259 78.48C44.6939 78.564 44.5879 78.666 44.5079 78.786C44.4319 78.906 44.3939 79.052 44.3939 79.224C44.3939 79.392 44.4359 79.548 44.5199 79.692C44.6039 79.832 44.7319 79.944 44.9039 80.028C45.0759 80.112 45.2959 80.154 45.5639 80.154ZM52.9179 81.18C52.3139 81.18 51.7919 81.03 51.3519 80.73C50.9159 80.43 50.5779 80.022 50.3379 79.506C50.1019 78.986 49.9839 78.402 49.9839 77.754C49.9839 77.102 50.1039 76.52 50.3439 76.008C50.5839 75.492 50.9239 75.086 51.3639 74.79C51.8079 74.49 52.3339 74.34 52.9419 74.34C53.5539 74.34 54.0679 74.49 54.4839 74.79C54.9039 75.086 55.2199 75.492 55.4319 76.008C55.6479 76.524 55.7559 77.106 55.7559 77.754C55.7559 78.402 55.6479 78.984 55.4319 79.5C55.2159 80.016 54.8979 80.426 54.4779 80.73C54.0579 81.03 53.5379 81.18 52.9179 81.18ZM53.0919 80.046C53.5039 80.046 53.8399 79.948 54.0999 79.752C54.3599 79.556 54.5499 79.286 54.6699 78.942C54.7899 78.598 54.8499 78.202 54.8499 77.754C54.8499 77.306 54.7879 76.91 54.6639 76.566C54.5439 76.222 54.3559 75.954 54.0999 75.762C53.8479 75.57 53.5259 75.474 53.1339 75.474C52.7179 75.474 52.3759 75.576 52.1079 75.78C51.8399 75.984 51.6399 76.258 51.5079 76.602C51.3799 76.946 51.3159 77.33 51.3159 77.754C51.3159 78.182 51.3799 78.57 51.5079 78.918C51.6399 79.262 51.8359 79.536 52.0959 79.74C52.3599 79.944 52.6919 80.046 53.0919 80.046ZM54.8499 81V76.338H54.7059V72.36H55.9659V81H54.8499ZM60.2187 81.18C59.6147 81.18 59.0927 81.03 58.6527 80.73C58.2167 80.43 57.8787 80.022 57.6387 79.506C57.4027 78.986 57.2847 78.402 57.2847 77.754C57.2847 77.102 57.4047 76.52 57.6447 76.008C57.8847 75.492 58.2247 75.086 58.6647 74.79C59.1087 74.49 59.6347 74.34 60.2427 74.34C60.8547 74.34 61.3687 74.49 61.7847 74.79C62.2047 75.086 62.5207 75.492 62.7327 76.008C62.9487 76.524 63.0567 77.106 63.0567 77.754C63.0567 78.402 62.9487 78.984 62.7327 79.5C62.5167 80.016 62.1987 80.426 61.7787 80.73C61.3587 81.03 60.8387 81.18 60.2187 81.18ZM60.3927 80.046C60.8047 80.046 61.1407 79.948 61.4007 79.752C61.6607 79.556 61.8507 79.286 61.9707 78.942C62.0907 78.598 62.1507 78.202 62.1507 77.754C62.1507 77.306 62.0887 76.91 61.9647 76.566C61.8447 76.222 61.6567 75.954 61.4007 75.762C61.1487 75.57 60.8267 75.474 60.4347 75.474C60.0187 75.474 59.6767 75.576 59.4087 75.78C59.1407 75.984 58.9407 76.258 58.8087 76.602C58.6807 76.946 58.6167 77.33 58.6167 77.754C58.6167 78.182 58.6807 78.57 58.8087 78.918C58.9407 79.262 59.1367 79.536 59.3967 79.74C59.6607 79.944 59.9927 80.046 60.3927 80.046ZM62.1507 81V76.338H62.0067V72.36H63.2667V81H62.1507ZM64.9455 81V74.52H66.0615V76.092L65.9055 75.888C65.9855 75.68 66.0895 75.49 66.2175 75.318C66.3455 75.142 66.4935 74.998 66.6615 74.886C66.8255 74.766 67.0075 74.674 67.2075 74.61C67.4115 74.542 67.6195 74.502 67.8315 74.49C68.0435 74.474 68.2475 74.484 68.4435 74.52V75.696C68.2315 75.64 67.9955 75.624 67.7355 75.648C67.4795 75.672 67.2435 75.754 67.0275 75.894C66.8235 76.026 66.6615 76.186 66.5415 76.374C66.4255 76.562 66.3415 76.772 66.2895 77.004C66.2375 77.232 66.2115 77.474 66.2115 77.73V81H64.9455ZM72.3429 81.18C71.6989 81.18 71.1329 81.04 70.6449 80.76C70.1609 80.476 69.7829 80.082 69.5109 79.578C69.2429 79.07 69.1089 78.482 69.1089 77.814C69.1089 77.106 69.2409 76.492 69.5049 75.972C69.7729 75.452 70.1449 75.05 70.6209 74.766C71.0969 74.482 71.6509 74.34 72.2829 74.34C72.9429 74.34 73.5049 74.494 73.9689 74.802C74.4329 75.106 74.7789 75.54 75.0069 76.104C75.2389 76.668 75.3309 77.338 75.2829 78.114H74.0289V77.658C74.0209 76.906 73.8769 76.35 73.5969 75.99C73.3209 75.63 72.8989 75.45 72.3309 75.45C71.7029 75.45 71.2309 75.648 70.9149 76.044C70.5989 76.44 70.4409 77.012 70.4409 77.76C70.4409 78.472 70.5989 79.024 70.9149 79.416C71.2309 79.804 71.6869 79.998 72.2829 79.998C72.6749 79.998 73.0129 79.91 73.2969 79.734C73.5849 79.554 73.8089 79.298 73.9689 78.966L75.1989 79.356C74.9469 79.936 74.5649 80.386 74.0529 80.706C73.5409 81.022 72.9709 81.18 72.3429 81.18ZM70.0329 78.114V77.136H74.6589V78.114H70.0329ZM79.1071 81.174C78.3191 81.174 77.6771 81 77.1811 80.652C76.6851 80.304 76.3811 79.814 76.2691 79.182L77.5531 78.984C77.6331 79.32 77.8171 79.586 78.1051 79.782C78.3971 79.974 78.7591 80.07 79.1911 80.07C79.5831 80.07 79.8891 79.99 80.1091 79.83C80.3331 79.67 80.4451 79.45 80.4451 79.17C80.4451 79.006 80.4051 78.874 80.3251 78.774C80.2491 78.67 80.0871 78.572 79.8391 78.48C79.5911 78.388 79.2131 78.274 78.7051 78.138C78.1491 77.994 77.7071 77.84 77.3791 77.676C77.0551 77.508 76.8231 77.314 76.6831 77.094C76.5471 76.87 76.4791 76.6 76.4791 76.284C76.4791 75.892 76.5831 75.55 76.7911 75.258C76.9991 74.966 77.2911 74.74 77.6671 74.58C78.0471 74.42 78.4911 74.34 78.9991 74.34C79.4951 74.34 79.9371 74.418 80.3251 74.574C80.7131 74.73 81.0271 74.952 81.2671 75.24C81.5071 75.524 81.6511 75.858 81.6991 76.242L80.4151 76.476C80.3711 76.164 80.2251 75.918 79.9771 75.738C79.7291 75.558 79.4071 75.46 79.0111 75.444C78.6311 75.428 78.3231 75.492 78.0871 75.636C77.8511 75.776 77.7331 75.97 77.7331 76.218C77.7331 76.362 77.7771 76.484 77.8651 76.584C77.9571 76.684 78.1331 76.78 78.3931 76.872C78.6531 76.964 79.0371 77.074 79.5451 77.202C80.0891 77.342 80.5211 77.498 80.8411 77.67C81.1611 77.838 81.3891 78.04 81.5251 78.276C81.6651 78.508 81.7351 78.79 81.7351 79.122C81.7351 79.762 81.5011 80.264 81.0331 80.628C80.5691 80.992 79.9271 81.174 79.1071 81.174ZM85.5407 81.174C84.7527 81.174 84.1107 81 83.6147 80.652C83.1187 80.304 82.8147 79.814 82.7027 79.182L83.9867 78.984C84.0667 79.32 84.2507 79.586 84.5387 79.782C84.8307 79.974 85.1927 80.07 85.6247 80.07C86.0167 80.07 86.3227 79.99 86.5427 79.83C86.7667 79.67 86.8787 79.45 86.8787 79.17C86.8787 79.006 86.8387 78.874 86.7587 78.774C86.6827 78.67 86.5207 78.572 86.2727 78.48C86.0247 78.388 85.6467 78.274 85.1387 78.138C84.5827 77.994 84.1407 77.84 83.8127 77.676C83.4887 77.508 83.2567 77.314 83.1167 77.094C82.9807 76.87 82.9127 76.6 82.9127 76.284C82.9127 75.892 83.0167 75.55 83.2247 75.258C83.4327 74.966 83.7247 74.74 84.1007 74.58C84.4807 74.42 84.9247 74.34 85.4327 74.34C85.9287 74.34 86.3707 74.418 86.7587 74.574C87.1467 74.73 87.4607 74.952 87.7007 75.24C87.9407 75.524 88.0847 75.858 88.1327 76.242L86.8487 76.476C86.8047 76.164 86.6587 75.918 86.4107 75.738C86.1627 75.558 85.8407 75.46 85.4447 75.444C85.0647 75.428 84.7567 75.492 84.5207 75.636C84.2847 75.776 84.1667 75.97 84.1667 76.218C84.1667 76.362 84.2107 76.484 84.2987 76.584C84.3907 76.684 84.5667 76.78 84.8267 76.872C85.0867 76.964 85.4707 77.074 85.9787 77.202C86.5227 77.342 86.9547 77.498 87.2747 77.67C87.5947 77.838 87.8227 78.04 87.9587 78.276C88.0987 78.508 88.1687 78.79 88.1687 79.122C88.1687 79.762 87.9347 80.264 87.4667 80.628C87.0027 80.992 86.3607 81.174 85.5407 81.174ZM89.9763 80.16V78.834H91.3023V80.16H89.9763ZM89.9823 76.686V75.36H91.3083V76.686H89.9823Z" fill="#111111"/>
<rect x="5.00391" y="183.565" width="299" height="41" rx="7.5" fill="white"/>
<path d="M15.4839 209.065V198.985H21.8539V200.168H16.7299V203.325H21.0139V204.508H16.7299V207.882H21.8539V209.065H15.4839ZM28.9196 209.065V205.278C28.9196 204.918 28.887 204.573 28.8216 204.242C28.761 203.91 28.6513 203.614 28.4926 203.353C28.3386 203.087 28.1286 202.877 27.8626 202.723C27.6013 202.569 27.27 202.492 26.8686 202.492C26.556 202.492 26.2713 202.545 26.0146 202.653C25.7626 202.755 25.5456 202.914 25.3636 203.129C25.1816 203.343 25.0393 203.614 24.9366 203.941C24.8386 204.263 24.7896 204.643 24.7896 205.082L23.9706 204.83C23.9706 204.097 24.1013 203.469 24.3626 202.947C24.6286 202.419 24.9996 202.016 25.4756 201.736C25.9563 201.451 26.521 201.309 27.1696 201.309C27.6596 201.309 28.0773 201.386 28.4226 201.54C28.768 201.694 29.055 201.899 29.2836 202.156C29.5123 202.408 29.692 202.692 29.8226 203.01C29.9533 203.322 30.0443 203.642 30.0956 203.969C30.1516 204.291 30.1796 204.596 30.1796 204.886V209.065H28.9196ZM23.5296 209.065V201.505H24.6496V203.528H24.7896V209.065H23.5296ZM36.2205 209.065C35.7725 209.153 35.3292 209.188 34.8905 209.17C34.4565 209.156 34.0692 209.069 33.7285 208.911C33.3879 208.747 33.1289 208.495 32.9515 208.155C32.8022 207.856 32.7205 207.555 32.7065 207.252C32.6972 206.944 32.6925 206.596 32.6925 206.209V199.405H33.9385V206.153C33.9385 206.461 33.9409 206.724 33.9455 206.944C33.9549 207.163 34.0039 207.352 34.0925 207.511C34.2605 207.809 34.5265 207.984 34.8905 208.036C35.2592 208.087 35.7025 208.073 36.2205 207.994V209.065ZM31.1595 202.534V201.505H36.2205V202.534H31.1595ZM40.7169 209.275C39.9749 209.275 39.3263 209.111 38.7709 208.785C38.2203 208.453 37.7909 207.994 37.4829 207.406C37.1749 206.813 37.0209 206.122 37.0209 205.334C37.0209 204.508 37.1726 203.794 37.4759 203.192C37.7793 202.585 38.2016 202.118 38.7429 201.792C39.2889 201.46 39.9283 201.295 40.6609 201.295C41.4216 201.295 42.0679 201.47 42.5999 201.82C43.1366 202.17 43.5379 202.669 43.8039 203.318C44.0746 203.966 44.1913 204.739 44.1539 205.635H42.8939V205.187C42.8799 204.258 42.6909 203.565 42.3269 203.108C41.9629 202.646 41.4216 202.415 40.7029 202.415C39.9329 202.415 39.3473 202.662 38.9459 203.157C38.5446 203.651 38.3439 204.361 38.3439 205.285C38.3439 206.176 38.5446 206.867 38.9459 207.357C39.3473 207.847 39.9189 208.092 40.6609 208.092C41.1603 208.092 41.5943 207.977 41.9629 207.749C42.3316 207.52 42.6209 207.191 42.8309 206.762L44.0279 207.175C43.7339 207.842 43.2906 208.36 42.6979 208.729C42.1099 209.093 41.4496 209.275 40.7169 209.275ZM37.9239 205.635V204.634H43.5099V205.635H37.9239ZM45.7124 209.065V201.505H46.8254V203.332L46.6434 203.094C46.7321 202.86 46.8464 202.646 46.9864 202.45C47.1311 202.254 47.2921 202.093 47.4694 201.967C47.6654 201.808 47.8871 201.687 48.1344 201.603C48.3818 201.519 48.6338 201.47 48.8904 201.456C49.1471 201.437 49.3874 201.453 49.6114 201.505V202.674C49.3501 202.604 49.0631 202.585 48.7504 202.618C48.4378 202.65 48.1484 202.765 47.8824 202.961C47.6398 203.133 47.4508 203.343 47.3154 203.591C47.1848 203.838 47.0938 204.106 47.0424 204.396C46.9911 204.68 46.9654 204.972 46.9654 205.271V209.065H45.7124ZM57.2098 209.275C56.5005 209.275 55.9031 209.1 55.4178 208.75C54.9325 208.395 54.5638 207.917 54.3118 207.315C54.0645 206.708 53.9408 206.029 53.9408 205.278C53.9408 204.517 54.0645 203.836 54.3118 203.234C54.5638 202.632 54.9325 202.158 55.4178 201.813C55.9078 201.467 56.5075 201.295 57.2168 201.295C57.9168 201.295 58.5188 201.47 59.0228 201.82C59.5315 202.165 59.9211 202.639 60.1918 203.241C60.4625 203.843 60.5978 204.522 60.5978 205.278C60.5978 206.034 60.4625 206.713 60.1918 207.315C59.9211 207.917 59.5315 208.395 59.0228 208.75C58.5188 209.1 57.9145 209.275 57.2098 209.275ZM53.7308 212.425V201.505H54.8438V207.07H54.9838V212.425H53.7308ZM57.0558 208.134C57.5551 208.134 57.9681 208.008 58.2948 207.756C58.6215 207.504 58.8665 207.163 59.0298 206.734C59.1931 206.3 59.2748 205.814 59.2748 205.278C59.2748 204.746 59.1931 204.265 59.0298 203.836C58.8711 203.406 58.6238 203.066 58.2878 202.814C57.9565 202.562 57.5341 202.436 57.0208 202.436C56.5308 202.436 56.1248 202.557 55.8028 202.8C55.4808 203.038 55.2405 203.371 55.0818 203.801C54.9231 204.225 54.8438 204.718 54.8438 205.278C54.8438 205.828 54.9208 206.321 55.0748 206.755C55.2335 207.184 55.4761 207.522 55.8028 207.77C56.1295 208.012 56.5471 208.134 57.0558 208.134ZM64.2813 209.275C63.7167 209.275 63.243 209.172 62.8603 208.967C62.4823 208.757 62.1953 208.481 61.9993 208.141C61.808 207.8 61.7123 207.427 61.7123 207.021C61.7123 206.624 61.787 206.281 61.9363 205.992C62.0903 205.698 62.305 205.455 62.5803 205.264C62.8557 205.068 63.1847 204.914 63.5673 204.802C63.9267 204.704 64.328 204.62 64.7713 204.55C65.2193 204.475 65.672 204.407 66.1293 204.347C66.5867 204.286 67.0137 204.228 67.4103 204.172L66.9623 204.431C66.9763 203.759 66.841 203.262 66.5563 202.94C66.2763 202.618 65.791 202.457 65.1003 202.457C64.643 202.457 64.2417 202.562 63.8963 202.772C63.5557 202.977 63.3153 203.313 63.1753 203.78L61.9923 203.423C62.1743 202.76 62.5267 202.24 63.0493 201.862C63.572 201.484 64.2603 201.295 65.1143 201.295C65.8003 201.295 66.3883 201.418 66.8783 201.666C67.373 201.908 67.7277 202.277 67.9423 202.772C68.0497 203.005 68.1173 203.259 68.1453 203.535C68.1733 203.805 68.1873 204.09 68.1873 204.389V209.065H67.0813V207.252L67.3403 207.42C67.0557 208.031 66.6567 208.493 66.1433 208.806C65.6347 209.118 65.014 209.275 64.2813 209.275ZM64.4703 208.232C64.9183 208.232 65.3057 208.152 65.6323 207.994C65.9637 207.83 66.2297 207.618 66.4303 207.357C66.631 207.091 66.7617 206.801 66.8223 206.489C66.8923 206.255 66.9297 205.996 66.9343 205.712C66.9437 205.422 66.9483 205.201 66.9483 205.047L67.3823 205.236C66.9763 205.292 66.5773 205.345 66.1853 205.397C65.7933 205.448 65.4223 205.504 65.0723 205.565C64.7223 205.621 64.4073 205.688 64.1273 205.768C63.922 205.833 63.7283 205.917 63.5463 206.02C63.369 206.122 63.2243 206.255 63.1123 206.419C63.005 206.577 62.9513 206.776 62.9513 207.014C62.9513 207.219 63.0027 207.415 63.1053 207.602C63.2127 207.788 63.376 207.94 63.5953 208.057C63.8193 208.173 64.111 208.232 64.4703 208.232ZM72.8633 209.268C71.9627 209.268 71.223 209.072 70.6443 208.68C70.0703 208.283 69.718 207.73 69.5873 207.021L70.8613 206.818C70.964 207.228 71.1997 207.555 71.5683 207.798C71.937 208.036 72.3943 208.155 72.9403 208.155C73.4583 208.155 73.8643 208.047 74.1583 207.833C74.4523 207.618 74.5993 207.326 74.5993 206.958C74.5993 206.743 74.5503 206.57 74.4523 206.44C74.3543 206.304 74.1513 206.178 73.8433 206.062C73.54 205.945 73.0803 205.805 72.4643 205.642C71.797 205.464 71.272 205.28 70.8893 205.089C70.5067 204.897 70.2337 204.676 70.0703 204.424C69.907 204.172 69.8253 203.866 69.8253 203.507C69.8253 203.063 69.9467 202.676 70.1893 202.345C70.432 202.009 70.7703 201.75 71.2043 201.568C71.643 201.386 72.1517 201.295 72.7303 201.295C73.3043 201.295 73.8177 201.386 74.2703 201.568C74.723 201.75 75.087 202.009 75.3623 202.345C75.6423 202.676 75.808 203.063 75.8593 203.507L74.5853 203.738C74.5247 203.332 74.3287 203.012 73.9973 202.779C73.6707 202.545 73.2483 202.422 72.7303 202.408C72.2403 202.389 71.8413 202.475 71.5333 202.667C71.23 202.858 71.0783 203.117 71.0783 203.444C71.0783 203.626 71.1343 203.782 71.2463 203.913C71.363 204.043 71.5753 204.167 71.8833 204.284C72.196 204.4 72.6487 204.533 73.2413 204.683C73.9087 204.851 74.4337 205.035 74.8163 205.236C75.2037 205.432 75.479 205.665 75.6423 205.936C75.8057 206.202 75.8873 206.531 75.8873 206.923C75.8873 207.651 75.619 208.225 75.0823 208.645C74.5457 209.06 73.806 209.268 72.8633 209.268ZM80.2872 209.268C79.3865 209.268 78.6468 209.072 78.0682 208.68C77.4942 208.283 77.1418 207.73 77.0112 207.021L78.2852 206.818C78.3878 207.228 78.6235 207.555 78.9922 207.798C79.3608 208.036 79.8182 208.155 80.3642 208.155C80.8822 208.155 81.2882 208.047 81.5822 207.833C81.8762 207.618 82.0232 207.326 82.0232 206.958C82.0232 206.743 81.9742 206.57 81.8762 206.44C81.7782 206.304 81.5752 206.178 81.2672 206.062C80.9638 205.945 80.5042 205.805 79.8882 205.642C79.2208 205.464 78.6958 205.28 78.3132 205.089C77.9305 204.897 77.6575 204.676 77.4942 204.424C77.3308 204.172 77.2492 203.866 77.2492 203.507C77.2492 203.063 77.3705 202.676 77.6132 202.345C77.8558 202.009 78.1942 201.75 78.6282 201.568C79.0668 201.386 79.5755 201.295 80.1542 201.295C80.7282 201.295 81.2415 201.386 81.6942 201.568C82.1468 201.75 82.5108 202.009 82.7862 202.345C83.0662 202.676 83.2318 203.063 83.2832 203.507L82.0092 203.738C81.9485 203.332 81.7525 203.012 81.4212 202.779C81.0945 202.545 80.6722 202.422 80.1542 202.408C79.6642 202.389 79.2652 202.475 78.9572 202.667C78.6538 202.858 78.5022 203.117 78.5022 203.444C78.5022 203.626 78.5582 203.782 78.6702 203.913C78.7868 204.043 78.9992 204.167 79.3072 204.284C79.6198 204.4 80.0725 204.533 80.6652 204.683C81.3325 204.851 81.8575 205.035 82.2402 205.236C82.6275 205.432 82.9028 205.665 83.0662 205.936C83.2295 206.202 83.3112 206.531 83.3112 206.923C83.3112 207.651 83.0428 208.225 82.5062 208.645C81.9695 209.06 81.2298 209.268 80.2872 209.268ZM86.1916 209.065L83.8816 201.498L85.1206 201.505L86.8076 207.035L88.5086 201.505H89.6076L91.3016 207.035L92.9956 201.505H94.2276L91.9176 209.065H90.8816L89.0546 203.318L87.2276 209.065H86.1916ZM98.4383 209.275C97.6869 209.275 97.0383 209.104 96.4923 208.764C95.9509 208.423 95.5333 207.952 95.2393 207.35C94.9453 206.748 94.7983 206.057 94.7983 205.278C94.7983 204.484 94.9476 203.789 95.2463 203.192C95.5449 202.594 95.9673 202.13 96.5133 201.799C97.0593 201.463 97.7009 201.295 98.4383 201.295C99.1943 201.295 99.8453 201.465 100.391 201.806C100.937 202.142 101.355 202.611 101.644 203.213C101.938 203.81 102.085 204.498 102.085 205.278C102.085 206.066 101.938 206.762 101.644 207.364C101.35 207.961 100.93 208.43 100.384 208.771C99.8383 209.107 99.1896 209.275 98.4383 209.275ZM98.4383 208.092C99.2223 208.092 99.8056 207.83 100.188 207.308C100.571 206.785 100.762 206.108 100.762 205.278C100.762 204.424 100.569 203.745 100.181 203.241C99.7939 202.732 99.2129 202.478 98.4383 202.478C97.9109 202.478 97.4769 202.597 97.1363 202.835C96.7956 203.073 96.5413 203.402 96.3733 203.822C96.2053 204.242 96.1213 204.727 96.1213 205.278C96.1213 206.127 96.3173 206.808 96.7093 207.322C97.1013 207.835 97.6776 208.092 98.4383 208.092ZM103.626 209.065V201.505H104.739V203.332L104.557 203.094C104.646 202.86 104.76 202.646 104.9 202.45C105.045 202.254 105.206 202.093 105.383 201.967C105.579 201.808 105.801 201.687 106.048 201.603C106.296 201.519 106.548 201.47 106.804 201.456C107.061 201.437 107.301 201.453 107.525 201.505V202.674C107.264 202.604 106.977 202.585 106.664 202.618C106.352 202.65 106.062 202.765 105.796 202.961C105.554 203.133 105.365 203.343 105.229 203.591C105.099 203.838 105.008 204.106 104.956 204.396C104.905 204.68 104.879 204.972 104.879 205.271V209.065H103.626ZM111.68 209.275C110.976 209.275 110.371 209.1 109.867 208.75C109.363 208.395 108.974 207.917 108.698 207.315C108.428 206.713 108.292 206.034 108.292 205.278C108.292 204.522 108.428 203.843 108.698 203.241C108.974 202.639 109.363 202.165 109.867 201.82C110.371 201.47 110.973 201.295 111.673 201.295C112.387 201.295 112.987 201.467 113.472 201.813C113.958 202.158 114.324 202.632 114.571 203.234C114.823 203.836 114.949 204.517 114.949 205.278C114.949 206.029 114.823 206.708 114.571 207.315C114.324 207.917 113.958 208.395 113.472 208.75C112.987 209.1 112.39 209.275 111.68 209.275ZM111.834 208.134C112.343 208.134 112.761 208.012 113.087 207.77C113.414 207.522 113.654 207.184 113.808 206.755C113.967 206.321 114.046 205.828 114.046 205.278C114.046 204.718 113.967 204.225 113.808 203.801C113.654 203.371 113.416 203.038 113.094 202.8C112.772 202.557 112.364 202.436 111.869 202.436C111.356 202.436 110.931 202.562 110.595 202.814C110.264 203.066 110.017 203.406 109.853 203.836C109.695 204.265 109.615 204.746 109.615 205.278C109.615 205.814 109.697 206.3 109.86 206.734C110.024 207.163 110.269 207.504 110.595 207.756C110.927 208.008 111.34 208.134 111.834 208.134ZM114.046 209.065V203.5H113.906V198.985H115.159V209.065H114.046Z" fill="#ABABB5"/>
<rect x="5.00391" y="183.565" width="299" height="41" rx="7.5" stroke="#ABABB5"/>
<path d="M5.34391 173V164.36H8.83591C8.91991 164.36 9.02391 164.364 9.14791 164.372C9.27191 164.376 9.38991 164.388 9.50191 164.408C9.98191 164.484 10.3819 164.648 10.7019 164.9C11.0259 165.152 11.2679 165.47 11.4279 165.854C11.5879 166.238 11.6679 166.662 11.6679 167.126C11.6679 167.594 11.5879 168.02 11.4279 168.404C11.2679 168.788 11.0259 169.106 10.7019 169.358C10.3819 169.61 9.98191 169.774 9.50191 169.85C9.38991 169.866 9.26991 169.878 9.14191 169.886C9.01791 169.894 8.91591 169.898 8.83591 169.898H6.59791V173H5.34391ZM6.59791 168.71H8.78791C8.86791 168.71 8.95591 168.706 9.05191 168.698C9.15191 168.69 9.24591 168.676 9.33391 168.656C9.58991 168.596 9.79591 168.486 9.95191 168.326C10.1079 168.162 10.2199 167.974 10.2879 167.762C10.3559 167.55 10.3899 167.338 10.3899 167.126C10.3899 166.914 10.3559 166.704 10.2879 166.496C10.2199 166.284 10.1079 166.098 9.95191 165.938C9.79591 165.774 9.58991 165.662 9.33391 165.602C9.24591 165.578 9.15191 165.562 9.05191 165.554C8.95591 165.546 8.86791 165.542 8.78791 165.542H6.59791V168.71ZM14.4981 173.18C14.0181 173.18 13.6161 173.092 13.2921 172.916C12.9681 172.736 12.7221 172.5 12.5541 172.208C12.3901 171.912 12.3081 171.588 12.3081 171.236C12.3081 170.908 12.3661 170.62 12.4821 170.372C12.5981 170.124 12.7701 169.914 12.9981 169.742C13.2261 169.566 13.5061 169.424 13.8381 169.316C14.1261 169.232 14.4521 169.158 14.8161 169.094C15.1801 169.03 15.5621 168.97 15.9621 168.914C16.3661 168.858 16.7661 168.802 17.1621 168.746L16.7061 168.998C16.7141 168.49 16.6061 168.114 16.3821 167.87C16.1621 167.622 15.7821 167.498 15.2421 167.498C14.9021 167.498 14.5901 167.578 14.3061 167.738C14.0221 167.894 13.8241 168.154 13.7121 168.518L12.5421 168.158C12.7021 167.602 13.0061 167.16 13.4541 166.832C13.9061 166.504 14.5061 166.34 15.2541 166.34C15.8341 166.34 16.3381 166.44 16.7661 166.64C17.1981 166.836 17.5141 167.148 17.7141 167.576C17.8181 167.788 17.8821 168.012 17.9061 168.248C17.9301 168.484 17.9421 168.738 17.9421 169.01V173H16.8321V171.518L17.0481 171.71C16.7801 172.206 16.4381 172.576 16.0221 172.82C15.6101 173.06 15.1021 173.18 14.4981 173.18ZM14.7201 172.154C15.0761 172.154 15.3821 172.092 15.6381 171.968C15.8941 171.84 16.1001 171.678 16.2561 171.482C16.4121 171.286 16.5141 171.082 16.5621 170.87C16.6301 170.678 16.6681 170.462 16.6761 170.222C16.6881 169.982 16.6941 169.79 16.6941 169.646L17.1021 169.796C16.7061 169.856 16.3461 169.91 16.0221 169.958C15.6981 170.006 15.4041 170.054 15.1401 170.102C14.8801 170.146 14.6481 170.2 14.4441 170.264C14.2721 170.324 14.1181 170.396 13.9821 170.48C13.8501 170.564 13.7441 170.666 13.6641 170.786C13.5881 170.906 13.5501 171.052 13.5501 171.224C13.5501 171.392 13.5921 171.548 13.6761 171.692C13.7601 171.832 13.8881 171.944 14.0601 172.028C14.2321 172.112 14.4521 172.154 14.7201 172.154ZM21.9782 173.174C21.1902 173.174 20.5482 173 20.0522 172.652C19.5562 172.304 19.2522 171.814 19.1402 171.182L20.4242 170.984C20.5042 171.32 20.6882 171.586 20.9762 171.782C21.2682 171.974 21.6302 172.07 22.0622 172.07C22.4542 172.07 22.7602 171.99 22.9802 171.83C23.2042 171.67 23.3162 171.45 23.3162 171.17C23.3162 171.006 23.2762 170.874 23.1962 170.774C23.1202 170.67 22.9582 170.572 22.7102 170.48C22.4622 170.388 22.0842 170.274 21.5762 170.138C21.0202 169.994 20.5782 169.84 20.2502 169.676C19.9262 169.508 19.6942 169.314 19.5542 169.094C19.4182 168.87 19.3502 168.6 19.3502 168.284C19.3502 167.892 19.4542 167.55 19.6622 167.258C19.8702 166.966 20.1622 166.74 20.5382 166.58C20.9182 166.42 21.3622 166.34 21.8702 166.34C22.3662 166.34 22.8082 166.418 23.1962 166.574C23.5842 166.73 23.8982 166.952 24.1382 167.24C24.3782 167.524 24.5222 167.858 24.5702 168.242L23.2862 168.476C23.2422 168.164 23.0962 167.918 22.8482 167.738C22.6002 167.558 22.2782 167.46 21.8822 167.444C21.5022 167.428 21.1942 167.492 20.9582 167.636C20.7222 167.776 20.6042 167.97 20.6042 168.218C20.6042 168.362 20.6482 168.484 20.7362 168.584C20.8282 168.684 21.0042 168.78 21.2642 168.872C21.5242 168.964 21.9082 169.074 22.4162 169.202C22.9602 169.342 23.3922 169.498 23.7122 169.67C24.0322 169.838 24.2602 170.04 24.3962 170.276C24.5362 170.508 24.6062 170.79 24.6062 171.122C24.6062 171.762 24.3722 172.264 23.9042 172.628C23.4402 172.992 22.7982 173.174 21.9782 173.174ZM28.4118 173.174C27.6238 173.174 26.9818 173 26.4858 172.652C25.9898 172.304 25.6858 171.814 25.5738 171.182L26.8577 170.984C26.9378 171.32 27.1218 171.586 27.4098 171.782C27.7018 171.974 28.0638 172.07 28.4958 172.07C28.8878 172.07 29.1938 171.99 29.4138 171.83C29.6378 171.67 29.7498 171.45 29.7498 171.17C29.7498 171.006 29.7098 170.874 29.6298 170.774C29.5538 170.67 29.3918 170.572 29.1438 170.48C28.8958 170.388 28.5178 170.274 28.0098 170.138C27.4538 169.994 27.0118 169.84 26.6838 169.676C26.3598 169.508 26.1278 169.314 25.9878 169.094C25.8518 168.87 25.7838 168.6 25.7838 168.284C25.7838 167.892 25.8878 167.55 26.0958 167.258C26.3038 166.966 26.5958 166.74 26.9718 166.58C27.3518 166.42 27.7958 166.34 28.3038 166.34C28.7998 166.34 29.2418 166.418 29.6298 166.574C30.0178 166.73 30.3318 166.952 30.5718 167.24C30.8118 167.524 30.9558 167.858 31.0038 168.242L29.7198 168.476C29.6758 168.164 29.5298 167.918 29.2818 167.738C29.0338 167.558 28.7118 167.46 28.3158 167.444C27.9358 167.428 27.6278 167.492 27.3918 167.636C27.1558 167.776 27.0378 167.97 27.0378 168.218C27.0378 168.362 27.0818 168.484 27.1698 168.584C27.2618 168.684 27.4378 168.78 27.6978 168.872C27.9578 168.964 28.3418 169.074 28.8498 169.202C29.3938 169.342 29.8258 169.498 30.1458 169.67C30.4658 169.838 30.6938 170.04 30.8298 170.276C30.9698 170.508 31.0398 170.79 31.0398 171.122C31.0398 171.762 30.8058 172.264 30.3378 172.628C29.8738 172.992 29.2318 173.174 28.4118 173.174ZM33.513 173L31.533 166.514L32.775 166.52L34.131 170.966L35.499 166.52H36.579L37.947 170.966L39.303 166.52H40.539L38.559 173H37.551L36.039 168.308L34.521 173H33.513ZM44.1931 173.18C43.5451 173.18 42.9831 173.034 42.5071 172.742C42.0311 172.45 41.6631 172.048 41.4031 171.536C41.1471 171.02 41.0191 170.426 41.0191 169.754C41.0191 169.078 41.1511 168.484 41.4151 167.972C41.6791 167.456 42.0491 167.056 42.5251 166.772C43.0011 166.484 43.5571 166.34 44.1931 166.34C44.8411 166.34 45.4031 166.486 45.8791 166.778C46.3551 167.07 46.7231 167.472 46.9831 167.984C47.2431 168.496 47.3731 169.086 47.3731 169.754C47.3731 170.43 47.2411 171.026 46.9771 171.542C46.7171 172.054 46.3491 172.456 45.8731 172.748C45.3971 173.036 44.8371 173.18 44.1931 173.18ZM44.1931 171.998C44.8131 171.998 45.2751 171.79 45.5791 171.374C45.8871 170.954 46.0411 170.414 46.0411 169.754C46.0411 169.078 45.8851 168.538 45.5731 168.134C45.2651 167.726 44.8051 167.522 44.1931 167.522C43.7731 167.522 43.4271 167.618 43.1551 167.81C42.8831 167.998 42.6811 168.26 42.5491 168.596C42.4171 168.928 42.3511 169.314 42.3511 169.754C42.3511 170.434 42.5071 170.978 42.8191 171.386C43.1311 171.794 43.5891 171.998 44.1931 171.998ZM48.6916 173V166.52H49.8076V168.092L49.6516 167.888C49.7316 167.68 49.8356 167.49 49.9636 167.318C50.0916 167.142 50.2396 166.998 50.4076 166.886C50.5716 166.766 50.7536 166.674 50.9536 166.61C51.1576 166.542 51.3656 166.502 51.5776 166.49C51.7896 166.474 51.9936 166.484 52.1896 166.52V167.696C51.9776 167.64 51.7416 167.624 51.4816 167.648C51.2256 167.672 50.9896 167.754 50.7736 167.894C50.5696 168.026 50.4076 168.186 50.2876 168.374C50.1716 168.562 50.0876 168.772 50.0356 169.004C49.9836 169.232 49.9576 169.474 49.9576 169.73V173H48.6916ZM55.789 173.18C55.185 173.18 54.663 173.03 54.223 172.73C53.787 172.43 53.449 172.022 53.209 171.506C52.973 170.986 52.855 170.402 52.855 169.754C52.855 169.102 52.975 168.52 53.215 168.008C53.455 167.492 53.795 167.086 54.235 166.79C54.679 166.49 55.205 166.34 55.813 166.34C56.425 166.34 56.939 166.49 57.355 166.79C57.775 167.086 58.091 167.492 58.303 168.008C58.519 168.524 58.627 169.106 58.627 169.754C58.627 170.402 58.519 170.984 58.303 171.5C58.087 172.016 57.769 172.426 57.349 172.73C56.929 173.03 56.409 173.18 55.789 173.18ZM55.963 172.046C56.375 172.046 56.711 171.948 56.971 171.752C57.231 171.556 57.421 171.286 57.541 170.942C57.661 170.598 57.721 170.202 57.721 169.754C57.721 169.306 57.659 168.91 57.535 168.566C57.415 168.222 57.227 167.954 56.971 167.762C56.719 167.57 56.397 167.474 56.005 167.474C55.589 167.474 55.247 167.576 54.979 167.78C54.711 167.984 54.511 168.258 54.379 168.602C54.251 168.946 54.187 169.33 54.187 169.754C54.187 170.182 54.251 170.57 54.379 170.918C54.511 171.262 54.707 171.536 54.967 171.74C55.231 171.944 55.563 172.046 55.963 172.046ZM57.721 173V168.338H57.577V164.36H58.837V173H57.721ZM60.9958 172.16V170.834H62.3218V172.16H60.9958ZM61.0018 168.686V167.36H62.3278V168.686H61.0018Z" fill="#111111"/>
<g filter="url(#filter0_d_1126_9092)">
<rect x="4.50391" y="250" width="300" height="44" rx="8" fill="url(#paint0_linear_1126_9092)"/>
<path d="M130.284 278V266.48H131.956V276.424H137.172V278H130.284ZM143.026 278.24C141.874 278.24 140.892 277.989 140.082 277.488C139.271 276.981 138.65 276.277 138.218 275.376C137.791 274.475 137.578 273.429 137.578 272.24C137.578 271.051 137.791 270.005 138.218 269.104C138.65 268.203 139.271 267.501 140.082 267C140.892 266.493 141.874 266.24 143.026 266.24C144.172 266.24 145.151 266.493 145.962 267C146.778 267.501 147.399 268.203 147.826 269.104C148.252 270.005 148.466 271.051 148.466 272.24C148.466 273.429 148.252 274.475 147.826 275.376C147.399 276.277 146.778 276.981 145.962 277.488C145.151 277.989 144.172 278.24 143.026 278.24ZM143.026 276.648C143.842 276.659 144.519 276.48 145.058 276.112C145.602 275.739 146.01 275.221 146.282 274.56C146.554 273.893 146.69 273.12 146.69 272.24C146.69 271.36 146.554 270.592 146.282 269.936C146.01 269.275 145.602 268.76 145.058 268.392C144.519 268.024 143.842 267.837 143.026 267.832C142.21 267.821 141.53 268 140.986 268.368C140.447 268.736 140.042 269.253 139.77 269.92C139.498 270.587 139.359 271.36 139.354 272.24C139.348 273.12 139.482 273.891 139.754 274.552C140.026 275.208 140.434 275.72 140.978 276.088C141.527 276.456 142.21 276.643 143.026 276.648ZM154.773 278.24C154 278.24 153.288 278.107 152.637 277.84C151.987 277.568 151.421 277.173 150.941 276.656C150.461 276.139 150.088 275.509 149.821 274.768C149.555 274.027 149.421 273.184 149.421 272.24C149.421 270.997 149.648 269.931 150.101 269.04C150.555 268.144 151.184 267.456 151.989 266.976C152.795 266.491 153.723 266.248 154.773 266.248C156.128 266.248 157.208 266.563 158.013 267.192C158.824 267.821 159.376 268.691 159.669 269.8L157.973 270.104C157.739 269.416 157.36 268.867 156.837 268.456C156.315 268.045 155.659 267.837 154.869 267.832C154.053 267.827 153.373 268.008 152.829 268.376C152.291 268.744 151.885 269.261 151.613 269.928C151.341 270.589 151.203 271.36 151.197 272.24C151.192 273.12 151.325 273.891 151.597 274.552C151.869 275.208 152.277 275.72 152.821 276.088C153.371 276.456 154.053 276.643 154.869 276.648C155.525 276.659 156.088 276.539 156.557 276.288C157.032 276.032 157.408 275.659 157.685 275.168C157.963 274.677 158.141 274.075 158.221 273.36H155.981V272.016H159.997C160.008 272.112 160.016 272.24 160.021 272.4C160.027 272.555 160.029 272.653 160.029 272.696C160.029 273.763 159.824 274.715 159.413 275.552C159.003 276.389 158.405 277.048 157.621 277.528C156.837 278.003 155.888 278.24 154.773 278.24ZM164.987 278V266.48H166.659V278H164.987ZM169.061 278V266.48H170.757L176.429 275.04V266.48H178.125V278H176.429L170.757 269.432V278H169.061Z" fill="white"/>
</g>
<path d="M65.8895 336V324.48H69.4975C69.6042 324.48 69.8015 324.483 70.0895 324.488C70.3829 324.493 70.6629 324.515 70.9295 324.552C71.8309 324.664 72.5882 324.987 73.2015 325.52C73.8202 326.053 74.2869 326.731 74.6015 327.552C74.9162 328.368 75.0735 329.264 75.0735 330.24C75.0735 331.221 74.9162 332.123 74.6015 332.944C74.2869 333.76 73.8202 334.435 73.2015 334.968C72.5882 335.496 71.8309 335.816 70.9295 335.928C70.6629 335.965 70.3829 335.987 70.0895 335.992C69.8015 335.997 69.6042 336 69.4975 336H65.8895ZM67.6015 334.408H69.4975C69.6789 334.408 69.8949 334.403 70.1455 334.392C70.3962 334.381 70.6175 334.36 70.8095 334.328C71.3962 334.216 71.8709 333.963 72.2335 333.568C72.6015 333.168 72.8709 332.677 73.0415 332.096C73.2122 331.515 73.2975 330.896 73.2975 330.24C73.2975 329.563 73.2095 328.936 73.0335 328.36C72.8575 327.779 72.5855 327.293 72.2175 326.904C71.8549 326.509 71.3855 326.259 70.8095 326.152C70.6175 326.115 70.3935 326.093 70.1375 326.088C69.8869 326.077 69.6735 326.072 69.4975 326.072H67.6015V334.408ZM80.6884 336.24C79.8244 336.24 79.0751 336.045 78.4404 335.656C77.8057 335.267 77.3151 334.731 76.9684 334.048C76.6271 333.36 76.4564 332.568 76.4564 331.672C76.4564 330.771 76.6324 329.979 76.9844 329.296C77.3364 328.608 77.8297 328.075 78.4644 327.696C79.0991 327.312 79.8404 327.12 80.6884 327.12C81.5524 327.12 82.3017 327.315 82.9364 327.704C83.5711 328.093 84.0617 328.629 84.4084 329.312C84.7551 329.995 84.9284 330.781 84.9284 331.672C84.9284 332.573 84.7524 333.368 84.4004 334.056C84.0537 334.739 83.5631 335.275 82.9284 335.664C82.2937 336.048 81.5471 336.24 80.6884 336.24ZM80.6884 334.664C81.5151 334.664 82.1311 334.387 82.5364 333.832C82.9471 333.272 83.1524 332.552 83.1524 331.672C83.1524 330.771 82.9444 330.051 82.5284 329.512C82.1177 328.968 81.5044 328.696 80.6884 328.696C80.1284 328.696 79.6671 328.824 79.3044 329.08C78.9417 329.331 78.6724 329.68 78.4964 330.128C78.3204 330.571 78.2324 331.085 78.2324 331.672C78.2324 332.579 78.4404 333.304 78.8564 333.848C79.2724 334.392 79.8831 334.664 80.6884 334.664ZM92.7504 336V331.752C92.7504 331.416 92.7211 331.072 92.6624 330.72C92.6091 330.363 92.5024 330.032 92.3424 329.728C92.1877 329.424 91.9664 329.179 91.6784 328.992C91.3957 328.805 91.0251 328.712 90.5664 328.712C90.2677 328.712 89.9851 328.763 89.7184 328.864C89.4517 328.96 89.2171 329.117 89.0144 329.336C88.8171 329.555 88.6597 329.843 88.5424 330.2C88.4304 330.557 88.3744 330.992 88.3744 331.504L87.3344 331.112C87.3344 330.328 87.4811 329.637 87.7744 329.04C88.0677 328.437 88.4891 327.968 89.0384 327.632C89.5877 327.296 90.2517 327.128 91.0304 327.128C91.6277 327.128 92.1291 327.224 92.5344 327.416C92.9397 327.608 93.2677 327.861 93.5184 328.176C93.7744 328.485 93.9691 328.824 94.1024 329.192C94.2357 329.56 94.3264 329.92 94.3744 330.272C94.4224 330.624 94.4464 330.933 94.4464 331.2V336H92.7504ZM86.6784 336V327.36H88.1744V329.856H88.3744V336H86.6784ZM96.0495 328.32L96.1535 327.576C96.3829 327.592 96.5615 327.549 96.6895 327.448C96.8175 327.347 96.9029 327.205 96.9455 327.024C96.9882 326.843 96.9962 326.637 96.9695 326.408H96.0495V324.48H97.8175V326.568C97.8175 327.197 97.6655 327.672 97.3615 327.992C97.0629 328.312 96.6255 328.421 96.0495 328.32ZM105.052 336C104.508 336.107 103.975 336.152 103.452 336.136C102.93 336.12 102.463 336.019 102.052 335.832C101.642 335.645 101.332 335.352 101.124 334.952C100.938 334.595 100.836 334.232 100.82 333.864C100.81 333.491 100.804 333.069 100.804 332.6V324.96H102.484V332.52C102.484 332.867 102.487 333.168 102.492 333.424C102.503 333.68 102.559 333.896 102.66 334.072C102.852 334.403 103.156 334.592 103.572 334.64C103.994 334.683 104.487 334.664 105.052 334.584V336ZM99.1483 328.704V327.36H105.052V328.704H99.1483ZM116.141 336V331.752C116.141 331.416 116.112 331.072 116.053 330.72C116 330.363 115.893 330.032 115.733 329.728C115.578 329.424 115.357 329.179 115.069 328.992C114.786 328.805 114.416 328.712 113.957 328.712C113.658 328.712 113.376 328.763 113.109 328.864C112.842 328.96 112.608 329.117 112.405 329.336C112.208 329.555 112.05 329.843 111.933 330.2C111.821 330.557 111.765 330.992 111.765 331.504L110.725 331.112C110.725 330.328 110.872 329.637 111.165 329.04C111.458 328.437 111.88 327.968 112.429 327.632C112.978 327.296 113.642 327.128 114.421 327.128C115.018 327.128 115.52 327.224 115.925 327.416C116.33 327.608 116.658 327.861 116.909 328.176C117.165 328.485 117.36 328.824 117.493 329.192C117.626 329.56 117.717 329.92 117.765 330.272C117.813 330.624 117.837 330.933 117.837 331.2V336H116.141ZM110.069 336V324.48H111.565V330.696H111.765V336H110.069ZM122.361 336.24C121.721 336.24 121.185 336.123 120.753 335.888C120.321 335.648 119.993 335.333 119.769 334.944C119.55 334.549 119.441 334.117 119.441 333.648C119.441 333.211 119.518 332.827 119.673 332.496C119.827 332.165 120.057 331.885 120.361 331.656C120.665 331.421 121.038 331.232 121.481 331.088C121.865 330.976 122.299 330.877 122.785 330.792C123.27 330.707 123.779 330.627 124.313 330.552C124.851 330.477 125.385 330.403 125.913 330.328L125.305 330.664C125.315 329.987 125.171 329.485 124.873 329.16C124.579 328.829 124.073 328.664 123.353 328.664C122.899 328.664 122.483 328.771 122.105 328.984C121.726 329.192 121.462 329.539 121.313 330.024L119.753 329.544C119.966 328.803 120.371 328.213 120.969 327.776C121.571 327.339 122.371 327.12 123.369 327.12C124.142 327.12 124.814 327.253 125.385 327.52C125.961 327.781 126.382 328.197 126.649 328.768C126.787 329.051 126.873 329.349 126.905 329.664C126.937 329.979 126.953 330.317 126.953 330.68V336H125.473V334.024L125.761 334.28C125.403 334.941 124.947 335.435 124.393 335.76C123.843 336.08 123.166 336.24 122.361 336.24ZM122.657 334.872C123.131 334.872 123.539 334.789 123.881 334.624C124.222 334.453 124.497 334.237 124.705 333.976C124.913 333.715 125.049 333.443 125.113 333.16C125.203 332.904 125.254 332.616 125.265 332.296C125.281 331.976 125.289 331.72 125.289 331.528L125.833 331.728C125.305 331.808 124.825 331.88 124.393 331.944C123.961 332.008 123.569 332.072 123.217 332.136C122.87 332.195 122.561 332.267 122.289 332.352C122.059 332.432 121.854 332.528 121.673 332.64C121.497 332.752 121.355 332.888 121.249 333.048C121.147 333.208 121.097 333.403 121.097 333.632C121.097 333.856 121.153 334.064 121.265 334.256C121.377 334.443 121.547 334.592 121.777 334.704C122.006 334.816 122.299 334.872 122.657 334.872ZM131.054 336L127.918 327.36H129.606L131.902 333.904L134.198 327.36H135.886L132.75 336H131.054ZM140.847 336.24C139.988 336.24 139.233 336.053 138.583 335.68C137.937 335.301 137.433 334.776 137.071 334.104C136.713 333.427 136.535 332.643 136.535 331.752C136.535 330.808 136.711 329.989 137.063 329.296C137.42 328.603 137.916 328.067 138.551 327.688C139.185 327.309 139.924 327.12 140.767 327.12C141.647 327.12 142.396 327.325 143.015 327.736C143.633 328.141 144.095 328.72 144.399 329.472C144.708 330.224 144.831 331.117 144.767 332.152H143.095V331.544C143.084 330.541 142.892 329.8 142.519 329.32C142.151 328.84 141.588 328.6 140.831 328.6C139.993 328.6 139.364 328.864 138.943 329.392C138.521 329.92 138.311 330.683 138.311 331.68C138.311 332.629 138.521 333.365 138.943 333.888C139.364 334.405 139.972 334.664 140.767 334.664C141.289 334.664 141.74 334.547 142.119 334.312C142.503 334.072 142.801 333.731 143.015 333.288L144.655 333.808C144.319 334.581 143.809 335.181 143.127 335.608C142.444 336.029 141.684 336.24 140.847 336.24ZM137.767 332.152V330.848H143.935V332.152H137.767ZM152.205 336.24C151.565 336.24 151.029 336.123 150.597 335.888C150.165 335.648 149.837 335.333 149.613 334.944C149.394 334.549 149.285 334.117 149.285 333.648C149.285 333.211 149.362 332.827 149.517 332.496C149.671 332.165 149.901 331.885 150.205 331.656C150.509 331.421 150.882 331.232 151.325 331.088C151.709 330.976 152.143 330.877 152.629 330.792C153.114 330.707 153.623 330.627 154.157 330.552C154.695 330.477 155.229 330.403 155.757 330.328L155.149 330.664C155.159 329.987 155.015 329.485 154.717 329.16C154.423 328.829 153.917 328.664 153.197 328.664C152.743 328.664 152.327 328.771 151.949 328.984C151.57 329.192 151.306 329.539 151.157 330.024L149.597 329.544C149.81 328.803 150.215 328.213 150.813 327.776C151.415 327.339 152.215 327.12 153.213 327.12C153.986 327.12 154.658 327.253 155.229 327.52C155.805 327.781 156.226 328.197 156.493 328.768C156.631 329.051 156.717 329.349 156.749 329.664C156.781 329.979 156.797 330.317 156.797 330.68V336H155.317V334.024L155.605 334.28C155.247 334.941 154.791 335.435 154.237 335.76C153.687 336.08 153.01 336.24 152.205 336.24ZM152.501 334.872C152.975 334.872 153.383 334.789 153.725 334.624C154.066 334.453 154.341 334.237 154.549 333.976C154.757 333.715 154.893 333.443 154.957 333.16C155.047 332.904 155.098 332.616 155.109 332.296C155.125 331.976 155.133 331.72 155.133 331.528L155.677 331.728C155.149 331.808 154.669 331.88 154.237 331.944C153.805 332.008 153.413 332.072 153.061 332.136C152.714 332.195 152.405 332.267 152.133 332.352C151.903 332.432 151.698 332.528 151.517 332.64C151.341 332.752 151.199 332.888 151.093 333.048C150.991 333.208 150.941 333.403 150.941 333.632C150.941 333.856 150.997 334.064 151.109 334.256C151.221 334.443 151.391 334.592 151.621 334.704C151.85 334.816 152.143 334.872 152.501 334.872ZM164.938 336V331.752C164.938 331.416 164.909 331.072 164.85 330.72C164.797 330.363 164.69 330.032 164.53 329.728C164.375 329.424 164.154 329.179 163.866 328.992C163.583 328.805 163.213 328.712 162.754 328.712C162.455 328.712 162.173 328.763 161.906 328.864C161.639 328.96 161.405 329.117 161.202 329.336C161.005 329.555 160.847 329.843 160.73 330.2C160.618 330.557 160.562 330.992 160.562 331.504L159.522 331.112C159.522 330.328 159.669 329.637 159.962 329.04C160.255 328.437 160.677 327.968 161.226 327.632C161.775 327.296 162.439 327.128 163.218 327.128C163.815 327.128 164.317 327.224 164.722 327.416C165.127 327.608 165.455 327.861 165.706 328.176C165.962 328.485 166.157 328.824 166.29 329.192C166.423 329.56 166.514 329.92 166.562 330.272C166.61 330.624 166.634 330.933 166.634 331.2V336H164.938ZM158.866 336V327.36H160.362V329.856H160.562V336H158.866ZM174.361 336.24C173.721 336.24 173.185 336.123 172.753 335.888C172.321 335.648 171.993 335.333 171.769 334.944C171.55 334.549 171.441 334.117 171.441 333.648C171.441 333.211 171.518 332.827 171.673 332.496C171.827 332.165 172.057 331.885 172.361 331.656C172.665 331.421 173.038 331.232 173.481 331.088C173.865 330.976 174.299 330.877 174.785 330.792C175.27 330.707 175.779 330.627 176.313 330.552C176.851 330.477 177.385 330.403 177.913 330.328L177.305 330.664C177.315 329.987 177.171 329.485 176.873 329.16C176.579 328.829 176.073 328.664 175.353 328.664C174.899 328.664 174.483 328.771 174.105 328.984C173.726 329.192 173.462 329.539 173.313 330.024L171.753 329.544C171.966 328.803 172.371 328.213 172.969 327.776C173.571 327.339 174.371 327.12 175.369 327.12C176.142 327.12 176.814 327.253 177.385 327.52C177.961 327.781 178.382 328.197 178.649 328.768C178.787 329.051 178.873 329.349 178.905 329.664C178.937 329.979 178.953 330.317 178.953 330.68V336H177.473V334.024L177.761 334.28C177.403 334.941 176.947 335.435 176.393 335.76C175.843 336.08 175.166 336.24 174.361 336.24ZM174.657 334.872C175.131 334.872 175.539 334.789 175.881 334.624C176.222 334.453 176.497 334.237 176.705 333.976C176.913 333.715 177.049 333.443 177.113 333.16C177.203 332.904 177.254 332.616 177.265 332.296C177.281 331.976 177.289 331.72 177.289 331.528L177.833 331.728C177.305 331.808 176.825 331.88 176.393 331.944C175.961 332.008 175.569 332.072 175.217 332.136C174.87 332.195 174.561 332.267 174.289 332.352C174.059 332.432 173.854 332.528 173.673 332.64C173.497 332.752 173.355 332.888 173.249 333.048C173.147 333.208 173.097 333.403 173.097 333.632C173.097 333.856 173.153 334.064 173.265 334.256C173.377 334.443 173.547 334.592 173.777 334.704C174.006 334.816 174.299 334.872 174.657 334.872ZM184.726 336.24C183.841 336.24 183.089 336.043 182.47 335.648C181.851 335.253 181.377 334.712 181.046 334.024C180.721 333.336 180.555 332.555 180.55 331.68C180.555 330.789 180.726 330.003 181.062 329.32C181.398 328.632 181.878 328.093 182.502 327.704C183.126 327.315 183.875 327.12 184.75 327.12C185.694 327.12 186.499 327.355 187.166 327.824C187.838 328.293 188.281 328.936 188.494 329.752L186.83 330.232C186.665 329.747 186.393 329.371 186.014 329.104C185.641 328.832 185.211 328.696 184.726 328.696C184.177 328.696 183.726 328.827 183.374 329.088C183.022 329.344 182.761 329.696 182.59 330.144C182.419 330.592 182.331 331.104 182.326 331.68C182.331 332.571 182.534 333.291 182.934 333.84C183.339 334.389 183.937 334.664 184.726 334.664C185.265 334.664 185.699 334.541 186.03 334.296C186.366 334.045 186.622 333.688 186.798 333.224L188.494 333.624C188.211 334.467 187.745 335.115 187.094 335.568C186.443 336.016 185.654 336.24 184.726 336.24ZM193.586 336.24C192.7 336.24 191.948 336.043 191.33 335.648C190.711 335.253 190.236 334.712 189.906 334.024C189.58 333.336 189.415 332.555 189.41 331.68C189.415 330.789 189.586 330.003 189.922 329.32C190.258 328.632 190.738 328.093 191.362 327.704C191.986 327.315 192.735 327.12 193.61 327.12C194.554 327.12 195.359 327.355 196.026 327.824C196.698 328.293 197.14 328.936 197.354 329.752L195.69 330.232C195.524 329.747 195.252 329.371 194.874 329.104C194.5 328.832 194.071 328.696 193.586 328.696C193.036 328.696 192.586 328.827 192.234 329.088C191.882 329.344 191.62 329.696 191.45 330.144C191.279 330.592 191.191 331.104 191.186 331.68C191.191 332.571 191.394 333.291 191.794 333.84C192.199 334.389 192.796 334.664 193.586 334.664C194.124 334.664 194.559 334.541 194.89 334.296C195.226 334.045 195.482 333.688 195.658 333.224L197.354 333.624C197.071 334.467 196.604 335.115 195.954 335.568C195.303 336.016 194.514 336.24 193.586 336.24ZM202.501 336.24C201.637 336.24 200.888 336.045 200.253 335.656C199.618 335.267 199.128 334.731 198.781 334.048C198.44 333.36 198.269 332.568 198.269 331.672C198.269 330.771 198.445 329.979 198.797 329.296C199.149 328.608 199.642 328.075 200.277 327.696C200.912 327.312 201.653 327.12 202.501 327.12C203.365 327.12 204.114 327.315 204.749 327.704C205.384 328.093 205.874 328.629 206.221 329.312C206.568 329.995 206.741 330.781 206.741 331.672C206.741 332.573 206.565 333.368 206.213 334.056C205.866 334.739 205.376 335.275 204.741 335.664C204.106 336.048 203.36 336.24 202.501 336.24ZM202.501 334.664C203.328 334.664 203.944 334.387 204.349 333.832C204.76 333.272 204.965 332.552 204.965 331.672C204.965 330.771 204.757 330.051 204.341 329.512C203.93 328.968 203.317 328.696 202.501 328.696C201.941 328.696 201.48 328.824 201.117 329.08C200.754 329.331 200.485 329.68 200.309 330.128C200.133 330.571 200.045 331.085 200.045 331.672C200.045 332.579 200.253 333.304 200.669 333.848C201.085 334.392 201.696 334.664 202.501 334.664ZM211.755 336.232C211.158 336.232 210.656 336.136 210.251 335.944C209.846 335.752 209.515 335.501 209.259 335.192C209.008 334.877 208.816 334.536 208.683 334.168C208.55 333.8 208.459 333.44 208.411 333.088C208.363 332.736 208.339 332.427 208.339 332.16V327.36H210.035V331.608C210.035 331.944 210.062 332.291 210.115 332.648C210.174 333 210.28 333.328 210.435 333.632C210.595 333.936 210.816 334.181 211.099 334.368C211.387 334.555 211.76 334.648 212.219 334.648C212.518 334.648 212.8 334.6 213.067 334.504C213.334 334.403 213.566 334.243 213.763 334.024C213.966 333.805 214.123 333.517 214.235 333.16C214.352 332.803 214.411 332.368 214.411 331.856L215.451 332.248C215.451 333.032 215.304 333.725 215.011 334.328C214.718 334.925 214.296 335.392 213.747 335.728C213.198 336.064 212.534 336.232 211.755 336.232ZM214.611 336V333.504H214.411V327.36H216.099V336H214.611ZM224.407 336V331.752C224.407 331.416 224.377 331.072 224.319 330.72C224.265 330.363 224.159 330.032 223.999 329.728C223.844 329.424 223.623 329.179 223.335 328.992C223.052 328.805 222.681 328.712 222.223 328.712C221.924 328.712 221.641 328.763 221.375 328.864C221.108 328.96 220.873 329.117 220.671 329.336C220.473 329.555 220.316 329.843 220.199 330.2C220.087 330.557 220.031 330.992 220.031 331.504L218.991 331.112C218.991 330.328 219.137 329.637 219.431 329.04C219.724 328.437 220.145 327.968 220.695 327.632C221.244 327.296 221.908 327.128 222.687 327.128C223.284 327.128 223.785 327.224 224.191 327.416C224.596 327.608 224.924 327.861 225.175 328.176C225.431 328.485 225.625 328.824 225.759 329.192C225.892 329.56 225.983 329.92 226.031 330.272C226.079 330.624 226.103 330.933 226.103 331.2V336H224.407ZM218.335 336V327.36H219.831V329.856H220.031V336H218.335ZM233.13 336C232.586 336.107 232.053 336.152 231.53 336.136C231.008 336.12 230.541 336.019 230.13 335.832C229.72 335.645 229.41 335.352 229.202 334.952C229.016 334.595 228.914 334.232 228.898 333.864C228.888 333.491 228.882 333.069 228.882 332.6V324.96H230.562V332.52C230.562 332.867 230.565 333.168 230.57 333.424C230.581 333.68 230.637 333.896 230.738 334.072C230.93 334.403 231.234 334.592 231.65 334.64C232.072 334.683 232.565 334.664 233.13 334.584V336ZM227.226 328.704V327.36H233.13V328.704H227.226ZM240.299 332.872C240.299 332.488 240.328 332.128 240.387 331.792C240.451 331.456 240.568 331.136 240.739 330.832C240.883 330.544 241.051 330.312 241.243 330.136C241.44 329.955 241.654 329.779 241.883 329.608C242.118 329.432 242.363 329.208 242.619 328.936C242.832 328.701 242.974 328.464 243.043 328.224C243.118 327.984 243.155 327.725 243.155 327.448C243.155 327.245 243.131 327.056 243.083 326.88C243.035 326.704 242.955 326.552 242.843 326.424C242.672 326.211 242.456 326.061 242.195 325.976C241.934 325.885 241.662 325.84 241.379 325.84C241.123 325.84 240.878 325.875 240.643 325.944C240.414 326.013 240.222 326.12 240.067 326.264C239.902 326.403 239.779 326.576 239.699 326.784C239.624 326.987 239.59 327.208 239.595 327.448H237.835C237.878 326.947 238.006 326.477 238.219 326.04C238.432 325.603 238.72 325.248 239.083 324.976C239.392 324.731 239.744 324.549 240.139 324.432C240.534 324.309 240.928 324.248 241.323 324.248C241.888 324.248 242.422 324.336 242.923 324.512C243.43 324.688 243.851 324.973 244.187 325.368C244.432 325.645 244.616 325.963 244.739 326.32C244.867 326.672 244.931 327.037 244.931 327.416C244.931 327.923 244.822 328.392 244.603 328.824C244.39 329.256 244.115 329.651 243.779 330.008C243.603 330.195 243.424 330.365 243.243 330.52C243.062 330.669 242.894 330.816 242.739 330.96C242.584 331.104 242.456 331.261 242.355 331.432C242.211 331.677 242.128 331.899 242.107 332.096C242.086 332.288 242.075 332.547 242.075 332.872H240.299ZM240.307 336V334.064H242.075V336H240.307Z" fill="#ABABB5"/>
<line x1="257.254" y1="330.5" x2="305.254" y2="330.5" stroke="#ABABB5"/>
<line x1="3.75391" y1="330.5" x2="51.7539" y2="330.5" stroke="#ABABB5"/>
<rect x="5.00391" y="367" width="299" height="42" rx="7" fill="#F2F2F5"/>
<path d="M128.3 394.24C127.473 394.24 126.727 394.099 126.06 393.816C125.399 393.528 124.852 393.12 124.42 392.592C123.993 392.059 123.716 391.427 123.588 390.696L125.332 390.432C125.508 391.136 125.876 391.685 126.436 392.08C126.996 392.469 127.649 392.664 128.396 392.664C128.86 392.664 129.287 392.592 129.676 392.448C130.065 392.299 130.377 392.088 130.612 391.816C130.852 391.539 130.972 391.208 130.972 390.824C130.972 390.616 130.935 390.432 130.86 390.272C130.791 390.112 130.692 389.973 130.564 389.856C130.441 389.733 130.289 389.629 130.108 389.544C129.932 389.453 129.737 389.376 129.524 389.312L126.572 388.44C126.284 388.355 125.991 388.245 125.692 388.112C125.393 387.973 125.119 387.795 124.868 387.576C124.623 387.352 124.423 387.077 124.268 386.752C124.113 386.421 124.036 386.021 124.036 385.552C124.036 384.843 124.217 384.243 124.58 383.752C124.948 383.256 125.444 382.883 126.068 382.632C126.692 382.376 127.391 382.248 128.164 382.248C128.943 382.259 129.639 382.397 130.252 382.664C130.871 382.931 131.383 383.315 131.788 383.816C132.199 384.312 132.481 384.915 132.636 385.624L130.844 385.928C130.764 385.496 130.593 385.125 130.332 384.816C130.071 384.501 129.751 384.261 129.372 384.096C128.993 383.925 128.583 383.837 128.14 383.832C127.713 383.821 127.321 383.885 126.964 384.024C126.612 384.163 126.329 384.357 126.116 384.608C125.908 384.859 125.804 385.147 125.804 385.472C125.804 385.792 125.897 386.051 126.084 386.248C126.271 386.445 126.5 386.603 126.772 386.72C127.049 386.832 127.324 386.925 127.596 387L129.724 387.6C129.991 387.675 130.292 387.776 130.628 387.904C130.969 388.027 131.297 388.2 131.612 388.424C131.932 388.648 132.196 388.947 132.404 389.32C132.612 389.688 132.716 390.152 132.716 390.712C132.716 391.293 132.599 391.805 132.364 392.248C132.129 392.685 131.807 393.053 131.396 393.352C130.991 393.645 130.521 393.867 129.988 394.016C129.455 394.165 128.892 394.24 128.3 394.24ZM134.581 394V382.48H136.253V394H134.581ZM143.367 394.24C142.594 394.24 141.882 394.107 141.231 393.84C140.58 393.568 140.015 393.173 139.535 392.656C139.055 392.139 138.682 391.509 138.415 390.768C138.148 390.027 138.015 389.184 138.015 388.24C138.015 386.997 138.242 385.931 138.695 385.04C139.148 384.144 139.778 383.456 140.583 382.976C141.388 382.491 142.316 382.248 143.367 382.248C144.722 382.248 145.802 382.563 146.607 383.192C147.418 383.821 147.97 384.691 148.263 385.8L146.567 386.104C146.332 385.416 145.954 384.867 145.431 384.456C144.908 384.045 144.252 383.837 143.463 383.832C142.647 383.827 141.967 384.008 141.423 384.376C140.884 384.744 140.479 385.261 140.207 385.928C139.935 386.589 139.796 387.36 139.791 388.24C139.786 389.12 139.919 389.891 140.191 390.552C140.463 391.208 140.871 391.72 141.415 392.088C141.964 392.456 142.647 392.643 143.463 392.648C144.119 392.659 144.682 392.539 145.151 392.288C145.626 392.032 146.002 391.659 146.279 391.168C146.556 390.677 146.735 390.075 146.815 389.36H144.575V388.016H148.591C148.602 388.112 148.61 388.24 148.615 388.4C148.62 388.555 148.623 388.653 148.623 388.696C148.623 389.763 148.418 390.715 148.007 391.552C147.596 392.389 146.999 393.048 146.215 393.528C145.431 394.003 144.482 394.24 143.367 394.24ZM150.218 394V382.48H151.914L157.586 391.04V382.48H159.282V394H157.586L151.914 385.432V394H150.218ZM169.31 394.24C168.408 394.24 167.611 394.056 166.918 393.688C166.23 393.315 165.691 392.795 165.302 392.128C164.912 391.456 164.718 390.667 164.718 389.76V382.488L166.414 382.48V389.672C166.414 390.163 166.496 390.595 166.662 390.968C166.827 391.341 167.048 391.653 167.326 391.904C167.603 392.155 167.912 392.344 168.254 392.472C168.6 392.6 168.952 392.664 169.31 392.664C169.672 392.664 170.024 392.6 170.366 392.472C170.712 392.339 171.024 392.147 171.302 391.896C171.579 391.645 171.798 391.333 171.958 390.96C172.123 390.587 172.206 390.157 172.206 389.672V382.48H173.902V389.76C173.902 390.661 173.707 391.448 173.318 392.12C172.928 392.792 172.387 393.315 171.694 393.688C171.006 394.056 170.211 394.24 169.31 394.24ZM176.14 394V382.48H180.796C180.908 382.48 181.046 382.485 181.212 382.496C181.377 382.501 181.534 382.517 181.684 382.544C182.324 382.645 182.857 382.864 183.284 383.2C183.716 383.536 184.038 383.96 184.252 384.472C184.465 384.984 184.572 385.549 184.572 386.168C184.572 386.792 184.465 387.36 184.252 387.872C184.038 388.384 183.716 388.808 183.284 389.144C182.857 389.48 182.324 389.699 181.684 389.8C181.534 389.821 181.374 389.837 181.204 389.848C181.038 389.859 180.902 389.864 180.796 389.864H177.812V394H176.14ZM177.812 388.28H180.732C180.838 388.28 180.956 388.275 181.084 388.264C181.217 388.253 181.342 388.235 181.46 388.208C181.801 388.128 182.076 387.981 182.284 387.768C182.492 387.549 182.641 387.299 182.732 387.016C182.822 386.733 182.868 386.451 182.868 386.168C182.868 385.885 182.822 385.605 182.732 385.328C182.641 385.045 182.492 384.797 182.284 384.584C182.076 384.365 181.801 384.216 181.46 384.136C181.342 384.104 181.217 384.083 181.084 384.072C180.956 384.061 180.838 384.056 180.732 384.056H177.812V388.28Z" fill="url(#paint1_linear_1126_9092)"/>
<rect x="5.00391" y="367" width="299" height="42" rx="7" stroke="url(#paint2_linear_1126_9092)" stroke-width="2" stroke-linecap="round"/>
<defs>
<filter id="filter0_d_1126_9092" x="0.503906" y="250" width="308" height="52" filterUnits="userSpaceOnUse" color-interpolation-filters="sRGB">
<feFlood flood-opacity="0" result="BackgroundImageFix"/>
<feColorMatrix in="SourceAlpha" type="matrix" values="0 0 0 0 0 0 0 0 0 0 0 0 0 0 0 0 0 0 127 0" result="hardAlpha"/>
<feOffset dy="4"/>
<feGaussianBlur stdDeviation="2"/>
<feComposite in2="hardAlpha" operator="out"/>
<feColorMatrix type="matrix" values="0 0 0 0 0 0 0 0 0 0 0 0 0 0 0 0 0 0 0.25 0"/>
<feBlend mode="normal" in2="BackgroundImageFix" result="effect1_dropShadow_1126_9092"/>
<feBlend mode="normal" in="SourceGraphic" in2="effect1_dropShadow_1126_9092" result="shape"/>
</filter>
<linearGradient id="paint0_linear_1126_9092" x1="154.504" y1="250" x2="154.504" y2="294" gradientUnits="userSpaceOnUse">
<stop stop-color="#00B4D8"/>
<stop offset="1" stop-color="#0077B6"/>
</linearGradient>
<linearGradient id="paint1_linear_1126_9092" x1="154.504" y1="376" x2="154.504" y2="400" gradientUnits="userSpaceOnUse">
<stop stop-color="#00B4D8"/>
<stop offset="1" stop-color="#0077B6"/>
</linearGradient>
<linearGradient id="paint2_linear_1126_9092" x1="154.504" y1="366" x2="154.504" y2="410" gradientUnits="userSpaceOnUse">
<stop stop-color="#00B4D8"/>
<stop offset="1" stop-color="#0077B6"/>
</linearGradient>
</defs>
</svg>
