<svg width="148" height="74" viewBox="0 0 148 74" fill="none" xmlns="http://www.w3.org/2000/svg">
<g filter="url(#filter0_dd_482_1135)">
<path d="M13.5855 51.6758L4.70547 30.5158H10.9455L16.5855 46.3158L15.2655 46.5558L21.1855 30.5158H27.2655L17.9455 51.6758H13.5855Z" fill="#545454"/>
</g>
<g filter="url(#filter1_dd_482_1135)">
<path d="M33.7067 51.6758V30.5158H39.3867V51.6758H33.7067ZM36.5067 26.1558C35.4134 26.1558 34.5601 25.8891 33.9467 25.3558C33.3334 24.8224 33.0267 24.0624 33.0267 23.0758C33.0267 22.1691 33.3334 21.4358 33.9467 20.8758C34.5867 20.2891 35.4401 19.9958 36.5067 19.9958C37.6001 19.9958 38.4534 20.2758 39.0667 20.8358C39.6801 21.3691 39.9867 22.1158 39.9867 23.0758C39.9867 24.0091 39.6667 24.7558 39.0267 25.3158C38.4134 25.8758 37.5734 26.1558 36.5067 26.1558Z" fill="#545454"/>
</g>
<g filter="url(#filter2_dd_482_1135)">
<path d="M48.1378 51.6758V22.0758H53.8178V51.6758H48.1378Z" fill="#545454"/>
</g>
<g filter="url(#filter3_dd_482_1135)">
<path d="M62.1378 51.6758V22.0758H67.8178V51.6758H62.1378Z" fill="#545454"/>
</g>
<g filter="url(#filter4_dd_482_1135)">
<path d="M84.2327 52.0758C82.4727 52.0758 80.886 51.5958 79.4727 50.6358C78.0593 49.6758 76.9393 48.3691 76.1127 46.7158C75.286 45.0624 74.8727 43.1691 74.8727 41.0358C74.8727 38.9024 75.286 37.0224 76.1127 35.3958C76.966 33.7424 78.1127 32.4491 79.5527 31.5158C80.9927 30.5558 82.6327 30.0758 84.4727 30.0758C85.5127 30.0758 86.4593 30.2358 87.3127 30.5558C88.1927 30.8491 88.9527 31.2624 89.5927 31.7958C90.2593 32.3291 90.8193 32.9424 91.2727 33.6358C91.726 34.3291 92.046 35.0758 92.2327 35.8758L91.0327 35.6758V30.5158H96.6727V51.6758H90.9527V46.5958L92.2327 46.4758C92.0193 47.2224 91.6727 47.9291 91.1927 48.5958C90.7127 49.2624 90.1127 49.8624 89.3927 50.3958C88.6993 50.9024 87.9127 51.3158 87.0327 51.6358C86.1527 51.9291 85.2193 52.0758 84.2327 52.0758ZM85.7927 47.1558C86.8593 47.1558 87.7927 46.9024 88.5927 46.3958C89.3927 45.8891 90.006 45.1824 90.4327 44.2758C90.886 43.3424 91.1127 42.2624 91.1127 41.0358C91.1127 39.8358 90.886 38.7824 90.4327 37.8758C90.006 36.9691 89.3927 36.2624 88.5927 35.7558C87.7927 35.2224 86.8593 34.9558 85.7927 34.9558C84.7527 34.9558 83.8327 35.2224 83.0327 35.7558C82.2593 36.2624 81.646 36.9691 81.1927 37.8758C80.7393 38.7824 80.5127 39.8358 80.5127 41.0358C80.5127 42.2624 80.7393 43.3424 81.1927 44.2758C81.646 45.1824 82.2593 45.8891 83.0327 46.3958C83.8327 46.9024 84.7527 47.1558 85.7927 47.1558Z" fill="#545454"/>
</g>
<g filter="url(#filter5_dd_482_1135)">
<path d="M131.233 52.0758C129.473 52.0758 127.886 51.5958 126.473 50.6358C125.059 49.6758 123.939 48.3691 123.113 46.7158C122.286 45.0624 121.873 43.1691 121.873 41.0358C121.873 38.9024 122.286 37.0224 123.113 35.3958C123.966 33.7424 125.113 32.4491 126.553 31.5158C127.993 30.5558 129.633 30.0758 131.473 30.0758C132.513 30.0758 133.459 30.2358 134.313 30.5558C135.193 30.8491 135.953 31.2624 136.593 31.7958C137.259 32.3291 137.819 32.9424 138.273 33.6358C138.726 34.3291 139.046 35.0758 139.233 35.8758L138.033 35.6758V30.5158H143.673V51.6758H137.953V46.5958L139.233 46.4758C139.019 47.2224 138.673 47.9291 138.193 48.5958C137.713 49.2624 137.113 49.8624 136.393 50.3958C135.699 50.9024 134.913 51.3158 134.033 51.6358C133.153 51.9291 132.219 52.0758 131.233 52.0758ZM132.793 47.1558C133.859 47.1558 134.793 46.9024 135.593 46.3958C136.393 45.8891 137.006 45.1824 137.433 44.2758C137.886 43.3424 138.113 42.2624 138.113 41.0358C138.113 39.8358 137.886 38.7824 137.433 37.8758C137.006 36.9691 136.393 36.2624 135.593 35.7558C134.793 35.2224 133.859 34.9558 132.793 34.9558C131.753 34.9558 130.833 35.2224 130.033 35.7558C129.259 36.2624 128.646 36.9691 128.193 37.8758C127.739 38.7824 127.513 39.8358 127.513 41.0358C127.513 42.2624 127.739 43.3424 128.193 44.2758C128.646 45.1824 129.259 45.8891 130.033 46.3958C130.833 46.9024 131.753 47.1558 132.793 47.1558Z" fill="#545454"/>
</g>
<g filter="url(#filter6_dd_482_1135)">
<path d="M100.294 62.6461L98.953 56.9406C100.296 57.2384 101.416 57.2899 102.311 57.0951C103.207 56.9003 103.923 56.4036 104.461 55.605C105.023 54.8446 105.459 53.7615 105.771 52.3556L110.976 28.8777L117.63 30.3529L112.072 55.4242C111.615 57.4861 110.844 59.1178 109.758 60.3193C108.703 61.5277 107.378 62.3319 105.781 62.7318C104.185 63.1318 102.356 63.1032 100.294 62.6461ZM115.576 24.5385C114.295 24.2545 113.365 23.7205 112.785 22.9363C112.205 22.1522 112.043 21.1822 112.299 20.0262C112.535 18.964 113.084 18.1845 113.948 17.6878C114.85 17.1667 115.926 17.0446 117.176 17.3217C118.457 17.6057 119.384 18.1553 119.957 18.9707C120.537 19.7548 120.702 20.7092 120.453 21.8339C120.211 22.9274 119.642 23.719 118.747 24.2089C117.883 24.7057 116.826 24.8155 115.576 24.5385Z" fill="#545454"/>
</g>
<circle cx="115.792" cy="21.4681" r="5" transform="rotate(10 115.792 21.4681)" fill="url(#paint0_linear_482_1135)"/>
<defs>
<filter id="filter0_dd_482_1135" x="0.705566" y="30.5156" width="30.5601" height="29.1602" filterUnits="userSpaceOnUse" color-interpolation-filters="sRGB">
<feFlood flood-opacity="0" result="BackgroundImageFix"/>
<feColorMatrix in="SourceAlpha" type="matrix" values="0 0 0 0 0 0 0 0 0 0 0 0 0 0 0 0 0 0 127 0" result="hardAlpha"/>
<feOffset dy="4"/>
<feGaussianBlur stdDeviation="2"/>
<feComposite in2="hardAlpha" operator="out"/>
<feColorMatrix type="matrix" values="0 0 0 0 0 0 0 0 0 0 0 0 0 0 0 0 0 0 0.25 0"/>
<feBlend mode="normal" in2="BackgroundImageFix" result="effect1_dropShadow_482_1135"/>
<feColorMatrix in="SourceAlpha" type="matrix" values="0 0 0 0 0 0 0 0 0 0 0 0 0 0 0 0 0 0 127 0" result="hardAlpha"/>
<feOffset dy="4"/>
<feGaussianBlur stdDeviation="2"/>
<feComposite in2="hardAlpha" operator="out"/>
<feColorMatrix type="matrix" values="0 0 0 0 0 0 0 0 0 0 0 0 0 0 0 0 0 0 0.25 0"/>
<feBlend mode="normal" in2="effect1_dropShadow_482_1135" result="effect2_dropShadow_482_1135"/>
<feBlend mode="normal" in="SourceGraphic" in2="effect2_dropShadow_482_1135" result="shape"/>
</filter>
<filter id="filter1_dd_482_1135" x="29.0269" y="19.9961" width="14.96" height="39.6797" filterUnits="userSpaceOnUse" color-interpolation-filters="sRGB">
<feFlood flood-opacity="0" result="BackgroundImageFix"/>
<feColorMatrix in="SourceAlpha" type="matrix" values="0 0 0 0 0 0 0 0 0 0 0 0 0 0 0 0 0 0 127 0" result="hardAlpha"/>
<feOffset dy="4"/>
<feGaussianBlur stdDeviation="2"/>
<feComposite in2="hardAlpha" operator="out"/>
<feColorMatrix type="matrix" values="0 0 0 0 0 0 0 0 0 0 0 0 0 0 0 0 0 0 0.25 0"/>
<feBlend mode="normal" in2="BackgroundImageFix" result="effect1_dropShadow_482_1135"/>
<feColorMatrix in="SourceAlpha" type="matrix" values="0 0 0 0 0 0 0 0 0 0 0 0 0 0 0 0 0 0 127 0" result="hardAlpha"/>
<feOffset dy="4"/>
<feGaussianBlur stdDeviation="2"/>
<feComposite in2="hardAlpha" operator="out"/>
<feColorMatrix type="matrix" values="0 0 0 0 0 0 0 0 0 0 0 0 0 0 0 0 0 0 0.25 0"/>
<feBlend mode="normal" in2="effect1_dropShadow_482_1135" result="effect2_dropShadow_482_1135"/>
<feBlend mode="normal" in="SourceGraphic" in2="effect2_dropShadow_482_1135" result="shape"/>
</filter>
<filter id="filter2_dd_482_1135" x="44.1377" y="22.0762" width="13.6802" height="37.5996" filterUnits="userSpaceOnUse" color-interpolation-filters="sRGB">
<feFlood flood-opacity="0" result="BackgroundImageFix"/>
<feColorMatrix in="SourceAlpha" type="matrix" values="0 0 0 0 0 0 0 0 0 0 0 0 0 0 0 0 0 0 127 0" result="hardAlpha"/>
<feOffset dy="4"/>
<feGaussianBlur stdDeviation="2"/>
<feComposite in2="hardAlpha" operator="out"/>
<feColorMatrix type="matrix" values="0 0 0 0 0 0 0 0 0 0 0 0 0 0 0 0 0 0 0.25 0"/>
<feBlend mode="normal" in2="BackgroundImageFix" result="effect1_dropShadow_482_1135"/>
<feColorMatrix in="SourceAlpha" type="matrix" values="0 0 0 0 0 0 0 0 0 0 0 0 0 0 0 0 0 0 127 0" result="hardAlpha"/>
<feOffset dy="4"/>
<feGaussianBlur stdDeviation="2"/>
<feComposite in2="hardAlpha" operator="out"/>
<feColorMatrix type="matrix" values="0 0 0 0 0 0 0 0 0 0 0 0 0 0 0 0 0 0 0.25 0"/>
<feBlend mode="normal" in2="effect1_dropShadow_482_1135" result="effect2_dropShadow_482_1135"/>
<feBlend mode="normal" in="SourceGraphic" in2="effect2_dropShadow_482_1135" result="shape"/>
</filter>
<filter id="filter3_dd_482_1135" x="58.1377" y="22.0762" width="13.6802" height="37.5996" filterUnits="userSpaceOnUse" color-interpolation-filters="sRGB">
<feFlood flood-opacity="0" result="BackgroundImageFix"/>
<feColorMatrix in="SourceAlpha" type="matrix" values="0 0 0 0 0 0 0 0 0 0 0 0 0 0 0 0 0 0 127 0" result="hardAlpha"/>
<feOffset dy="4"/>
<feGaussianBlur stdDeviation="2"/>
<feComposite in2="hardAlpha" operator="out"/>
<feColorMatrix type="matrix" values="0 0 0 0 0 0 0 0 0 0 0 0 0 0 0 0 0 0 0.25 0"/>
<feBlend mode="normal" in2="BackgroundImageFix" result="effect1_dropShadow_482_1135"/>
<feColorMatrix in="SourceAlpha" type="matrix" values="0 0 0 0 0 0 0 0 0 0 0 0 0 0 0 0 0 0 127 0" result="hardAlpha"/>
<feOffset dy="4"/>
<feGaussianBlur stdDeviation="2"/>
<feComposite in2="hardAlpha" operator="out"/>
<feColorMatrix type="matrix" values="0 0 0 0 0 0 0 0 0 0 0 0 0 0 0 0 0 0 0.25 0"/>
<feBlend mode="normal" in2="effect1_dropShadow_482_1135" result="effect2_dropShadow_482_1135"/>
<feBlend mode="normal" in="SourceGraphic" in2="effect2_dropShadow_482_1135" result="shape"/>
</filter>
<filter id="filter4_dd_482_1135" x="70.8726" y="30.0762" width="29.8" height="30" filterUnits="userSpaceOnUse" color-interpolation-filters="sRGB">
<feFlood flood-opacity="0" result="BackgroundImageFix"/>
<feColorMatrix in="SourceAlpha" type="matrix" values="0 0 0 0 0 0 0 0 0 0 0 0 0 0 0 0 0 0 127 0" result="hardAlpha"/>
<feOffset dy="4"/>
<feGaussianBlur stdDeviation="2"/>
<feComposite in2="hardAlpha" operator="out"/>
<feColorMatrix type="matrix" values="0 0 0 0 0 0 0 0 0 0 0 0 0 0 0 0 0 0 0.25 0"/>
<feBlend mode="normal" in2="BackgroundImageFix" result="effect1_dropShadow_482_1135"/>
<feColorMatrix in="SourceAlpha" type="matrix" values="0 0 0 0 0 0 0 0 0 0 0 0 0 0 0 0 0 0 127 0" result="hardAlpha"/>
<feOffset dy="4"/>
<feGaussianBlur stdDeviation="2"/>
<feComposite in2="hardAlpha" operator="out"/>
<feColorMatrix type="matrix" values="0 0 0 0 0 0 0 0 0 0 0 0 0 0 0 0 0 0 0.25 0"/>
<feBlend mode="normal" in2="effect1_dropShadow_482_1135" result="effect2_dropShadow_482_1135"/>
<feBlend mode="normal" in="SourceGraphic" in2="effect2_dropShadow_482_1135" result="shape"/>
</filter>
<filter id="filter5_dd_482_1135" x="117.873" y="30.0762" width="29.8" height="30" filterUnits="userSpaceOnUse" color-interpolation-filters="sRGB">
<feFlood flood-opacity="0" result="BackgroundImageFix"/>
<feColorMatrix in="SourceAlpha" type="matrix" values="0 0 0 0 0 0 0 0 0 0 0 0 0 0 0 0 0 0 127 0" result="hardAlpha"/>
<feOffset dy="4"/>
<feGaussianBlur stdDeviation="2"/>
<feComposite in2="hardAlpha" operator="out"/>
<feColorMatrix type="matrix" values="0 0 0 0 0 0 0 0 0 0 0 0 0 0 0 0 0 0 0.25 0"/>
<feBlend mode="normal" in2="BackgroundImageFix" result="effect1_dropShadow_482_1135"/>
<feColorMatrix in="SourceAlpha" type="matrix" values="0 0 0 0 0 0 0 0 0 0 0 0 0 0 0 0 0 0 127 0" result="hardAlpha"/>
<feOffset dy="4"/>
<feGaussianBlur stdDeviation="2"/>
<feComposite in2="hardAlpha" operator="out"/>
<feColorMatrix type="matrix" values="0 0 0 0 0 0 0 0 0 0 0 0 0 0 0 0 0 0 0.25 0"/>
<feBlend mode="normal" in2="effect1_dropShadow_482_1135" result="effect2_dropShadow_482_1135"/>
<feBlend mode="normal" in="SourceGraphic" in2="effect2_dropShadow_482_1135" result="shape"/>
</filter>
<filter id="filter6_dd_482_1135" x="93.8103" y="15.3262" width="31.4429" height="57.668" filterUnits="userSpaceOnUse" color-interpolation-filters="sRGB">
<feFlood flood-opacity="0" result="BackgroundImageFix"/>
<feColorMatrix in="SourceAlpha" type="matrix" values="0 0 0 0 0 0 0 0 0 0 0 0 0 0 0 0 0 0 127 0" result="hardAlpha"/>
<feOffset dy="4"/>
<feGaussianBlur stdDeviation="2"/>
<feComposite in2="hardAlpha" operator="out"/>
<feColorMatrix type="matrix" values="0 0 0 0 0 0 0 0 0 0 0 0 0 0 0 0 0 0 0.25 0"/>
<feBlend mode="normal" in2="BackgroundImageFix" result="effect1_dropShadow_482_1135"/>
<feColorMatrix in="SourceAlpha" type="matrix" values="0 0 0 0 0 0 0 0 0 0 0 0 0 0 0 0 0 0 127 0" result="hardAlpha"/>
<feOffset dy="4"/>
<feGaussianBlur stdDeviation="2"/>
<feComposite in2="hardAlpha" operator="out"/>
<feColorMatrix type="matrix" values="0 0 0 0 0 0 0 0 0 0 0 0 0 0 0 0 0 0 0.25 0"/>
<feBlend mode="normal" in2="effect1_dropShadow_482_1135" result="effect2_dropShadow_482_1135"/>
<feBlend mode="normal" in="SourceGraphic" in2="effect2_dropShadow_482_1135" result="shape"/>
</filter>
<linearGradient id="paint0_linear_482_1135" x1="115.792" y1="16.4681" x2="115.792" y2="26.4681" gradientUnits="userSpaceOnUse">
<stop offset="0.9999" stop-color="#025492"/>
<stop offset="1" stop-color="#00B4D8"/>
</linearGradient>
</defs>
</svg>
