<svg width="74" height="38" viewBox="0 0 74 38" fill="none" xmlns="http://www.w3.org/2000/svg">
<path d="M5.45317 25.873L0.928892 15.0922H4.10811L6.98164 23.1422L6.30911 23.2645L9.3253 15.0922H12.423L7.67455 25.873H5.45317Z" fill="#69696B"/>
<path d="M15.507 25.873V15.0922H18.4009V25.873H15.507ZM16.9335 12.8708C16.3765 12.8708 15.9417 12.735 15.6292 12.4633C15.3168 12.1915 15.1605 11.8043 15.1605 11.3016C15.1605 10.8397 15.3168 10.4661 15.6292 10.1807C15.9553 9.88183 16.3901 9.73238 16.9335 9.73238C17.4906 9.73238 17.9253 9.87504 18.2378 10.1604C18.5503 10.4321 18.7066 10.8125 18.7066 11.3016C18.7066 11.7771 18.5435 12.1576 18.2175 12.4429C17.905 12.7282 17.477 12.8708 16.9335 12.8708Z" fill="#69696B"/>
<path d="M22.6142 25.873V10.7921H25.5081V25.873H22.6142Z" fill="#69696B"/>
<path d="M29.7471 25.873V10.7921H32.641V25.873H29.7471Z" fill="#69696B"/>
<path d="M40.183 26.0768C39.2863 26.0768 38.4779 25.8323 37.7578 25.3432C37.0378 24.8541 36.4671 24.1883 36.0459 23.346C35.6248 22.5036 35.4142 21.539 35.4142 20.4521C35.4142 19.3652 35.6248 18.4073 36.0459 17.5785C36.4807 16.7362 37.0649 16.0772 37.7986 15.6017C38.5323 15.1126 39.3678 14.868 40.3053 14.868C40.8352 14.868 41.3175 14.9496 41.7522 15.1126C42.2006 15.2621 42.5878 15.4726 42.9139 15.7444C43.2535 16.0161 43.5389 16.3286 43.7698 16.6818C44.0008 17.0351 44.1638 17.4155 44.2589 17.8231L43.6475 17.7212V15.0922H46.5211V25.873H43.6068V23.2848L44.2589 23.2237C44.1502 23.6041 43.9736 23.9642 43.7291 24.3038C43.4845 24.6435 43.1788 24.9492 42.812 25.2209C42.4587 25.479 42.0579 25.6896 41.6096 25.8527C41.1612 26.0021 40.6857 26.0768 40.183 26.0768ZM40.9778 23.5701C41.5213 23.5701 41.9968 23.4411 42.4044 23.1829C42.812 22.9248 43.1245 22.5648 43.3418 22.1028C43.5728 21.6273 43.6883 21.077 43.6883 20.4521C43.6883 19.8407 43.5728 19.304 43.3418 18.8421C43.1245 18.3801 42.812 18.0201 42.4044 17.762C41.9968 17.4902 41.5213 17.3544 40.9778 17.3544C40.4479 17.3544 39.9792 17.4902 39.5716 17.762C39.1776 18.0201 38.8651 18.3801 38.6342 18.8421C38.4032 19.304 38.2877 19.8407 38.2877 20.4521C38.2877 21.077 38.4032 21.6273 38.6342 22.1028C38.8651 22.5648 39.1776 22.9248 39.5716 23.1829C39.9792 23.4411 40.4479 23.5701 40.9778 23.5701Z" fill="#69696B"/>
<path d="M64.1291 26.0768C63.2323 26.0768 62.424 25.8323 61.7039 25.3432C60.9838 24.8541 60.4132 24.1883 59.992 23.346C59.5708 22.5036 59.3602 21.539 59.3602 20.4521C59.3602 19.3652 59.5708 18.4073 59.992 17.5785C60.4268 16.7362 61.011 16.0772 61.7446 15.6017C62.4783 15.1126 63.3139 14.868 64.2513 14.868C64.7812 14.868 65.2635 14.9496 65.6983 15.1126C66.1466 15.2621 66.5338 15.4726 66.8599 15.7444C67.1996 16.0161 67.4849 16.3286 67.7159 16.6818C67.9468 17.0351 68.1099 17.4155 68.205 17.8231L67.5936 17.7212V15.0922H70.4671V25.873H67.5528V23.2848L68.205 23.2237C68.0963 23.6041 67.9197 23.9642 67.6751 24.3038C67.4305 24.6435 67.1249 24.9492 66.758 25.2209C66.4048 25.479 66.004 25.6896 65.5556 25.8527C65.1073 26.0021 64.6317 26.0768 64.1291 26.0768ZM64.9239 23.5701C65.4673 23.5701 65.9428 23.4411 66.3504 23.1829C66.758 22.9248 67.0705 22.5648 67.2879 22.1028C67.5189 21.6273 67.6343 21.077 67.6343 20.4521C67.6343 19.8407 67.5189 19.304 67.2879 18.8421C67.0705 18.3801 66.758 18.0201 66.3504 17.762C65.9428 17.4902 65.4673 17.3544 64.9239 17.3544C64.394 17.3544 63.9253 17.4902 63.5177 17.762C63.1237 18.0201 62.8112 18.3801 62.5802 18.8421C62.3492 19.304 62.2337 19.8407 62.2337 20.4521C62.2337 21.077 62.3492 21.6273 62.5802 22.1028C62.8112 22.5648 63.1237 22.9248 63.5177 23.1829C63.9253 23.4411 64.394 23.5701 64.9239 23.5701Z" fill="#69696B"/>
<path d="M48.439 31.7555L47.7558 28.8486C48.4403 29.0003 49.0106 29.0266 49.4668 28.9273C49.923 28.8281 50.288 28.575 50.5619 28.1681C50.8482 27.7807 51.0708 27.2289 51.2296 26.5126L53.8814 14.5508L57.2718 15.3024L54.44 28.076C54.2071 29.1265 53.814 29.9579 53.2608 30.57C52.7235 31.1857 52.0482 31.5954 51.2349 31.7992C50.4215 32.0029 49.4896 31.9884 48.439 31.7555ZM56.2252 12.34C55.5726 12.1953 55.0985 11.9232 54.803 11.5237C54.5075 11.1242 54.425 10.63 54.5556 10.0411C54.6755 9.49988 54.9556 9.10274 55.3958 8.84964C55.8555 8.58415 56.4036 8.52198 57.0403 8.66313C57.6929 8.80781 58.1652 9.08786 58.4572 9.50329C58.7528 9.90279 58.837 10.3891 58.71 10.9621C58.5865 11.5192 58.2966 11.9225 57.8405 12.1721C57.4003 12.4252 56.8619 12.4812 56.2252 12.34Z" fill="#69696B"/>
<circle cx="57.1404" cy="10.9394" r="2.54745" transform="rotate(10 57.1404 10.9394)" fill="url(#paint0_linear_47_17714)"/>
<defs>
<linearGradient id="paint0_linear_47_17714" x1="57.1404" y1="8.39194" x2="57.1404" y2="13.4868" gradientUnits="userSpaceOnUse">
<stop offset="0.9999" stop-color="#025492"/>
<stop offset="1" stop-color="#00B4D8"/>
</linearGradient>
</defs>
</svg>
