<svg xmlns="http://www.w3.org/2000/svg" xmlns:xlink="http://www.w3.org/1999/xlink" width="500" zoomAndPan="magnify" viewBox="0 0 375 374.999991" height="500" preserveAspectRatio="xMidYMid meet" version="1.0"><defs><g/><clipPath id="a19da7a225"><path d="M 223.589844 167.054688 L 234.730469 167.054688 L 234.730469 178.195312 L 223.589844 178.195312 Z M 223.589844 167.054688 " clip-rule="nonzero"/></clipPath><clipPath id="16a246f717"><path d="M 229.160156 167.054688 C 226.082031 167.054688 223.589844 169.546875 223.589844 172.625 C 223.589844 175.703125 226.082031 178.195312 229.160156 178.195312 C 232.234375 178.195312 234.730469 175.703125 234.730469 172.625 C 234.730469 169.546875 232.234375 167.054688 229.160156 167.054688 Z M 229.160156 167.054688 " clip-rule="nonzero"/></clipPath></defs><g fill="#545454" fill-opacity="1"><g transform="translate(131.116659, 203.61319)"><g><path d="M 5.71875 -22.5625 L 12.296875 -6.453125 L 19.125 -22.5625 L 23.671875 -22.5625 L 13.671875 0 L 10.484375 0 L 0.953125 -22.5625 Z M 5.71875 -22.5625 "/></g></g></g><g fill="#545454" fill-opacity="1"><g transform="translate(155.737663, 203.61319)"><g><path d="M 6.0625 -27.46875 C 5.050781 -27.46875 4.300781 -27.722656 3.8125 -28.234375 C 3.332031 -28.753906 3.09375 -29.429688 3.09375 -30.265625 C 3.09375 -30.972656 3.332031 -31.613281 3.8125 -32.1875 C 4.300781 -32.757812 5.050781 -33.046875 6.0625 -33.046875 C 7.0625 -33.046875 7.800781 -32.785156 8.28125 -32.265625 C 8.769531 -31.753906 9.015625 -31.085938 9.015625 -30.265625 C 9.015625 -29.546875 8.769531 -28.898438 8.28125 -28.328125 C 7.800781 -27.753906 7.0625 -27.46875 6.0625 -27.46875 Z M 8.328125 0 L 3.90625 0 L 3.90625 -22.5625 L 8.328125 -22.5625 Z M 8.328125 0 "/></g></g></g><g fill="#545454" fill-opacity="1"><g transform="translate(167.682949, 203.61319)"><g><path d="M 3.09375 0 L 3.09375 -31.796875 L 7.515625 -31.796875 L 7.515625 0 Z M 3.09375 0 "/></g></g></g><g fill="#545454" fill-opacity="1"><g transform="translate(178.425122, 203.61319)"><g><path d="M 3.09375 0 L 3.09375 -31.796875 L 7.515625 -31.796875 L 7.515625 0 Z M 3.09375 0 "/></g></g></g><g fill="#545454" fill-opacity="1"><g transform="translate(189.167295, 203.61319)"><g><path d="M 24.109375 -22.5625 L 24.109375 0 L 19.640625 0 L 19.640625 -3.484375 C 18.953125 -2.535156 17.929688 -1.644531 16.578125 -0.8125 C 15.234375 0.0195312 13.675781 0.4375 11.90625 0.4375 C 10.007812 0.4375 8.28125 -0.0625 6.71875 -1.0625 C 5.164062 -2.070312 3.929688 -3.460938 3.015625 -5.234375 C 2.097656 -7.015625 1.640625 -9.050781 1.640625 -11.34375 C 1.640625 -13.632812 2.109375 -15.660156 3.046875 -17.421875 C 3.992188 -19.179688 5.296875 -20.554688 6.953125 -21.546875 C 8.617188 -22.535156 10.515625 -23.03125 12.640625 -23.03125 C 14.210938 -23.03125 15.59375 -22.6875 16.78125 -22 C 17.96875 -21.3125 18.921875 -20.507812 19.640625 -19.59375 L 19.640625 -22.5625 Z M 12.9375 -3.65625 C 14.3125 -3.65625 15.515625 -3.988281 16.546875 -4.65625 C 17.578125 -5.332031 18.378906 -6.25 18.953125 -7.40625 C 19.523438 -8.570312 19.8125 -9.882812 19.8125 -11.34375 C 19.8125 -12.78125 19.523438 -14.070312 18.953125 -15.21875 C 18.378906 -16.363281 17.578125 -17.269531 16.546875 -17.9375 C 15.515625 -18.613281 14.3125 -18.953125 12.9375 -18.953125 C 11.613281 -18.953125 10.4375 -18.617188 9.40625 -17.953125 C 8.375 -17.296875 7.570312 -16.394531 7 -15.25 C 6.425781 -14.101562 6.140625 -12.800781 6.140625 -11.34375 C 6.140625 -9.882812 6.425781 -8.570312 7 -7.40625 C 7.570312 -6.25 8.375 -5.332031 9.40625 -4.65625 C 10.4375 -3.988281 11.613281 -3.65625 12.9375 -3.65625 Z M 12.9375 -3.65625 "/></g></g></g><g fill="#545454" fill-opacity="1"><g transform="translate(217.607075, 200.355629)"><g><path d="M 7.484375 3.21875 C 7.066406 4.6875 6.378906 5.863281 5.421875 6.75 C 4.460938 7.632812 3.332031 8.203125 2.03125 8.453125 C 0.738281 8.710938 -0.609375 8.640625 -2.015625 8.234375 L -2.6875 4.515625 C -1 4.992188 0.347656 4.898438 1.359375 4.234375 C 2.367188 3.578125 3.09375 2.488281 3.53125 0.96875 L 9.75 -20.6875 L 14 -19.46875 Z M 13.40625 -25 C 12.4375 -25.28125 11.789062 -25.734375 11.46875 -26.359375 C 11.144531 -26.992188 11.097656 -27.710938 11.328125 -28.515625 C 11.523438 -29.203125 11.9375 -29.753906 12.5625 -30.171875 C 13.1875 -30.585938 13.984375 -30.65625 14.953125 -30.375 C 15.910156 -30.101562 16.550781 -29.648438 16.875 -29.015625 C 17.207031 -28.390625 17.257812 -27.675781 17.03125 -26.875 C 16.832031 -26.1875 16.414062 -25.632812 15.78125 -25.21875 C 15.15625 -24.800781 14.363281 -24.726562 13.40625 -25 Z M 13.40625 -25 "/></g></g></g><g clip-path="url(#a19da7a225)"><g clip-path="url(#16a246f717)"><path fill="#025492" d="M 223.589844 167.054688 L 234.730469 167.054688 L 234.730469 178.195312 L 223.589844 178.195312 Z M 223.589844 167.054688 " fill-opacity="1" fill-rule="nonzero"/></g></g><g fill="#545454" fill-opacity="1"><g transform="translate(236.980213, 202.499987)"><g><path d="M 24.125 -22.578125 L 24.125 0 L 19.65625 0 L 19.65625 -3.484375 C 18.96875 -2.535156 17.945312 -1.644531 16.59375 -0.8125 C 15.25 0.0195312 13.6875 0.4375 11.90625 0.4375 C 10.019531 0.4375 8.296875 -0.0625 6.734375 -1.0625 C 5.171875 -2.070312 3.929688 -3.460938 3.015625 -5.234375 C 2.097656 -7.015625 1.640625 -9.054688 1.640625 -11.359375 C 1.640625 -13.648438 2.109375 -15.675781 3.046875 -17.4375 C 3.992188 -19.195312 5.296875 -20.570312 6.953125 -21.5625 C 8.617188 -22.550781 10.515625 -23.046875 12.640625 -23.046875 C 14.210938 -23.046875 15.59375 -22.703125 16.78125 -22.015625 C 17.976562 -21.328125 18.9375 -20.523438 19.65625 -19.609375 L 19.65625 -22.578125 Z M 12.9375 -3.65625 C 14.3125 -3.65625 15.515625 -3.988281 16.546875 -4.65625 C 17.585938 -5.332031 18.394531 -6.25 18.96875 -7.40625 C 19.539062 -8.570312 19.828125 -9.890625 19.828125 -11.359375 C 19.828125 -12.785156 19.539062 -14.070312 18.96875 -15.21875 C 18.394531 -16.363281 17.585938 -17.273438 16.546875 -17.953125 C 15.515625 -18.628906 14.3125 -18.96875 12.9375 -18.96875 C 11.625 -18.96875 10.453125 -18.632812 9.421875 -17.96875 C 8.390625 -17.3125 7.585938 -16.410156 7.015625 -15.265625 C 6.441406 -14.117188 6.15625 -12.816406 6.15625 -11.359375 C 6.15625 -9.890625 6.441406 -8.570312 7.015625 -7.40625 C 7.585938 -6.25 8.390625 -5.332031 9.421875 -4.65625 C 10.453125 -3.988281 11.625 -3.65625 12.9375 -3.65625 Z M 12.9375 -3.65625 "/></g></g></g><g fill="#ffffff" fill-opacity="1"><g transform="translate(128.282121, 202.040845)"><g><path d="M 5.71875 -22.5625 L 12.296875 -6.453125 L 19.125 -22.5625 L 23.671875 -22.5625 L 13.671875 0 L 10.484375 0 L 0.953125 -22.5625 Z M 5.71875 -22.5625 "/></g></g></g><g fill="#ffffff" fill-opacity="1"><g transform="translate(152.898738, 202.040845)"><g><path d="M 6.0625 -27.46875 C 5.050781 -27.46875 4.300781 -27.722656 3.8125 -28.234375 C 3.332031 -28.753906 3.09375 -29.429688 3.09375 -30.265625 C 3.09375 -30.972656 3.332031 -31.613281 3.8125 -32.1875 C 4.300781 -32.757812 5.050781 -33.046875 6.0625 -33.046875 C 7.0625 -33.046875 7.800781 -32.785156 8.28125 -32.265625 C 8.769531 -31.753906 9.015625 -31.085938 9.015625 -30.265625 C 9.015625 -29.546875 8.769531 -28.898438 8.28125 -28.328125 C 7.800781 -27.753906 7.0625 -27.46875 6.0625 -27.46875 Z M 8.328125 0 L 3.90625 0 L 3.90625 -22.5625 L 8.328125 -22.5625 Z M 8.328125 0 "/></g></g></g><g fill="#ffffff" fill-opacity="1"><g transform="translate(164.841883, 202.040845)"><g><path d="M 3.09375 0 L 3.09375 -31.796875 L 7.515625 -31.796875 L 7.515625 0 Z M 3.09375 0 "/></g></g></g><g fill="#ffffff" fill-opacity="1"><g transform="translate(175.582117, 202.040845)"><g><path d="M 3.09375 0 L 3.09375 -31.796875 L 7.515625 -31.796875 L 7.515625 0 Z M 3.09375 0 "/></g></g></g><g fill="#ffffff" fill-opacity="1"><g transform="translate(186.322351, 202.040845)"><g><path d="M 24.109375 -22.5625 L 24.109375 0 L 19.640625 0 L 19.640625 -3.484375 C 18.953125 -2.535156 17.929688 -1.644531 16.578125 -0.8125 C 15.234375 0.0195312 13.675781 0.4375 11.90625 0.4375 C 10.007812 0.4375 8.28125 -0.0625 6.71875 -1.0625 C 5.164062 -2.070312 3.929688 -3.460938 3.015625 -5.234375 C 2.097656 -7.015625 1.640625 -9.050781 1.640625 -11.34375 C 1.640625 -13.632812 2.109375 -15.660156 3.046875 -17.421875 C 3.992188 -19.179688 5.296875 -20.554688 6.953125 -21.546875 C 8.617188 -22.535156 10.515625 -23.03125 12.640625 -23.03125 C 14.210938 -23.03125 15.59375 -22.6875 16.78125 -22 C 17.96875 -21.3125 18.921875 -20.507812 19.640625 -19.59375 L 19.640625 -22.5625 Z M 12.9375 -3.65625 C 14.3125 -3.65625 15.515625 -3.988281 16.546875 -4.65625 C 17.578125 -5.332031 18.378906 -6.25 18.953125 -7.40625 C 19.523438 -8.570312 19.8125 -9.882812 19.8125 -11.34375 C 19.8125 -12.78125 19.523438 -14.070312 18.953125 -15.21875 C 18.378906 -16.363281 17.578125 -17.269531 16.546875 -17.9375 C 15.515625 -18.613281 14.3125 -18.953125 12.9375 -18.953125 C 11.613281 -18.953125 10.4375 -18.617188 9.40625 -17.953125 C 8.375 -17.296875 7.570312 -16.394531 7 -15.25 C 6.425781 -14.101562 6.140625 -12.800781 6.140625 -11.34375 C 6.140625 -9.882812 6.425781 -8.570312 7 -7.40625 C 7.570312 -6.25 8.375 -5.332031 9.40625 -4.65625 C 10.4375 -3.988281 11.613281 -3.65625 12.9375 -3.65625 Z M 12.9375 -3.65625 "/></g></g></g><g fill="#ffffff" fill-opacity="1"><g transform="translate(214.692731, 200.380172)"><g><path d="M 7.640625 2.828125 C 7.296875 4.316406 6.671875 5.523438 5.765625 6.453125 C 4.859375 7.390625 3.765625 8.019531 2.484375 8.34375 C 1.203125 8.664062 -0.148438 8.660156 -1.578125 8.328125 L -2.4375 4.65625 C -0.726562 5.050781 0.609375 4.890625 1.578125 4.171875 C 2.546875 3.453125 3.210938 2.320312 3.578125 0.78125 L 8.65625 -21.171875 L 12.96875 -20.171875 Z M 12.078125 -25.671875 C 11.097656 -25.898438 10.425781 -26.316406 10.0625 -26.921875 C 9.707031 -27.535156 9.625 -28.25 9.8125 -29.0625 C 9.976562 -29.757812 10.363281 -30.332031 10.96875 -30.78125 C 11.570312 -31.238281 12.363281 -31.351562 13.34375 -31.125 C 14.320312 -30.894531 14.988281 -30.472656 15.34375 -29.859375 C 15.707031 -29.253906 15.789062 -28.546875 15.59375 -27.734375 C 15.4375 -27.023438 15.054688 -26.445312 14.453125 -26 C 13.847656 -25.550781 13.054688 -25.441406 12.078125 -25.671875 Z M 12.078125 -25.671875 "/></g></g></g><g fill="#ffffff" fill-opacity="1"><g transform="translate(234.238158, 202.042689)"><g><path d="M 24.125 -22.578125 L 24.125 0 L 19.65625 0 L 19.65625 -3.484375 C 18.96875 -2.535156 17.945312 -1.644531 16.59375 -0.8125 C 15.25 0.0195312 13.6875 0.4375 11.90625 0.4375 C 10.019531 0.4375 8.296875 -0.0625 6.734375 -1.0625 C 5.171875 -2.070312 3.929688 -3.460938 3.015625 -5.234375 C 2.097656 -7.015625 1.640625 -9.054688 1.640625 -11.359375 C 1.640625 -13.648438 2.109375 -15.675781 3.046875 -17.4375 C 3.992188 -19.195312 5.296875 -20.570312 6.953125 -21.5625 C 8.617188 -22.550781 10.515625 -23.046875 12.640625 -23.046875 C 14.210938 -23.046875 15.59375 -22.703125 16.78125 -22.015625 C 17.976562 -21.328125 18.9375 -20.523438 19.65625 -19.609375 L 19.65625 -22.578125 Z M 12.9375 -3.65625 C 14.3125 -3.65625 15.515625 -3.988281 16.546875 -4.65625 C 17.585938 -5.332031 18.394531 -6.25 18.96875 -7.40625 C 19.539062 -8.570312 19.828125 -9.890625 19.828125 -11.359375 C 19.828125 -12.785156 19.539062 -14.070312 18.96875 -15.21875 C 18.394531 -16.363281 17.585938 -17.273438 16.546875 -17.953125 C 15.515625 -18.628906 14.3125 -18.96875 12.9375 -18.96875 C 11.625 -18.96875 10.453125 -18.632812 9.421875 -17.96875 C 8.390625 -17.3125 7.585938 -16.410156 7.015625 -15.265625 C 6.441406 -14.117188 6.15625 -12.816406 6.15625 -11.359375 C 6.15625 -9.890625 6.441406 -8.570312 7.015625 -7.40625 C 7.585938 -6.25 8.390625 -5.332031 9.421875 -4.65625 C 10.453125 -3.988281 11.625 -3.65625 12.9375 -3.65625 Z M 12.9375 -3.65625 "/></g></g></g></svg>