<svg xmlns="http://www.w3.org/2000/svg" xmlns:xlink="http://www.w3.org/1999/xlink" width="500" zoomAndPan="magnify" viewBox="0 0 375 374.999991" height="500" preserveAspectRatio="xMidYMid meet" version="1.0"><defs><g/><clipPath id="f2a2dcc34a"><path d="M 227.429688 169.476562 L 235.984375 169.476562 L 235.984375 178.03125 L 227.429688 178.03125 Z M 227.429688 169.476562 " clip-rule="nonzero"/></clipPath><clipPath id="f6cf72f1a9"><path d="M 231.707031 169.476562 C 229.34375 169.476562 227.429688 171.390625 227.429688 173.753906 C 227.429688 176.117188 229.34375 178.03125 231.707031 178.03125 C 234.070312 178.03125 235.984375 176.117188 235.984375 173.753906 C 235.984375 171.390625 234.070312 169.476562 231.707031 169.476562 Z M 231.707031 169.476562 " clip-rule="nonzero"/></clipPath></defs><g fill="#ffffff" fill-opacity="1"><g transform="translate(131.116659, 203.61319)"><g><path d="M 5.71875 -22.5625 L 12.296875 -6.453125 L 19.125 -22.5625 L 23.671875 -22.5625 L 13.671875 0 L 10.484375 0 L 0.953125 -22.5625 Z M 5.71875 -22.5625 "/></g></g></g><g fill="#ffffff" fill-opacity="1"><g transform="translate(155.737663, 203.61319)"><g><path d="M 6.0625 -27.46875 C 5.050781 -27.46875 4.300781 -27.722656 3.8125 -28.234375 C 3.332031 -28.753906 3.09375 -29.429688 3.09375 -30.265625 C 3.09375 -30.972656 3.332031 -31.613281 3.8125 -32.1875 C 4.300781 -32.757812 5.050781 -33.046875 6.0625 -33.046875 C 7.0625 -33.046875 7.800781 -32.785156 8.28125 -32.265625 C 8.769531 -31.753906 9.015625 -31.085938 9.015625 -30.265625 C 9.015625 -29.546875 8.769531 -28.898438 8.28125 -28.328125 C 7.800781 -27.753906 7.0625 -27.46875 6.0625 -27.46875 Z M 8.328125 0 L 3.90625 0 L 3.90625 -22.5625 L 8.328125 -22.5625 Z M 8.328125 0 "/></g></g></g><g fill="#ffffff" fill-opacity="1"><g transform="translate(167.682949, 203.61319)"><g><path d="M 3.09375 0 L 3.09375 -31.796875 L 7.515625 -31.796875 L 7.515625 0 Z M 3.09375 0 "/></g></g></g><g fill="#ffffff" fill-opacity="1"><g transform="translate(178.425122, 203.61319)"><g><path d="M 3.09375 0 L 3.09375 -31.796875 L 7.515625 -31.796875 L 7.515625 0 Z M 3.09375 0 "/></g></g></g><g fill="#ffffff" fill-opacity="1"><g transform="translate(189.167295, 203.61319)"><g><path d="M 24.109375 -22.5625 L 24.109375 0 L 19.640625 0 L 19.640625 -3.484375 C 18.953125 -2.535156 17.929688 -1.644531 16.578125 -0.8125 C 15.234375 0.0195312 13.675781 0.4375 11.90625 0.4375 C 10.007812 0.4375 8.28125 -0.0625 6.71875 -1.0625 C 5.164062 -2.070312 3.929688 -3.460938 3.015625 -5.234375 C 2.097656 -7.015625 1.640625 -9.050781 1.640625 -11.34375 C 1.640625 -13.632812 2.109375 -15.660156 3.046875 -17.421875 C 3.992188 -19.179688 5.296875 -20.554688 6.953125 -21.546875 C 8.617188 -22.535156 10.515625 -23.03125 12.640625 -23.03125 C 14.210938 -23.03125 15.59375 -22.6875 16.78125 -22 C 17.96875 -21.3125 18.921875 -20.507812 19.640625 -19.59375 L 19.640625 -22.5625 Z M 12.9375 -3.65625 C 14.3125 -3.65625 15.515625 -3.988281 16.546875 -4.65625 C 17.578125 -5.332031 18.378906 -6.25 18.953125 -7.40625 C 19.523438 -8.570312 19.8125 -9.882812 19.8125 -11.34375 C 19.8125 -12.78125 19.523438 -14.070312 18.953125 -15.21875 C 18.378906 -16.363281 17.578125 -17.269531 16.546875 -17.9375 C 15.515625 -18.613281 14.3125 -18.953125 12.9375 -18.953125 C 11.613281 -18.953125 10.4375 -18.617188 9.40625 -17.953125 C 8.375 -17.296875 7.570312 -16.394531 7 -15.25 C 6.425781 -14.101562 6.140625 -12.800781 6.140625 -11.34375 C 6.140625 -9.882812 6.425781 -8.570312 7 -7.40625 C 7.570312 -6.25 8.375 -5.332031 9.40625 -4.65625 C 10.4375 -3.988281 11.613281 -3.65625 12.9375 -3.65625 Z M 12.9375 -3.65625 "/></g></g></g><g fill="#ffffff" fill-opacity="1"><g transform="translate(218.292114, 200.67409)"><g><path d="M 7.578125 2.96875 C 7.203125 4.445312 6.550781 5.644531 5.625 6.5625 C 4.707031 7.476562 3.601562 8.082031 2.3125 8.375 C 1.03125 8.675781 -0.316406 8.648438 -1.734375 8.296875 L -2.515625 4.59375 C -0.816406 5.019531 0.519531 4.882812 1.5 4.1875 C 2.488281 3.5 3.175781 2.382812 3.5625 0.84375 L 9.03125 -21.015625 L 13.3125 -19.9375 Z M 12.546875 -25.453125 C 11.554688 -25.691406 10.890625 -26.117188 10.546875 -26.734375 C 10.210938 -27.359375 10.144531 -28.070312 10.34375 -28.875 C 10.519531 -29.570312 10.910156 -30.140625 11.515625 -30.578125 C 12.128906 -31.015625 12.929688 -31.113281 13.921875 -30.875 C 14.890625 -30.632812 15.546875 -30.203125 15.890625 -29.578125 C 16.234375 -28.960938 16.304688 -28.25 16.109375 -27.4375 C 15.929688 -26.738281 15.535156 -26.171875 14.921875 -25.734375 C 14.304688 -25.304688 13.515625 -25.210938 12.546875 -25.453125 Z M 12.546875 -25.453125 "/></g></g></g><g clip-path="url(#f2a2dcc34a)"><g clip-path="url(#f6cf72f1a9)"><path fill="#025492" d="M 227.429688 169.476562 L 235.984375 169.476562 L 235.984375 178.03125 L 227.429688 178.03125 Z M 227.429688 169.476562 " fill-opacity="1" fill-rule="nonzero"/></g></g><g fill="#ffffff" fill-opacity="1"><g transform="translate(231.707948, 202.955991)"><g><path d="M 24.125 -22.578125 L 24.125 0 L 19.65625 0 L 19.65625 -3.484375 C 18.96875 -2.535156 17.945312 -1.644531 16.59375 -0.8125 C 15.25 0.0195312 13.6875 0.4375 11.90625 0.4375 C 10.019531 0.4375 8.296875 -0.0625 6.734375 -1.0625 C 5.171875 -2.070312 3.929688 -3.460938 3.015625 -5.234375 C 2.097656 -7.015625 1.640625 -9.054688 1.640625 -11.359375 C 1.640625 -13.648438 2.109375 -15.675781 3.046875 -17.4375 C 3.992188 -19.195312 5.296875 -20.570312 6.953125 -21.5625 C 8.617188 -22.550781 10.515625 -23.046875 12.640625 -23.046875 C 14.210938 -23.046875 15.59375 -22.703125 16.78125 -22.015625 C 17.976562 -21.328125 18.9375 -20.523438 19.65625 -19.609375 L 19.65625 -22.578125 Z M 12.9375 -3.65625 C 14.3125 -3.65625 15.515625 -3.988281 16.546875 -4.65625 C 17.585938 -5.332031 18.394531 -6.25 18.96875 -7.40625 C 19.539062 -8.570312 19.828125 -9.890625 19.828125 -11.359375 C 19.828125 -12.785156 19.539062 -14.070312 18.96875 -15.21875 C 18.394531 -16.363281 17.585938 -17.273438 16.546875 -17.953125 C 15.515625 -18.628906 14.3125 -18.96875 12.9375 -18.96875 C 11.625 -18.96875 10.453125 -18.632812 9.421875 -17.96875 C 8.390625 -17.3125 7.585938 -16.410156 7.015625 -15.265625 C 6.441406 -14.117188 6.15625 -12.816406 6.15625 -11.359375 C 6.15625 -9.890625 6.441406 -8.570312 7.015625 -7.40625 C 7.585938 -6.25 8.390625 -5.332031 9.421875 -4.65625 C 10.453125 -3.988281 11.625 -3.65625 12.9375 -3.65625 Z M 12.9375 -3.65625 "/></g></g></g></svg>