<svg width="117" height="26" viewBox="0 0 117 26" fill="none" xmlns="http://www.w3.org/2000/svg">
<rect x="1" y="1" width="115" height="24" rx="12" fill="white"/>
<circle cx="13" cy="13" r="8" fill="white" stroke="url(#paint0_linear_1_15)" stroke-width="2"/>
<path d="M29.96 18V9.36H31.214V18H29.96ZM37.5638 18V14.814C37.5638 14.562 37.5418 14.304 37.4978 14.04C37.4578 13.772 37.3778 13.524 37.2578 13.296C37.1418 13.068 36.9758 12.884 36.7598 12.744C36.5478 12.604 36.2698 12.534 35.9258 12.534C35.7018 12.534 35.4898 12.572 35.2898 12.648C35.0898 12.72 34.9138 12.838 34.7618 13.002C34.6138 13.166 34.4958 13.382 34.4078 13.65C34.3238 13.918 34.2818 14.244 34.2818 14.628L33.5018 14.334C33.5018 13.746 33.6118 13.228 33.8318 12.78C34.0518 12.328 34.3678 11.976 34.7798 11.724C35.1918 11.472 35.6898 11.346 36.2738 11.346C36.7218 11.346 37.0978 11.418 37.4018 11.562C37.7058 11.706 37.9518 11.896 38.1398 12.132C38.3318 12.364 38.4778 12.618 38.5778 12.894C38.6778 13.17 38.7458 13.44 38.7818 13.704C38.8178 13.968 38.8358 14.2 38.8358 14.4V18H37.5638ZM33.0098 18V11.52H34.1318V13.392H34.2818V18H33.0098ZM45.9329 18.18C45.3129 18.18 44.7529 18.074 44.2529 17.862C43.7569 17.646 43.3469 17.34 43.0229 16.944C42.7029 16.544 42.4949 16.07 42.3989 15.522L43.7069 15.324C43.8389 15.852 44.1149 16.264 44.5349 16.56C44.9549 16.852 45.4449 16.998 46.0049 16.998C46.3529 16.998 46.6729 16.944 46.9649 16.836C47.2569 16.724 47.4909 16.566 47.6669 16.362C47.8469 16.154 47.9369 15.906 47.9369 15.618C47.9369 15.462 47.9089 15.324 47.8529 15.204C47.8009 15.084 47.7269 14.98 47.6309 14.892C47.5389 14.8 47.4249 14.722 47.2889 14.658C47.1569 14.59 47.0109 14.532 46.8509 14.484L44.6369 13.83C44.4209 13.766 44.2009 13.684 43.9769 13.584C43.7529 13.48 43.5469 13.346 43.3589 13.182C43.1749 13.014 43.0249 12.808 42.9089 12.564C42.7929 12.316 42.7349 12.016 42.7349 11.664C42.7349 11.132 42.8709 10.682 43.1429 10.314C43.4189 9.942 43.7909 9.662 44.2589 9.474C44.7269 9.282 45.2509 9.186 45.8309 9.186C46.4149 9.194 46.9369 9.298 47.3969 9.498C47.8609 9.698 48.2449 9.986 48.5489 10.362C48.8569 10.734 49.0689 11.186 49.1849 11.718L47.8409 11.946C47.7809 11.622 47.6529 11.344 47.4569 11.112C47.2609 10.876 47.0209 10.696 46.7369 10.572C46.4529 10.444 46.1449 10.378 45.8129 10.374C45.4929 10.366 45.1989 10.414 44.9309 10.518C44.6669 10.622 44.4549 10.768 44.2949 10.956C44.1389 11.144 44.0609 11.36 44.0609 11.604C44.0609 11.844 44.1309 12.038 44.2709 12.186C44.4109 12.334 44.5829 12.452 44.7869 12.54C44.9949 12.624 45.2009 12.694 45.4049 12.75L47.0009 13.2C47.2009 13.256 47.4269 13.332 47.6789 13.428C47.9349 13.52 48.1809 13.65 48.4169 13.818C48.6569 13.986 48.8549 14.21 49.0109 14.49C49.1669 14.766 49.2449 15.114 49.2449 15.534C49.2449 15.97 49.1569 16.354 48.9809 16.686C48.8049 17.014 48.5629 17.29 48.2549 17.514C47.9509 17.734 47.5989 17.9 47.1989 18.012C46.7989 18.124 46.3769 18.18 45.9329 18.18ZM54.2316 18C53.8236 18.08 53.4236 18.114 53.0316 18.102C52.6396 18.09 52.2896 18.014 51.9816 17.874C51.6736 17.734 51.4416 17.514 51.2856 17.214C51.1456 16.946 51.0696 16.674 51.0576 16.398C51.0496 16.118 51.0456 15.802 51.0456 15.45V9.72H52.3056V15.39C52.3056 15.65 52.3076 15.876 52.3116 16.068C52.3196 16.26 52.3616 16.422 52.4376 16.554C52.5816 16.802 52.8096 16.944 53.1216 16.98C53.4376 17.012 53.8076 16.998 54.2316 16.938V18ZM49.8036 12.528V11.52H54.2316V12.528H49.8036ZM58.1188 18.18C57.4708 18.18 56.9088 18.034 56.4328 17.742C55.9568 17.45 55.5888 17.048 55.3288 16.536C55.0728 16.02 54.9448 15.426 54.9448 14.754C54.9448 14.078 55.0768 13.484 55.3408 12.972C55.6048 12.456 55.9748 12.056 56.4508 11.772C56.9268 11.484 57.4828 11.34 58.1188 11.34C58.7668 11.34 59.3288 11.486 59.8048 11.778C60.2808 12.07 60.6488 12.472 60.9088 12.984C61.1688 13.496 61.2988 14.086 61.2988 14.754C61.2988 15.43 61.1668 16.026 60.9028 16.542C60.6428 17.054 60.2748 17.456 59.7988 17.748C59.3228 18.036 58.7628 18.18 58.1188 18.18ZM58.1188 16.998C58.7388 16.998 59.2008 16.79 59.5048 16.374C59.8128 15.954 59.9668 15.414 59.9668 14.754C59.9668 14.078 59.8108 13.538 59.4988 13.134C59.1908 12.726 58.7308 12.522 58.1188 12.522C57.6988 12.522 57.3528 12.618 57.0808 12.81C56.8088 12.998 56.6068 13.26 56.4748 13.596C56.3428 13.928 56.2768 14.314 56.2768 14.754C56.2768 15.434 56.4328 15.978 56.7448 16.386C57.0568 16.794 57.5148 16.998 58.1188 16.998ZM65.3893 18.18C64.7253 18.18 64.1613 18.032 63.6973 17.736C63.2333 17.44 62.8773 17.034 62.6293 16.518C62.3853 16.002 62.2613 15.416 62.2573 14.76C62.2613 14.092 62.3893 13.502 62.6413 12.99C62.8933 12.474 63.2533 12.07 63.7213 11.778C64.1893 11.486 64.7513 11.34 65.4073 11.34C66.1153 11.34 66.7193 11.516 67.2193 11.868C67.7233 12.22 68.0553 12.702 68.2153 13.314L66.9673 13.674C66.8433 13.31 66.6393 13.028 66.3553 12.828C66.0753 12.624 65.7533 12.522 65.3893 12.522C64.9773 12.522 64.6393 12.62 64.3753 12.816C64.1113 13.008 63.9153 13.272 63.7873 13.608C63.6593 13.944 63.5933 14.328 63.5893 14.76C63.5933 15.428 63.7453 15.968 64.0453 16.38C64.3493 16.792 64.7973 16.998 65.3893 16.998C65.7933 16.998 66.1193 16.906 66.3673 16.722C66.6193 16.534 66.8113 16.266 66.9433 15.918L68.2153 16.218C68.0033 16.85 67.6533 17.336 67.1653 17.676C66.6773 18.012 66.0853 18.18 65.3893 18.18ZM69.4317 18L69.4377 9.36H70.7097V14.64L73.2537 11.52H74.8497L72.1617 14.76L75.1257 18H73.4217L70.7097 14.88V18H69.4317Z" fill="#111111"/>
<path d="M11.2666 14.7822L8.24443 12.0891L7 13.198L11.2666 17L19 10.1089L17.7556 9L11.2666 14.7822Z" fill="url(#paint1_linear_1_15)"/>
<rect x="1" y="1" width="115" height="24" rx="12" stroke="url(#paint2_linear_1_15)" stroke-width="2"/>
<defs>
<linearGradient id="paint0_linear_1_15" x1="13" y1="5" x2="13" y2="21" gradientUnits="userSpaceOnUse">
<stop stop-color="#00B4D8"/>
<stop offset="1" stop-color="#0077B6"/>
</linearGradient>
<linearGradient id="paint1_linear_1_15" x1="13" y1="9" x2="13" y2="17" gradientUnits="userSpaceOnUse">
<stop stop-color="#00B4D8"/>
<stop offset="1" stop-color="#0077B6"/>
</linearGradient>
<linearGradient id="paint2_linear_1_15" x1="58.5" y1="1" x2="58.5" y2="25" gradientUnits="userSpaceOnUse">
<stop stop-color="#00B4D8"/>
<stop offset="1" stop-color="#0077B6"/>
</linearGradient>
</defs>
</svg>
