<svg width="117" height="26" viewBox="0 0 117 26" fill="none" xmlns="http://www.w3.org/2000/svg">
<rect x="1" y="1" width="115" height="24" rx="12" fill="white"/>
<circle cx="13" cy="13" r="8" fill="white" stroke="url(#paint0_linear_1_19)" stroke-width="2"/>
<path d="M32.972 18.18C32.352 18.18 31.792 18.074 31.292 17.862C30.796 17.646 30.386 17.34 30.062 16.944C29.742 16.544 29.534 16.07 29.438 15.522L30.746 15.324C30.878 15.852 31.154 16.264 31.574 16.56C31.994 16.852 32.484 16.998 33.044 16.998C33.392 16.998 33.712 16.944 34.004 16.836C34.296 16.724 34.53 16.566 34.706 16.362C34.886 16.154 34.976 15.906 34.976 15.618C34.976 15.462 34.948 15.324 34.892 15.204C34.84 15.084 34.766 14.98 34.67 14.892C34.578 14.8 34.464 14.722 34.328 14.658C34.196 14.59 34.05 14.532 33.89 14.484L31.676 13.83C31.46 13.766 31.24 13.684 31.016 13.584C30.792 13.48 30.586 13.346 30.398 13.182C30.214 13.014 30.064 12.808 29.948 12.564C29.832 12.316 29.774 12.016 29.774 11.664C29.774 11.132 29.91 10.682 30.182 10.314C30.458 9.942 30.83 9.662 31.298 9.474C31.766 9.282 32.29 9.186 32.87 9.186C33.454 9.194 33.976 9.298 34.436 9.498C34.9 9.698 35.284 9.986 35.588 10.362C35.896 10.734 36.108 11.186 36.224 11.718L34.88 11.946C34.82 11.622 34.692 11.344 34.496 11.112C34.3 10.876 34.06 10.696 33.776 10.572C33.492 10.444 33.184 10.378 32.852 10.374C32.532 10.366 32.238 10.414 31.97 10.518C31.706 10.622 31.494 10.768 31.334 10.956C31.178 11.144 31.1 11.36 31.1 11.604C31.1 11.844 31.17 12.038 31.31 12.186C31.45 12.334 31.622 12.452 31.826 12.54C32.034 12.624 32.24 12.694 32.444 12.75L34.04 13.2C34.24 13.256 34.466 13.332 34.718 13.428C34.974 13.52 35.22 13.65 35.456 13.818C35.696 13.986 35.894 14.21 36.05 14.49C36.206 14.766 36.284 15.114 36.284 15.534C36.284 15.97 36.196 16.354 36.02 16.686C35.844 17.014 35.602 17.29 35.294 17.514C34.99 17.734 34.638 17.9 34.238 18.012C33.838 18.124 33.416 18.18 32.972 18.18ZM40.3767 18.18C39.7287 18.18 39.1667 18.034 38.6907 17.742C38.2147 17.45 37.8467 17.048 37.5867 16.536C37.3307 16.02 37.2027 15.426 37.2027 14.754C37.2027 14.078 37.3347 13.484 37.5987 12.972C37.8627 12.456 38.2327 12.056 38.7087 11.772C39.1847 11.484 39.7407 11.34 40.3767 11.34C41.0247 11.34 41.5867 11.486 42.0627 11.778C42.5387 12.07 42.9067 12.472 43.1667 12.984C43.4267 13.496 43.5567 14.086 43.5567 14.754C43.5567 15.43 43.4247 16.026 43.1607 16.542C42.9007 17.054 42.5327 17.456 42.0567 17.748C41.5807 18.036 41.0207 18.18 40.3767 18.18ZM40.3767 16.998C40.9967 16.998 41.4587 16.79 41.7627 16.374C42.0707 15.954 42.2247 15.414 42.2247 14.754C42.2247 14.078 42.0687 13.538 41.7567 13.134C41.4487 12.726 40.9887 12.522 40.3767 12.522C39.9567 12.522 39.6107 12.618 39.3387 12.81C39.0667 12.998 38.8647 13.26 38.7327 13.596C38.6007 13.928 38.5347 14.314 38.5347 14.754C38.5347 15.434 38.6907 15.978 39.0027 16.386C39.3147 16.794 39.7727 16.998 40.3767 16.998ZM44.9952 18V9.18H46.2492V18H44.9952ZM50.6249 18.18C50.0209 18.18 49.4989 18.03 49.0589 17.73C48.6229 17.43 48.2849 17.022 48.0449 16.506C47.8089 15.986 47.6909 15.402 47.6909 14.754C47.6909 14.102 47.8109 13.52 48.0509 13.008C48.2909 12.492 48.6309 12.086 49.0709 11.79C49.5149 11.49 50.0409 11.34 50.6489 11.34C51.2609 11.34 51.7749 11.49 52.1909 11.79C52.6109 12.086 52.9269 12.492 53.1389 13.008C53.3549 13.524 53.4629 14.106 53.4629 14.754C53.4629 15.402 53.3549 15.984 53.1389 16.5C52.9229 17.016 52.6049 17.426 52.1849 17.73C51.7649 18.03 51.2449 18.18 50.6249 18.18ZM50.7989 17.046C51.2109 17.046 51.5469 16.948 51.8069 16.752C52.0669 16.556 52.2569 16.286 52.3769 15.942C52.4969 15.598 52.5569 15.202 52.5569 14.754C52.5569 14.306 52.4949 13.91 52.3709 13.566C52.2509 13.222 52.0629 12.954 51.8069 12.762C51.5549 12.57 51.2329 12.474 50.8409 12.474C50.4249 12.474 50.0829 12.576 49.8149 12.78C49.5469 12.984 49.3469 13.258 49.2149 13.602C49.0869 13.946 49.0229 14.33 49.0229 14.754C49.0229 15.182 49.0869 15.57 49.2149 15.918C49.3469 16.262 49.5429 16.536 49.8029 16.74C50.0669 16.944 50.3989 17.046 50.7989 17.046ZM52.5569 18V13.338H52.4129V9.36H53.6729V18H52.5569ZM61.3601 18.18C60.4961 18.18 59.7601 17.992 59.1521 17.616C58.5441 17.236 58.0781 16.708 57.7541 16.032C57.4341 15.356 57.2741 14.572 57.2741 13.68C57.2741 12.788 57.4341 12.004 57.7541 11.328C58.0781 10.652 58.5441 10.126 59.1521 9.75C59.7601 9.37 60.4961 9.18 61.3601 9.18C62.2201 9.18 62.9541 9.37 63.5621 9.75C64.1741 10.126 64.6401 10.652 64.9601 11.328C65.2801 12.004 65.4401 12.788 65.4401 13.68C65.4401 14.572 65.2801 15.356 64.9601 16.032C64.6401 16.708 64.1741 17.236 63.5621 17.616C62.9541 17.992 62.2201 18.18 61.3601 18.18ZM61.3601 16.986C61.9721 16.994 62.4801 16.86 62.8841 16.584C63.2921 16.304 63.5981 15.916 63.8021 15.42C64.0061 14.92 64.1081 14.34 64.1081 13.68C64.1081 13.02 64.0061 12.444 63.8021 11.952C63.5981 11.456 63.2921 11.07 62.8841 10.794C62.4801 10.518 61.9721 10.378 61.3601 10.374C60.7481 10.366 60.2381 10.5 59.8301 10.776C59.4261 11.052 59.1221 11.44 58.9181 11.94C58.7141 12.44 58.6101 13.02 58.6061 13.68C58.6021 14.34 58.7021 14.918 58.9061 15.414C59.1101 15.906 59.4161 16.29 59.8241 16.566C60.2361 16.842 60.7481 16.982 61.3601 16.986ZM69.0789 18.174C68.6309 18.174 68.2549 18.102 67.9509 17.958C67.6469 17.814 67.3989 17.626 67.2069 17.394C67.0189 17.158 66.8749 16.902 66.7749 16.626C66.6749 16.35 66.6069 16.08 66.5709 15.816C66.5349 15.552 66.5169 15.32 66.5169 15.12V11.52H67.7889V14.706C67.7889 14.958 67.8089 15.218 67.8489 15.486C67.8929 15.75 67.9729 15.996 68.0889 16.224C68.2089 16.452 68.3749 16.636 68.5869 16.776C68.8029 16.916 69.0829 16.986 69.4269 16.986C69.6509 16.986 69.8629 16.95 70.0629 16.878C70.2629 16.802 70.4369 16.682 70.5849 16.518C70.7369 16.354 70.8549 16.138 70.9389 15.87C71.0269 15.602 71.0709 15.276 71.0709 14.892L71.8509 15.186C71.8509 15.774 71.7409 16.294 71.5209 16.746C71.3009 17.194 70.9849 17.544 70.5729 17.796C70.1609 18.048 69.6629 18.174 69.0789 18.174ZM71.2209 18V16.128H71.0709V11.52H72.3369V18H71.2209ZM77.7277 18C77.3197 18.08 76.9197 18.114 76.5277 18.102C76.1357 18.09 75.7857 18.014 75.4777 17.874C75.1697 17.734 74.9377 17.514 74.7817 17.214C74.6417 16.946 74.5657 16.674 74.5537 16.398C74.5457 16.118 74.5417 15.802 74.5417 15.45V9.72H75.8017V15.39C75.8017 15.65 75.8037 15.876 75.8077 16.068C75.8157 16.26 75.8577 16.422 75.9337 16.554C76.0777 16.802 76.3057 16.944 76.6177 16.98C76.9337 17.012 77.3037 16.998 77.7277 16.938V18ZM73.2997 12.528V11.52H77.7277V12.528H73.2997Z" fill="#111111"/>
<path d="M11.2666 14.7822L8.24443 12.0891L7 13.198L11.2666 17L19 10.1089L17.7556 9L11.2666 14.7822Z" fill="url(#paint1_linear_1_19)"/>
<rect x="1" y="1" width="115" height="24" rx="12" stroke="url(#paint2_linear_1_19)" stroke-width="2"/>
<defs>
<linearGradient id="paint0_linear_1_19" x1="13" y1="5" x2="13" y2="21" gradientUnits="userSpaceOnUse">
<stop stop-color="#00B4D8"/>
<stop offset="1" stop-color="#0077B6"/>
</linearGradient>
<linearGradient id="paint1_linear_1_19" x1="13" y1="9" x2="13" y2="17" gradientUnits="userSpaceOnUse">
<stop stop-color="#00B4D8"/>
<stop offset="1" stop-color="#0077B6"/>
</linearGradient>
<linearGradient id="paint2_linear_1_19" x1="58.5" y1="1" x2="58.5" y2="25" gradientUnits="userSpaceOnUse">
<stop stop-color="#00B4D8"/>
<stop offset="1" stop-color="#0077B6"/>
</linearGradient>
</defs>
</svg>
