<svg width="144" height="74" viewBox="0 0 144 74" fill="none" xmlns="http://www.w3.org/2000/svg">
<path d="M9.58547 51.6758L0.705469 30.5158H6.94547L12.5855 46.3158L11.2655 46.5558L17.1855 30.5158H23.2655L13.9455 51.6758H9.58547Z" fill="#69696B"/>
<path d="M29.7067 51.6758V30.5158H35.3867V51.6758H29.7067ZM32.5067 26.1558C31.4134 26.1558 30.5601 25.8891 29.9467 25.3558C29.3334 24.8224 29.0267 24.0624 29.0267 23.0758C29.0267 22.1691 29.3334 21.4358 29.9467 20.8758C30.5867 20.2891 31.4401 19.9958 32.5067 19.9958C33.6001 19.9958 34.4534 20.2758 35.0667 20.8358C35.6801 21.3691 35.9867 22.1158 35.9867 23.0758C35.9867 24.0091 35.6667 24.7558 35.0267 25.3158C34.4134 25.8758 33.5734 26.1558 32.5067 26.1558Z" fill="#69696B"/>
<path d="M44.1378 51.6758V22.0758H49.8178V51.6758H44.1378Z" fill="#69696B"/>
<path d="M58.1378 51.6758V22.0758H63.8178V51.6758H58.1378Z" fill="#69696B"/>
<path d="M80.2327 52.0758C78.4727 52.0758 76.886 51.5958 75.4727 50.6358C74.0593 49.6758 72.9393 48.3691 72.1127 46.7158C71.286 45.0624 70.8727 43.1691 70.8727 41.0358C70.8727 38.9024 71.286 37.0224 72.1127 35.3958C72.966 33.7424 74.1127 32.4491 75.5527 31.5158C76.9927 30.5558 78.6327 30.0758 80.4727 30.0758C81.5127 30.0758 82.4593 30.2358 83.3127 30.5558C84.1927 30.8491 84.9527 31.2624 85.5927 31.7958C86.2593 32.3291 86.8193 32.9424 87.2727 33.6358C87.726 34.3291 88.046 35.0758 88.2327 35.8758L87.0327 35.6758V30.5158H92.6727V51.6758H86.9527V46.5958L88.2327 46.4758C88.0193 47.2224 87.6727 47.9291 87.1927 48.5958C86.7127 49.2624 86.1127 49.8624 85.3927 50.3958C84.6993 50.9024 83.9127 51.3158 83.0327 51.6358C82.1527 51.9291 81.2193 52.0758 80.2327 52.0758ZM81.7927 47.1558C82.8593 47.1558 83.7927 46.9024 84.5927 46.3958C85.3927 45.8891 86.006 45.1824 86.4327 44.2758C86.886 43.3424 87.1127 42.2624 87.1127 41.0358C87.1127 39.8358 86.886 38.7824 86.4327 37.8758C86.006 36.9691 85.3927 36.2624 84.5927 35.7558C83.7927 35.2224 82.8593 34.9558 81.7927 34.9558C80.7527 34.9558 79.8327 35.2224 79.0327 35.7558C78.2593 36.2624 77.646 36.9691 77.1927 37.8758C76.7393 38.7824 76.5127 39.8358 76.5127 41.0358C76.5127 42.2624 76.7393 43.3424 77.1927 44.2758C77.646 45.1824 78.2593 45.8891 79.0327 46.3958C79.8327 46.9024 80.7527 47.1558 81.7927 47.1558Z" fill="#69696B"/>
<path d="M127.233 52.0758C125.473 52.0758 123.886 51.5958 122.473 50.6358C121.059 49.6758 119.939 48.3691 119.113 46.7158C118.286 45.0624 117.873 43.1691 117.873 41.0358C117.873 38.9024 118.286 37.0224 119.113 35.3958C119.966 33.7424 121.113 32.4491 122.553 31.5158C123.993 30.5558 125.633 30.0758 127.473 30.0758C128.513 30.0758 129.459 30.2358 130.313 30.5558C131.193 30.8491 131.953 31.2624 132.593 31.7958C133.259 32.3291 133.819 32.9424 134.273 33.6358C134.726 34.3291 135.046 35.0758 135.233 35.8758L134.033 35.6758V30.5158H139.673V51.6758H133.953V46.5958L135.233 46.4758C135.019 47.2224 134.673 47.9291 134.193 48.5958C133.713 49.2624 133.113 49.8624 132.393 50.3958C131.699 50.9024 130.913 51.3158 130.033 51.6358C129.153 51.9291 128.219 52.0758 127.233 52.0758ZM128.793 47.1558C129.859 47.1558 130.793 46.9024 131.593 46.3958C132.393 45.8891 133.006 45.1824 133.433 44.2758C133.886 43.3424 134.113 42.2624 134.113 41.0358C134.113 39.8358 133.886 38.7824 133.433 37.8758C133.006 36.9691 132.393 36.2624 131.593 35.7558C130.793 35.2224 129.859 34.9558 128.793 34.9558C127.753 34.9558 126.833 35.2224 126.033 35.7558C125.259 36.2624 124.646 36.9691 124.193 37.8758C123.739 38.7824 123.513 39.8358 123.513 41.0358C123.513 42.2624 123.739 43.3424 124.193 44.2758C124.646 45.1824 125.259 45.8891 126.033 46.3958C126.833 46.9024 127.753 47.1558 128.793 47.1558Z" fill="#69696B"/>
<path d="M96.2939 62.6461L94.953 56.9406C96.2964 57.2384 97.4158 57.2899 98.3111 57.0951C99.2065 56.9003 99.923 56.4036 100.461 55.605C101.023 54.8446 101.459 53.7615 101.771 52.3556L106.976 28.8777L113.63 30.3529L108.072 55.4242C107.615 57.4861 106.844 59.1178 105.758 60.3193C104.703 61.5277 103.378 62.3319 101.781 62.7318C100.185 63.1318 98.3558 63.1032 96.2939 62.6461ZM111.576 24.5385C110.295 24.2545 109.365 23.7205 108.785 22.9363C108.205 22.1522 108.043 21.1822 108.299 20.0262C108.535 18.964 109.084 18.1845 109.948 17.6878C110.85 17.1667 111.926 17.0446 113.176 17.3217C114.457 17.6057 115.384 18.1553 115.957 18.9707C116.537 19.7548 116.702 20.7092 116.453 21.8339C116.211 22.9274 115.642 23.719 114.747 24.2089C113.883 24.7057 112.826 24.8155 111.576 24.5385Z" fill="#69696B"/>
<circle cx="111.792" cy="21.4681" r="5" transform="rotate(10 111.792 21.4681)" fill="url(#paint0_linear_1531_5411)"/>
<defs>
<linearGradient id="paint0_linear_1531_5411" x1="111.792" y1="16.4681" x2="111.792" y2="26.4681" gradientUnits="userSpaceOnUse">
<stop stop-color="#90E0EF"/>
<stop offset="1" stop-color="#025492"/>
</linearGradient>
</defs>
</svg>
