<svg width="52" height="18" viewBox="0 0 52 18" fill="none" xmlns="http://www.w3.org/2000/svg">
<path d="M3.90656 14L0.354563 5.472H3.66656L5.57056 11.84L4.80256 11.856L6.72256 5.472H10.0186L6.29056 14H3.90656ZM11.3644 14V5.472H14.3404V14H11.3644ZM12.8524 3.856C12.3084 3.856 11.8871 3.73333 11.5884 3.488C11.2898 3.232 11.1404 2.87467 11.1404 2.416C11.1404 1.98933 11.2898 1.64267 11.5884 1.376C11.8978 1.09867 12.3191 0.959999 12.8524 0.959999C13.3858 0.959999 13.8018 1.088 14.1004 1.344C14.4098 1.58933 14.5644 1.94667 14.5644 2.416C14.5644 2.84267 14.4098 3.18933 14.1004 3.456C13.7911 3.72267 13.3751 3.856 12.8524 3.856ZM16.6907 14V2.16H19.6667V14H16.6907ZM21.9407 14V2.16H24.9167V14H21.9407ZM30.1064 14.144C29.4024 14.144 28.7678 13.9573 28.2024 13.584C27.6478 13.2 27.2051 12.6773 26.8744 12.016C26.5544 11.344 26.3944 10.5813 26.3944 9.728C26.3944 8.85333 26.5544 8.08533 26.8744 7.424C27.1944 6.76267 27.6371 6.24533 28.2024 5.872C28.7678 5.488 29.4184 5.296 30.1544 5.296C30.5491 5.296 30.9118 5.34933 31.2424 5.456C31.5731 5.56267 31.8611 5.71733 32.1064 5.92C32.3518 6.12267 32.5651 6.352 32.7464 6.608C32.9278 6.864 33.0771 7.14133 33.1944 7.44L32.5864 7.408V5.472H35.5144V14H32.5224V11.92L33.1784 11.952C33.0824 12.2613 32.9384 12.5493 32.7464 12.816C32.5651 13.0827 32.3411 13.3173 32.0744 13.52C31.8078 13.712 31.5091 13.8667 31.1784 13.984C30.8584 14.0907 30.5011 14.144 30.1064 14.144ZM30.9544 11.696C31.2958 11.696 31.5891 11.6213 31.8344 11.472C32.0798 11.312 32.2664 11.0827 32.3944 10.784C32.5331 10.4853 32.6024 10.1333 32.6024 9.728C32.6024 9.312 32.5331 8.95467 32.3944 8.656C32.2664 8.35733 32.0798 8.13333 31.8344 7.984C31.5891 7.824 31.2958 7.744 30.9544 7.744C30.6131 7.744 30.3198 7.824 30.0744 7.984C29.8398 8.13333 29.6584 8.35733 29.5304 8.656C29.4024 8.95467 29.3384 9.312 29.3384 9.728C29.3384 10.1333 29.4024 10.4853 29.5304 10.784C29.6584 11.0827 29.8398 11.312 30.0744 11.472C30.3198 11.6213 30.6131 11.696 30.9544 11.696ZM37.0968 17.44L35.9608 15.136C36.4835 15.136 36.8835 15.0773 37.1608 14.96C37.4488 14.8427 37.6461 14.6347 37.7528 14.336C37.8595 14.0373 37.9128 13.6107 37.9128 13.056V5.472H40.8888V13.76C40.8888 14.6453 40.7448 15.3547 40.4568 15.888C40.1795 16.432 39.7581 16.8267 39.1928 17.072C38.6381 17.3173 37.9395 17.44 37.0968 17.44ZM39.4488 3.856C38.9048 3.856 38.4835 3.73333 38.1848 3.488C37.8861 3.232 37.7368 2.87467 37.7368 2.416C37.7368 1.98933 37.8861 1.64267 38.1848 1.376C38.4941 1.09867 38.9155 0.959999 39.4488 0.959999C39.9821 0.959999 40.3981 1.088 40.6968 1.344C41.0061 1.58933 41.1608 1.94667 41.1608 2.416C41.1608 2.84267 41.0061 3.18933 40.6968 3.456C40.3875 3.72267 39.9715 3.856 39.4488 3.856ZM46.2471 14.144C45.5431 14.144 44.9084 13.9573 44.3431 13.584C43.7884 13.2 43.3457 12.6773 43.0151 12.016C42.6951 11.344 42.5351 10.5813 42.5351 9.728C42.5351 8.85333 42.6951 8.08533 43.0151 7.424C43.3351 6.76267 43.7777 6.24533 44.3431 5.872C44.9084 5.488 45.5591 5.296 46.2951 5.296C46.6897 5.296 47.0524 5.34933 47.3831 5.456C47.7137 5.56267 48.0017 5.71733 48.2471 5.92C48.4924 6.12267 48.7057 6.352 48.8871 6.608C49.0684 6.864 49.2177 7.14133 49.3351 7.44L48.7271 7.408V5.472H51.6551V14H48.6631V11.92L49.3191 11.952C49.2231 12.2613 49.0791 12.5493 48.8871 12.816C48.7057 13.0827 48.4817 13.3173 48.2151 13.52C47.9484 13.712 47.6497 13.8667 47.3191 13.984C46.9991 14.0907 46.6417 14.144 46.2471 14.144ZM47.0951 11.696C47.4364 11.696 47.7297 11.6213 47.9751 11.472C48.2204 11.312 48.4071 11.0827 48.5351 10.784C48.6737 10.4853 48.7431 10.1333 48.7431 9.728C48.7431 9.312 48.6737 8.95467 48.5351 8.656C48.4071 8.35733 48.2204 8.13333 47.9751 7.984C47.7297 7.824 47.4364 7.744 47.0951 7.744C46.7537 7.744 46.4604 7.824 46.2151 7.984C45.9804 8.13333 45.7991 8.35733 45.6711 8.656C45.5431 8.95467 45.4791 9.312 45.4791 9.728C45.4791 10.1333 45.5431 10.4853 45.6711 10.784C45.7991 11.0827 45.9804 11.312 46.2151 11.472C46.4604 11.6213 46.7537 11.696 47.0951 11.696Z" fill="url(#paint0_linear_1348_1159)"/>
<defs>
<linearGradient id="paint0_linear_1348_1159" x1="26.5" y1="-4" x2="26.5" y2="20" gradientUnits="userSpaceOnUse">
<stop stop-color="#00B4D8"/>
<stop offset="1" stop-color="#0077B6"/>
</linearGradient>
</defs>
</svg>
