<svg width="166" height="55" viewBox="0 0 166 55" fill="none" xmlns="http://www.w3.org/2000/svg">
<g clip-path="url(#clip0_4_2)">
<path d="M6.44718 16.4009L15.218 37.8801L24.3222 16.4009H30.3847L17.0514 46.4843H12.8014L0.0930176 16.4009H6.44718Z" fill="#545454"/>
<path d="M39.7335 9.85925C38.3846 9.85925 37.3846 9.52071 36.7335 8.83842C36.0929 8.14571 35.7752 7.24467 35.7752 6.13009C35.7752 5.18738 36.0929 4.33321 36.7335 3.56759C37.3846 2.80717 38.3846 2.42175 39.7335 2.42175C41.0669 2.42175 42.0512 2.77071 42.6919 3.46342C43.3429 4.14571 43.671 5.03634 43.671 6.13009C43.671 7.08842 43.3429 7.953 42.6919 8.71342C42.0512 9.47905 41.0669 9.85925 39.7335 9.85925ZM42.7544 46.4843H36.8585V16.4009H42.7544V46.4843Z" fill="#545454"/>
<path d="M51.7023 46.4843V4.08842H57.5981V46.4843H51.7023Z" fill="#545454"/>
<path d="M66.0252 46.4843V4.08842H71.921V46.4843H66.0252Z" fill="#545454"/>
<path d="M108.369 16.4009V46.4843H102.411V41.8384C101.494 43.1041 100.129 44.2916 98.3272 45.4009C96.5356 46.5103 94.4574 47.0676 92.0981 47.0676C89.5668 47.0676 87.2647 46.4009 85.1814 45.0676C83.1085 43.7238 81.4627 41.8697 80.2439 39.5051C79.0199 37.1301 78.4106 34.4166 78.4106 31.3593C78.4106 28.3072 79.0356 25.6041 80.2856 23.2551C81.546 20.9113 83.2856 19.078 85.4939 17.7551C87.7127 16.4374 90.2439 15.7759 93.0772 15.7759C95.171 15.7759 97.0147 16.2343 98.5981 17.1509C100.181 18.0676 101.452 19.1405 102.411 20.3593V16.4009H108.369ZM93.4731 41.6093C95.3064 41.6093 96.9106 41.1666 98.2856 40.2759C99.6606 39.3749 100.728 38.1509 101.494 36.6093C102.254 35.0572 102.64 33.3072 102.64 31.3593C102.64 29.4426 102.254 27.7238 101.494 26.1926C100.728 24.6666 99.6606 23.4582 98.2856 22.5676C96.9106 21.6666 95.3064 21.2134 93.4731 21.2134C91.7074 21.2134 90.1397 21.6613 88.7647 22.5468C87.3897 23.4218 86.3168 24.6249 85.5564 26.1509C84.7908 27.6822 84.4106 29.4166 84.4106 31.3593C84.4106 33.3072 84.7908 35.0572 85.5564 36.6093C86.3168 38.1509 87.3897 39.3749 88.7647 40.2759C90.1397 41.1666 91.7074 41.6093 93.4731 41.6093Z" fill="#545454"/>
<path d="M125.16 46.5238C124.66 48.4925 123.791 50.0915 122.556 51.3155C121.332 52.5342 119.858 53.3415 118.139 53.7321C116.431 54.1332 114.634 54.0967 112.744 53.628L111.702 48.6905C113.968 49.2582 115.749 49.0759 117.056 48.1488C118.374 47.2321 119.291 45.7425 119.806 43.6905L127.098 14.5446L132.806 15.9821L125.16 46.5238ZM131.785 8.62796C130.462 8.31025 129.577 7.74254 129.119 6.91963C128.671 6.08629 128.582 5.13838 128.848 4.06546C129.082 3.13838 129.603 2.37796 130.41 1.79463C131.228 1.21129 132.296 1.08108 133.619 1.39879C134.91 1.72171 135.785 2.29463 136.244 3.12796C136.702 3.95088 136.796 4.89879 136.535 5.98213C136.296 6.91442 135.77 7.66963 134.952 8.25296C134.129 8.82588 133.077 8.95088 131.785 8.62796Z" fill="#545454"/>
<mask id="mask0_4_2" style="mask-type:luminance" maskUnits="userSpaceOnUse" x="127" y="0" width="12" height="13">
<path d="M127.24 0.96875H138.646V12.375H127.24V0.96875Z" fill="white"/>
</mask>
<g mask="url(#mask0_4_2)">
<mask id="mask1_4_2" style="mask-type:luminance" maskUnits="userSpaceOnUse" x="127" y="0" width="12" height="13">
<path d="M132.943 0.96875C129.792 0.96875 127.24 3.52083 127.24 6.67188C127.24 9.82292 129.792 12.375 132.943 12.375C136.094 12.375 138.646 9.82292 138.646 6.67188C138.646 3.52083 136.094 0.96875 132.943 0.96875Z" fill="white"/>
</mask>
<g mask="url(#mask1_4_2)">
<path d="M127.24 0.96875H138.646V12.375H127.24V0.96875Z" fill="#025492"/>
</g>
</g>
<path d="M165.111 15.5038V45.608H159.152V40.9622C158.236 42.2278 156.871 43.4153 155.069 44.5247C153.277 45.634 151.194 46.1913 148.819 46.1913C146.303 46.1913 144.006 45.5247 141.923 44.1913C139.84 42.8476 138.184 40.9934 136.965 38.6288C135.741 36.2538 135.131 33.5351 135.131 30.4622C135.131 27.4101 135.756 24.707 137.006 22.358C138.267 20.0142 140.006 18.1809 142.215 16.858C144.434 15.5403 146.965 14.8788 149.798 14.8788C151.892 14.8788 153.736 15.3372 155.319 16.2538C156.913 17.1705 158.194 18.2434 159.152 19.4622V15.5038H165.111ZM150.194 40.733C152.027 40.733 153.631 40.2903 155.006 39.3997C156.392 38.4986 157.47 37.2747 158.236 35.733C158.996 34.1809 159.381 32.4205 159.381 30.4622C159.381 28.5611 158.996 26.8476 158.236 25.3163C157.47 23.7903 156.392 22.5767 155.006 21.6705C153.631 20.7695 152.027 20.3163 150.194 20.3163C148.444 20.3163 146.881 20.7642 145.506 21.6497C144.131 22.5247 143.059 23.7278 142.298 25.2538C141.532 26.7851 141.152 28.5195 141.152 30.4622C141.152 32.4205 141.532 34.1809 142.298 35.733C143.059 37.2747 144.131 38.4986 145.506 39.3997C146.881 40.2903 148.444 40.733 150.194 40.733Z" fill="#545454"/>
</g>
<defs>
<clipPath id="clip0_4_2">
<rect width="166" height="55" fill="white"/>
</clipPath>
</defs>
</svg>
