<svg width="144" height="74" viewBox="0 0 144 74" fill="none" xmlns="http://www.w3.org/2000/svg">
<path d="M9.58547 51.6753L0.705469 30.5153H6.94547L12.5855 46.3153L11.2655 46.5553L17.1855 30.5153H23.2655L13.9455 51.6753H9.58547Z" fill="white"/>
<path d="M29.7067 51.6753V30.5153H35.3867V51.6753H29.7067ZM32.5067 26.1553C31.4134 26.1553 30.5601 25.8886 29.9467 25.3553C29.3334 24.822 29.0267 24.062 29.0267 23.0753C29.0267 22.1686 29.3334 21.4353 29.9467 20.8753C30.5867 20.2886 31.4401 19.9953 32.5067 19.9953C33.6001 19.9953 34.4534 20.2753 35.0667 20.8353C35.6801 21.3686 35.9867 22.1153 35.9867 23.0753C35.9867 24.0086 35.6667 24.7553 35.0267 25.3153C34.4134 25.8753 33.5734 26.1553 32.5067 26.1553Z" fill="white"/>
<path d="M44.1378 51.6753V22.0753H49.8178V51.6753H44.1378Z" fill="white"/>
<path d="M58.1378 51.6753V22.0753H63.8178V51.6753H58.1378Z" fill="white"/>
<path d="M80.2327 52.0753C78.4727 52.0753 76.886 51.5953 75.4727 50.6353C74.0593 49.6753 72.9393 48.3686 72.1127 46.7153C71.286 45.062 70.8727 43.1686 70.8727 41.0353C70.8727 38.902 71.286 37.022 72.1127 35.3953C72.966 33.742 74.1127 32.4486 75.5527 31.5153C76.9927 30.5553 78.6327 30.0753 80.4727 30.0753C81.5127 30.0753 82.4593 30.2353 83.3127 30.5553C84.1927 30.8486 84.9527 31.262 85.5927 31.7953C86.2593 32.3286 86.8193 32.942 87.2727 33.6353C87.726 34.3286 88.046 35.0753 88.2327 35.8753L87.0327 35.6753V30.5153H92.6727V51.6753H86.9527V46.5953L88.2327 46.4753C88.0193 47.222 87.6727 47.9286 87.1927 48.5953C86.7127 49.262 86.1127 49.862 85.3927 50.3953C84.6993 50.902 83.9127 51.3153 83.0327 51.6353C82.1527 51.9286 81.2193 52.0753 80.2327 52.0753ZM81.7927 47.1553C82.8593 47.1553 83.7927 46.902 84.5927 46.3953C85.3927 45.8886 86.006 45.182 86.4327 44.2753C86.886 43.342 87.1127 42.262 87.1127 41.0353C87.1127 39.8353 86.886 38.782 86.4327 37.8753C86.006 36.9686 85.3927 36.262 84.5927 35.7553C83.7927 35.222 82.8593 34.9553 81.7927 34.9553C80.7527 34.9553 79.8327 35.222 79.0327 35.7553C78.2593 36.262 77.646 36.9686 77.1927 37.8753C76.7393 38.782 76.5127 39.8353 76.5127 41.0353C76.5127 42.262 76.7393 43.342 77.1927 44.2753C77.646 45.182 78.2593 45.8886 79.0327 46.3953C79.8327 46.902 80.7527 47.1553 81.7927 47.1553Z" fill="white"/>
<path d="M127.233 52.0753C125.473 52.0753 123.886 51.5953 122.473 50.6353C121.059 49.6753 119.939 48.3686 119.113 46.7153C118.286 45.062 117.873 43.1686 117.873 41.0353C117.873 38.902 118.286 37.022 119.113 35.3953C119.966 33.742 121.113 32.4486 122.553 31.5153C123.993 30.5553 125.633 30.0753 127.473 30.0753C128.513 30.0753 129.459 30.2353 130.313 30.5553C131.193 30.8486 131.953 31.262 132.593 31.7953C133.259 32.3286 133.819 32.942 134.273 33.6353C134.726 34.3286 135.046 35.0753 135.233 35.8753L134.033 35.6753V30.5153H139.673V51.6753H133.953V46.5953L135.233 46.4753C135.019 47.222 134.673 47.9286 134.193 48.5953C133.713 49.262 133.113 49.862 132.393 50.3953C131.699 50.902 130.913 51.3153 130.033 51.6353C129.153 51.9286 128.219 52.0753 127.233 52.0753ZM128.793 47.1553C129.859 47.1553 130.793 46.902 131.593 46.3953C132.393 45.8886 133.006 45.182 133.433 44.2753C133.886 43.342 134.113 42.262 134.113 41.0353C134.113 39.8353 133.886 38.782 133.433 37.8753C133.006 36.9686 132.393 36.262 131.593 35.7553C130.793 35.222 129.859 34.9553 128.793 34.9553C127.753 34.9553 126.833 35.222 126.033 35.7553C125.259 36.262 124.646 36.9686 124.193 37.8753C123.739 38.782 123.513 39.8353 123.513 41.0353C123.513 42.262 123.739 43.342 124.193 44.2753C124.646 45.182 125.259 45.8886 126.033 46.3953C126.833 46.902 127.753 47.1553 128.793 47.1553Z" fill="white"/>
<path d="M96.2939 62.6451L94.953 56.9396C96.2964 57.2375 97.4158 57.289 98.3111 57.0942C99.2065 56.8993 99.923 56.4026 100.461 55.6041C101.023 54.8437 101.459 53.7605 101.771 52.3546L106.976 28.8767L113.63 30.3519L108.072 55.4232C107.615 57.4852 106.844 59.1169 105.758 60.3183C104.703 61.5267 103.378 62.3309 101.781 62.7309C100.185 63.1308 98.3558 63.1022 96.2939 62.6451ZM111.576 24.5375C110.295 24.2535 109.365 23.7195 108.785 22.9353C108.205 22.1512 108.043 21.1812 108.299 20.0253C108.535 18.963 109.084 18.1836 109.948 17.6868C110.85 17.1657 111.926 17.0437 113.176 17.3207C114.457 17.6047 115.384 18.1544 115.957 18.9697C116.537 19.7539 116.702 20.7083 116.453 21.833C116.211 22.9264 115.642 23.7181 114.747 24.2079C113.883 24.7047 112.826 24.8145 111.576 24.5375Z" fill="white"/>
<circle cx="111.792" cy="21.4676" r="5" transform="rotate(10 111.792 21.4676)" fill="url(#paint0_linear_1348_4373)"/>
<defs>
<linearGradient id="paint0_linear_1348_4373" x1="111.792" y1="16.4676" x2="111.792" y2="26.4676" gradientUnits="userSpaceOnUse">
<stop stop-color="#90E0EF"/>
<stop offset="1" stop-color="#00B4D8"/>
</linearGradient>
</defs>
</svg>
