<!-- <svg width="52" height="18" viewBox="0 0 52 18" fill="none" xmlns="http://www.w3.org/2000/svg">
<path d="M3.90656 14L0.354563 5.472H3.66656L5.57056 11.84L4.80256 11.856L6.72256 5.472H10.0186L6.29056 14H3.90656ZM11.3644 14V5.472H14.3404V14H11.3644ZM12.8524 3.856C12.3084 3.856 11.8871 3.73333 11.5884 3.488C11.2898 3.232 11.1404 2.87467 11.1404 2.416C11.1404 1.98933 11.2898 1.64267 11.5884 1.376C11.8978 1.09867 12.3191 0.959999 12.8524 0.959999C13.3858 0.959999 13.8018 1.088 14.1004 1.344C14.4098 1.58933 14.5644 1.94667 14.5644 2.416C14.5644 2.84267 14.4098 3.18933 14.1004 3.456C13.7911 3.72267 13.3751 3.856 12.8524 3.856ZM16.6907 14V2.16H19.6667V14H16.6907ZM21.9407 14V2.16H24.9167V14H21.9407ZM30.1064 14.144C29.4024 14.144 28.7678 13.9573 28.2024 13.584C27.6478 13.2 27.2051 12.6773 26.8744 12.016C26.5544 11.344 26.3944 10.5813 26.3944 9.728C26.3944 8.85333 26.5544 8.08533 26.8744 7.424C27.1944 6.76267 27.6371 6.24533 28.2024 5.872C28.7678 5.488 29.4184 5.296 30.1544 5.296C30.5491 5.296 30.9118 5.34933 31.2424 5.456C31.5731 5.56267 31.8611 5.71733 32.1064 5.92C32.3518 6.12267 32.5651 6.352 32.7464 6.608C32.9278 6.864 33.0771 7.14133 33.1944 7.44L32.5864 7.408V5.472H35.5144V14H32.5224V11.92L33.1784 11.952C33.0824 12.2613 32.9384 12.5493 32.7464 12.816C32.5651 13.0827 32.3411 13.3173 32.0744 13.52C31.8078 13.712 31.5091 13.8667 31.1784 13.984C30.8584 14.0907 30.5011 14.144 30.1064 14.144ZM30.9544 11.696C31.2958 11.696 31.5891 11.6213 31.8344 11.472C32.0798 11.312 32.2664 11.0827 32.3944 10.784C32.5331 10.4853 32.6024 10.1333 32.6024 9.728C32.6024 9.312 32.5331 8.95467 32.3944 8.656C32.2664 8.35733 32.0798 8.13333 31.8344 7.984C31.5891 7.824 31.2958 7.744 30.9544 7.744C30.6131 7.744 30.3198 7.824 30.0744 7.984C29.8398 8.13333 29.6584 8.35733 29.5304 8.656C29.4024 8.95467 29.3384 9.312 29.3384 9.728C29.3384 10.1333 29.4024 10.4853 29.5304 10.784C29.6584 11.0827 29.8398 11.312 30.0744 11.472C30.3198 11.6213 30.6131 11.696 30.9544 11.696ZM37.0968 17.44L35.9608 15.136C36.4835 15.136 36.8835 15.0773 37.1608 14.96C37.4488 14.8427 37.6461 14.6347 37.7528 14.336C37.8595 14.0373 37.9128 13.6107 37.9128 13.056V5.472H40.8888V13.76C40.8888 14.6453 40.7448 15.3547 40.4568 15.888C40.1795 16.432 39.7581 16.8267 39.1928 17.072C38.6381 17.3173 37.9395 17.44 37.0968 17.44ZM39.4488 3.856C38.9048 3.856 38.4835 3.73333 38.1848 3.488C37.8861 3.232 37.7368 2.87467 37.7368 2.416C37.7368 1.98933 37.8861 1.64267 38.1848 1.376C38.4941 1.09867 38.9155 0.959999 39.4488 0.959999C39.9821 0.959999 40.3981 1.088 40.6968 1.344C41.0061 1.58933 41.1608 1.94667 41.1608 2.416C41.1608 2.84267 41.0061 3.18933 40.6968 3.456C40.3875 3.72267 39.9715 3.856 39.4488 3.856ZM46.2471 14.144C45.5431 14.144 44.9084 13.9573 44.3431 13.584C43.7884 13.2 43.3457 12.6773 43.0151 12.016C42.6951 11.344 42.5351 10.5813 42.5351 9.728C42.5351 8.85333 42.6951 8.08533 43.0151 7.424C43.3351 6.76267 43.7777 6.24533 44.3431 5.872C44.9084 5.488 45.5591 5.296 46.2951 5.296C46.6897 5.296 47.0524 5.34933 47.3831 5.456C47.7137 5.56267 48.0017 5.71733 48.2471 5.92C48.4924 6.12267 48.7057 6.352 48.8871 6.608C49.0684 6.864 49.2177 7.14133 49.3351 7.44L48.7271 7.408V5.472H51.6551V14H48.6631V11.92L49.3191 11.952C49.2231 12.2613 49.0791 12.5493 48.8871 12.816C48.7057 13.0827 48.4817 13.3173 48.2151 13.52C47.9484 13.712 47.6497 13.8667 47.3191 13.984C46.9991 14.0907 46.6417 14.144 46.2471 14.144ZM47.0951 11.696C47.4364 11.696 47.7297 11.6213 47.9751 11.472C48.2204 11.312 48.4071 11.0827 48.5351 10.784C48.6737 10.4853 48.7431 10.1333 48.7431 9.728C48.7431 9.312 48.6737 8.95467 48.5351 8.656C48.4071 8.35733 48.2204 8.13333 47.9751 7.984C47.7297 7.824 47.4364 7.744 47.0951 7.744C46.7537 7.744 46.4604 7.824 46.2151 7.984C45.9804 8.13333 45.7991 8.35733 45.6711 8.656C45.5431 8.95467 45.4791 9.312 45.4791 9.728C45.4791 10.1333 45.5431 10.4853 45.6711 10.784C45.7991 11.0827 45.9804 11.312 46.2151 11.472C46.4604 11.6213 46.7537 11.696 47.0951 11.696Z" fill="url(#paint0_linear_1348_1159)"/>
<defs>
<linearGradient id="paint0_linear_1348_1159" x1="26.5" y1="-4" x2="26.5" y2="20" gradientUnits="userSpaceOnUse">
<stop stop-color="#025492"/>
<stop offset="1" stop-color="#0077B6"/>
</linearGradient>
</defs>
</svg> -->

<svg width="100" height="50" viewBox="0 0 74 38" fill="none" xmlns="http://www.w3.org/2000/svg">
<path d="M5.45317 25.873L0.928892 15.0922H4.10811L6.98164 23.1422L6.30911 23.2645L9.3253 15.0922H12.423L7.67455 25.873H5.45317Z" fill="#69696B"/>
<path d="M15.507 25.873V15.0922H18.4009V25.873H15.507ZM16.9335 12.8708C16.3765 12.8708 15.9417 12.735 15.6292 12.4633C15.3168 12.1915 15.1605 11.8043 15.1605 11.3016C15.1605 10.8397 15.3168 10.4661 15.6292 10.1807C15.9553 9.88183 16.3901 9.73238 16.9335 9.73238C17.4906 9.73238 17.9253 9.87504 18.2378 10.1604C18.5503 10.4321 18.7066 10.8125 18.7066 11.3016C18.7066 11.7771 18.5435 12.1576 18.2175 12.4429C17.905 12.7282 17.477 12.8708 16.9335 12.8708Z" fill="#69696B"/>
<path d="M22.6142 25.873V10.7921H25.5081V25.873H22.6142Z" fill="#69696B"/>
<path d="M29.7471 25.873V10.7921H32.641V25.873H29.7471Z" fill="#69696B"/>
<path d="M40.183 26.0768C39.2863 26.0768 38.4779 25.8323 37.7578 25.3432C37.0378 24.8541 36.4671 24.1883 36.0459 23.346C35.6248 22.5036 35.4142 21.539 35.4142 20.4521C35.4142 19.3652 35.6248 18.4073 36.0459 17.5785C36.4807 16.7362 37.0649 16.0772 37.7986 15.6017C38.5323 15.1126 39.3678 14.868 40.3053 14.868C40.8352 14.868 41.3175 14.9496 41.7522 15.1126C42.2006 15.2621 42.5878 15.4726 42.9139 15.7444C43.2535 16.0161 43.5389 16.3286 43.7698 16.6818C44.0008 17.0351 44.1638 17.4155 44.2589 17.8231L43.6475 17.7212V15.0922H46.5211V25.873H43.6068V23.2848L44.2589 23.2237C44.1502 23.6041 43.9736 23.9642 43.7291 24.3038C43.4845 24.6435 43.1788 24.9492 42.812 25.2209C42.4587 25.479 42.0579 25.6896 41.6096 25.8527C41.1612 26.0021 40.6857 26.0768 40.183 26.0768ZM40.9778 23.5701C41.5213 23.5701 41.9968 23.4411 42.4044 23.1829C42.812 22.9248 43.1245 22.5648 43.3418 22.1028C43.5728 21.6273 43.6883 21.077 43.6883 20.4521C43.6883 19.8407 43.5728 19.304 43.3418 18.8421C43.1245 18.3801 42.812 18.0201 42.4044 17.762C41.9968 17.4902 41.5213 17.3544 40.9778 17.3544C40.4479 17.3544 39.9792 17.4902 39.5716 17.762C39.1776 18.0201 38.8651 18.3801 38.6342 18.8421C38.4032 19.304 38.2877 19.8407 38.2877 20.4521C38.2877 21.077 38.4032 21.6273 38.6342 22.1028C38.8651 22.5648 39.1776 22.9248 39.5716 23.1829C39.9792 23.4411 40.4479 23.5701 40.9778 23.5701Z" fill="#69696B"/>
<path d="M64.1291 26.0768C63.2323 26.0768 62.424 25.8323 61.7039 25.3432C60.9838 24.8541 60.4132 24.1883 59.992 23.346C59.5708 22.5036 59.3602 21.539 59.3602 20.4521C59.3602 19.3652 59.5708 18.4073 59.992 17.5785C60.4268 16.7362 61.011 16.0772 61.7446 15.6017C62.4783 15.1126 63.3139 14.868 64.2513 14.868C64.7812 14.868 65.2635 14.9496 65.6983 15.1126C66.1466 15.2621 66.5338 15.4726 66.8599 15.7444C67.1996 16.0161 67.4849 16.3286 67.7159 16.6818C67.9468 17.0351 68.1099 17.4155 68.205 17.8231L67.5936 17.7212V15.0922H70.4671V25.873H67.5528V23.2848L68.205 23.2237C68.0963 23.6041 67.9197 23.9642 67.6751 24.3038C67.4305 24.6435 67.1249 24.9492 66.758 25.2209C66.4048 25.479 66.004 25.6896 65.5556 25.8527C65.1073 26.0021 64.6317 26.0768 64.1291 26.0768ZM64.9239 23.5701C65.4673 23.5701 65.9428 23.4411 66.3504 23.1829C66.758 22.9248 67.0705 22.5648 67.2879 22.1028C67.5189 21.6273 67.6343 21.077 67.6343 20.4521C67.6343 19.8407 67.5189 19.304 67.2879 18.8421C67.0705 18.3801 66.758 18.0201 66.3504 17.762C65.9428 17.4902 65.4673 17.3544 64.9239 17.3544C64.394 17.3544 63.9253 17.4902 63.5177 17.762C63.1237 18.0201 62.8112 18.3801 62.5802 18.8421C62.3492 19.304 62.2337 19.8407 62.2337 20.4521C62.2337 21.077 62.3492 21.6273 62.5802 22.1028C62.8112 22.5648 63.1237 22.9248 63.5177 23.1829C63.9253 23.4411 64.394 23.5701 64.9239 23.5701Z" fill="#69696B"/>
<path d="M48.439 31.7555L47.7558 28.8486C48.4403 29.0003 49.0106 29.0266 49.4668 28.9273C49.923 28.8281 50.288 28.575 50.5619 28.1681C50.8482 27.7807 51.0708 27.2289 51.2296 26.5126L53.8814 14.5508L57.2718 15.3024L54.44 28.076C54.2071 29.1265 53.814 29.9579 53.2608 30.57C52.7235 31.1857 52.0482 31.5954 51.2349 31.7992C50.4215 32.0029 49.4896 31.9884 48.439 31.7555ZM56.2252 12.34C55.5726 12.1953 55.0985 11.9232 54.803 11.5237C54.5075 11.1242 54.425 10.63 54.5556 10.0411C54.6755 9.49988 54.9556 9.10274 55.3958 8.84964C55.8555 8.58415 56.4036 8.52198 57.0403 8.66313C57.6929 8.80781 58.1652 9.08786 58.4572 9.50329C58.7528 9.90279 58.837 10.3891 58.71 10.9621C58.5865 11.5192 58.2966 11.9225 57.8405 12.1721C57.4003 12.4252 56.8619 12.4812 56.2252 12.34Z" fill="#69696B"/>
<circle cx="57.1404" cy="10.9394" r="2.54745" transform="rotate(10 57.1404 10.9394)" fill="url(#paint0_linear_47_17714)"/>
<defs>
<linearGradient id="paint0_linear_47_17714" x1="57.1404" y1="8.39194" x2="57.1404" y2="13.4868" gradientUnits="userSpaceOnUse">
<stop stop-color="#90E0EF"/>
<stop offset="1" stop-color="#025492"/>
</linearGradient>
</defs>
</svg>

