<svg width="302" height="44" viewBox="0 0 302 44" fill="none" xmlns="http://www.w3.org/2000/svg">
<rect x="1.25" y="1" width="299" height="42" rx="7" fill="#F2F2F5"/>
<path d="M124.546 28.24C123.719 28.24 122.973 28.0987 122.306 27.816C121.645 27.528 121.098 27.12 120.666 26.592C120.239 26.0587 119.962 25.4267 119.834 24.696L121.578 24.432C121.754 25.136 122.122 25.6853 122.682 26.08C123.242 26.4693 123.895 26.664 124.642 26.664C125.106 26.664 125.533 26.592 125.922 26.448C126.311 26.2987 126.623 26.088 126.858 25.816C127.098 25.5387 127.218 25.208 127.218 24.824C127.218 24.616 127.181 24.432 127.106 24.272C127.037 24.112 126.938 23.9733 126.81 23.856C126.687 23.7333 126.535 23.6293 126.354 23.544C126.178 23.4533 125.983 23.376 125.77 23.312L122.818 22.44C122.53 22.3547 122.237 22.2453 121.938 22.112C121.639 21.9733 121.365 21.7947 121.114 21.576C120.869 21.352 120.669 21.0773 120.514 20.752C120.359 20.4213 120.282 20.0213 120.282 19.552C120.282 18.8427 120.463 18.2427 120.826 17.752C121.194 17.256 121.69 16.8827 122.314 16.632C122.938 16.376 123.637 16.248 124.41 16.248C125.189 16.2587 125.885 16.3973 126.498 16.664C127.117 16.9307 127.629 17.3147 128.034 17.816C128.445 18.312 128.727 18.9147 128.882 19.624L127.09 19.928C127.01 19.496 126.839 19.1253 126.578 18.816C126.317 18.5013 125.997 18.2613 125.618 18.096C125.239 17.9253 124.829 17.8373 124.386 17.832C123.959 17.8213 123.567 17.8853 123.21 18.024C122.858 18.1627 122.575 18.3573 122.362 18.608C122.154 18.8587 122.05 19.1467 122.05 19.472C122.05 19.792 122.143 20.0507 122.33 20.248C122.517 20.4453 122.746 20.6027 123.018 20.72C123.295 20.832 123.57 20.9253 123.842 21L125.97 21.6C126.237 21.6747 126.538 21.776 126.874 21.904C127.215 22.0267 127.543 22.2 127.858 22.424C128.178 22.648 128.442 22.9467 128.65 23.32C128.858 23.688 128.962 24.152 128.962 24.712C128.962 25.2933 128.845 25.8053 128.61 26.248C128.375 26.6853 128.053 27.0533 127.642 27.352C127.237 27.6453 126.767 27.8667 126.234 28.016C125.701 28.1653 125.138 28.24 124.546 28.24ZM130.827 28V16.48H132.499V28H130.827ZM139.613 28.24C138.84 28.24 138.128 28.1067 137.477 27.84C136.827 27.568 136.261 27.1733 135.781 26.656C135.301 26.1387 134.928 25.5093 134.661 24.768C134.395 24.0267 134.261 23.184 134.261 22.24C134.261 20.9973 134.488 19.9307 134.941 19.04C135.395 18.144 136.024 17.456 136.829 16.976C137.635 16.4907 138.563 16.248 139.613 16.248C140.968 16.248 142.048 16.5627 142.853 17.192C143.664 17.8213 144.216 18.6907 144.509 19.8L142.813 20.104C142.579 19.416 142.2 18.8667 141.677 18.456C141.155 18.0453 140.499 17.8373 139.709 17.832C138.893 17.8267 138.213 18.008 137.669 18.376C137.131 18.744 136.725 19.2613 136.453 19.928C136.181 20.5893 136.043 21.36 136.037 22.24C136.032 23.12 136.165 23.8907 136.437 24.552C136.709 25.208 137.117 25.72 137.661 26.088C138.211 26.456 138.893 26.6427 139.709 26.648C140.365 26.6587 140.928 26.5387 141.397 26.288C141.872 26.032 142.248 25.6587 142.525 25.168C142.803 24.6773 142.981 24.0747 143.061 23.36H140.821V22.016H144.837C144.848 22.112 144.856 22.24 144.861 22.4C144.867 22.5547 144.869 22.6533 144.869 22.696C144.869 23.7627 144.664 24.7147 144.253 25.552C143.843 26.3893 143.245 27.048 142.461 27.528C141.677 28.0027 140.728 28.24 139.613 28.24ZM146.464 28V16.48H148.16L153.832 25.04V16.48H155.528V28H153.832L148.16 19.432V28H146.464ZM165.556 28.24C164.654 28.24 163.857 28.056 163.164 27.688C162.476 27.3147 161.937 26.7947 161.548 26.128C161.158 25.456 160.964 24.6667 160.964 23.76V16.488L162.66 16.48V23.672C162.66 24.1627 162.742 24.5947 162.908 24.968C163.073 25.3413 163.294 25.6533 163.572 25.904C163.849 26.1547 164.158 26.344 164.5 26.472C164.846 26.6 165.198 26.664 165.556 26.664C165.918 26.664 166.27 26.6 166.612 26.472C166.958 26.3387 167.27 26.1467 167.548 25.896C167.825 25.6453 168.044 25.3333 168.204 24.96C168.369 24.5867 168.452 24.1573 168.452 23.672V16.48H170.148V23.76C170.148 24.6613 169.953 25.448 169.564 26.12C169.174 26.792 168.633 27.3147 167.94 27.688C167.252 28.056 166.457 28.24 165.556 28.24ZM172.386 28V16.48H177.042C177.154 16.48 177.292 16.4853 177.458 16.496C177.623 16.5013 177.78 16.5173 177.93 16.544C178.57 16.6453 179.103 16.864 179.53 17.2C179.962 17.536 180.284 17.96 180.498 18.472C180.711 18.984 180.818 19.5493 180.818 20.168C180.818 20.792 180.711 21.36 180.498 21.872C180.284 22.384 179.962 22.808 179.53 23.144C179.103 23.48 178.57 23.6987 177.93 23.8C177.78 23.8213 177.62 23.8373 177.45 23.848C177.284 23.8587 177.148 23.864 177.042 23.864H174.058V28H172.386ZM174.058 22.28H176.978C177.084 22.28 177.202 22.2747 177.33 22.264C177.463 22.2533 177.588 22.2347 177.706 22.208C178.047 22.128 178.322 21.9813 178.53 21.768C178.738 21.5493 178.887 21.2987 178.978 21.016C179.068 20.7333 179.114 20.4507 179.114 20.168C179.114 19.8853 179.068 19.6053 178.978 19.328C178.887 19.0453 178.738 18.7973 178.53 18.584C178.322 18.3653 178.047 18.216 177.706 18.136C177.588 18.104 177.463 18.0827 177.33 18.072C177.202 18.0613 177.084 18.056 176.978 18.056H174.058V22.28Z" fill="url(#paint0_linear_1126_9046)"/>
<rect x="1.25" y="1" width="299" height="42" rx="7" stroke="url(#paint1_linear_1126_9046)" stroke-width="2" stroke-linecap="round"/>
<defs>
<linearGradient id="paint0_linear_1126_9046" x1="150.75" y1="10" x2="150.75" y2="34" gradientUnits="userSpaceOnUse">
<stop stop-color="#00B4D8"/>
<stop offset="1" stop-color="#0077B6"/>
</linearGradient>
<linearGradient id="paint1_linear_1126_9046" x1="150.75" y1="0" x2="150.75" y2="44" gradientUnits="userSpaceOnUse">
<stop stop-color="#00B4D8"/>
<stop offset="1" stop-color="#0077B6"/>
</linearGradient>
</defs>
</svg>
